<svg width="306" height="270" viewBox="0 0 306 270" fill="none" xmlns="http://www.w3.org/2000/svg">
<rect x="84" y="171" width="138" height="98" rx="9" fill="url(#paint0_linear_5833_4)" stroke="#0172C6" stroke-width="2"/>
<path d="M116.248 226.78C116.248 227.127 116.121 227.42 115.868 227.66C115.615 227.887 115.321 228 114.988 228C114.615 228 114.315 227.887 114.088 227.66C113.861 227.42 113.748 227.127 113.748 226.78V215.22C113.748 214.873 113.868 214.587 114.108 214.36C114.348 214.12 114.655 214 115.028 214C115.348 214 115.628 214.12 115.868 214.36C116.121 214.587 116.248 214.873 116.248 215.22V226.78ZM124.776 217.1C125.763 217.1 126.509 217.307 127.016 217.72C127.536 218.133 127.889 218.687 128.076 219.38C128.276 220.06 128.376 220.82 128.376 221.66V226.78C128.376 227.127 128.263 227.42 128.036 227.66C127.809 227.887 127.523 228 127.176 228C126.829 228 126.543 227.887 126.316 227.66C126.089 227.42 125.976 227.127 125.976 226.78V221.66C125.976 221.22 125.916 220.827 125.796 220.48C125.689 220.12 125.489 219.833 125.196 219.62C124.903 219.407 124.483 219.3 123.936 219.3C123.403 219.3 122.949 219.407 122.576 219.62C122.216 219.833 121.936 220.12 121.736 220.48C121.549 220.827 121.456 221.22 121.456 221.66V226.78C121.456 227.127 121.343 227.42 121.116 227.66C120.889 227.887 120.603 228 120.256 228C119.909 228 119.623 227.887 119.396 227.66C119.169 227.42 119.056 227.127 119.056 226.78V218.52C119.056 218.173 119.169 217.887 119.396 217.66C119.623 217.42 119.909 217.3 120.256 217.3C120.603 217.3 120.889 217.42 121.116 217.66C121.343 217.887 121.456 218.173 121.456 218.52V219.38L121.156 219.32C121.276 219.093 121.449 218.853 121.676 218.6C121.903 218.333 122.169 218.087 122.476 217.86C122.783 217.633 123.129 217.453 123.516 217.32C123.903 217.173 124.323 217.1 124.776 217.1ZM131.09 217.5H135.83C136.15 217.5 136.417 217.607 136.63 217.82C136.843 218.033 136.95 218.3 136.95 218.62C136.95 218.927 136.843 219.187 136.63 219.4C136.417 219.6 136.15 219.7 135.83 219.7H131.09C130.77 219.7 130.503 219.593 130.29 219.38C130.077 219.167 129.97 218.9 129.97 218.58C129.97 218.273 130.077 218.02 130.29 217.82C130.503 217.607 130.77 217.5 131.09 217.5ZM133.23 215C133.577 215 133.857 215.12 134.07 215.36C134.297 215.587 134.41 215.873 134.41 216.22V225.12C134.41 225.307 134.443 225.46 134.51 225.58C134.59 225.7 134.69 225.787 134.81 225.84C134.943 225.893 135.083 225.92 135.23 225.92C135.39 225.92 135.537 225.893 135.67 225.84C135.803 225.773 135.957 225.74 136.13 225.74C136.317 225.74 136.483 225.827 136.63 226C136.79 226.173 136.87 226.413 136.87 226.72C136.87 227.093 136.663 227.4 136.25 227.64C135.85 227.88 135.417 228 134.95 228C134.67 228 134.357 227.98 134.01 227.94C133.677 227.887 133.357 227.773 133.05 227.6C132.757 227.413 132.51 227.133 132.31 226.76C132.11 226.387 132.01 225.873 132.01 225.22V216.22C132.01 215.873 132.123 215.587 132.35 215.36C132.59 215.12 132.883 215 133.23 215ZM147.074 225.66C147.42 225.66 147.707 225.773 147.934 226C148.174 226.213 148.294 226.493 148.294 226.84C148.294 227.173 148.174 227.453 147.934 227.68C147.707 227.893 147.42 228 147.074 228H140.574C140.227 228 139.934 227.887 139.694 227.66C139.467 227.42 139.354 227.127 139.354 226.78V215.22C139.354 214.873 139.474 214.587 139.714 214.36C139.954 214.12 140.26 214 140.634 214C140.954 214 141.234 214.12 141.474 214.36C141.727 214.587 141.854 214.873 141.854 215.22V226L141.414 225.66H147.074ZM159.144 217.1C159.491 217.1 159.777 217.213 160.004 217.44C160.231 217.667 160.344 217.96 160.344 218.32V226.78C160.344 227.127 160.231 227.42 160.004 227.66C159.777 227.887 159.491 228 159.144 228C158.797 228 158.511 227.887 158.284 227.66C158.057 227.42 157.944 227.127 157.944 226.78V225.8L158.384 225.98C158.384 226.153 158.291 226.367 158.104 226.62C157.917 226.86 157.664 227.1 157.344 227.34C157.024 227.58 156.644 227.787 156.204 227.96C155.777 228.12 155.311 228.2 154.804 228.2C153.884 228.2 153.051 227.967 152.304 227.5C151.557 227.02 150.964 226.367 150.524 225.54C150.097 224.7 149.884 223.74 149.884 222.66C149.884 221.567 150.097 220.607 150.524 219.78C150.964 218.94 151.551 218.287 152.284 217.82C153.017 217.34 153.831 217.1 154.724 217.1C155.297 217.1 155.824 217.187 156.304 217.36C156.784 217.533 157.197 217.753 157.544 218.02C157.904 218.287 158.177 218.56 158.364 218.84C158.564 219.107 158.664 219.333 158.664 219.52L157.944 219.78V218.32C157.944 217.973 158.057 217.687 158.284 217.46C158.511 217.22 158.797 217.1 159.144 217.1ZM155.104 226C155.691 226 156.204 225.853 156.644 225.56C157.084 225.267 157.424 224.867 157.664 224.36C157.917 223.853 158.044 223.287 158.044 222.66C158.044 222.02 157.917 221.447 157.664 220.94C157.424 220.433 157.084 220.033 156.644 219.74C156.204 219.447 155.691 219.3 155.104 219.3C154.531 219.3 154.024 219.447 153.584 219.74C153.144 220.033 152.797 220.433 152.544 220.94C152.304 221.447 152.184 222.02 152.184 222.66C152.184 223.287 152.304 223.853 152.544 224.36C152.797 224.867 153.144 225.267 153.584 225.56C154.024 225.853 154.531 226 155.104 226ZM170.883 217.3C171.229 217.3 171.516 217.42 171.743 217.66C171.969 217.887 172.083 218.173 172.083 218.52V227.02C172.083 228.247 171.849 229.22 171.383 229.94C170.929 230.673 170.316 231.2 169.543 231.52C168.769 231.84 167.903 232 166.943 232C166.516 232 166.063 231.967 165.583 231.9C165.103 231.833 164.709 231.733 164.403 231.6C164.003 231.427 163.723 231.207 163.563 230.94C163.416 230.687 163.389 230.413 163.483 230.12C163.603 229.733 163.796 229.467 164.063 229.32C164.329 229.187 164.609 229.173 164.903 229.28C165.116 229.347 165.396 229.447 165.743 229.58C166.089 229.727 166.489 229.8 166.943 229.8C167.556 229.8 168.063 229.713 168.463 229.54C168.876 229.38 169.183 229.1 169.383 228.7C169.596 228.313 169.703 227.78 169.703 227.1V225.76L170.123 226.24C169.896 226.68 169.609 227.047 169.263 227.34C168.929 227.62 168.529 227.833 168.063 227.98C167.596 228.127 167.063 228.2 166.463 228.2C165.756 228.2 165.136 228.04 164.603 227.72C164.083 227.387 163.676 226.933 163.383 226.36C163.089 225.773 162.943 225.107 162.943 224.36V218.52C162.943 218.173 163.056 217.887 163.283 217.66C163.509 217.42 163.796 217.3 164.143 217.3C164.489 217.3 164.776 217.42 165.003 217.66C165.229 217.887 165.343 218.173 165.343 218.52V223.64C165.343 224.507 165.529 225.12 165.903 225.48C166.289 225.827 166.823 226 167.503 226C167.969 226 168.363 225.913 168.683 225.74C169.003 225.553 169.249 225.287 169.423 224.94C169.596 224.58 169.683 224.147 169.683 223.64V218.52C169.683 218.173 169.796 217.887 170.023 217.66C170.249 217.42 170.536 217.3 170.883 217.3ZM179.623 228.2C178.49 228.2 177.503 227.967 176.663 227.5C175.837 227.02 175.197 226.373 174.743 225.56C174.303 224.747 174.083 223.827 174.083 222.8C174.083 221.6 174.323 220.58 174.803 219.74C175.297 218.887 175.937 218.233 176.723 217.78C177.51 217.327 178.343 217.1 179.223 217.1C179.903 217.1 180.543 217.24 181.143 217.52C181.757 217.8 182.297 218.187 182.763 218.68C183.23 219.16 183.597 219.72 183.863 220.36C184.143 221 184.283 221.68 184.283 222.4C184.27 222.72 184.143 222.98 183.903 223.18C183.663 223.38 183.383 223.48 183.063 223.48H175.423L174.823 221.48H182.163L181.723 221.88V221.34C181.697 220.953 181.557 220.607 181.303 220.3C181.063 219.993 180.757 219.753 180.383 219.58C180.023 219.393 179.637 219.3 179.223 219.3C178.823 219.3 178.45 219.353 178.103 219.46C177.757 219.567 177.457 219.747 177.203 220C176.95 220.253 176.75 220.593 176.603 221.02C176.457 221.447 176.383 221.987 176.383 222.64C176.383 223.36 176.53 223.973 176.823 224.48C177.13 224.973 177.517 225.353 177.983 225.62C178.463 225.873 178.97 226 179.503 226C179.997 226 180.39 225.96 180.683 225.88C180.977 225.8 181.21 225.707 181.383 225.6C181.57 225.48 181.737 225.38 181.883 225.3C182.123 225.18 182.35 225.12 182.563 225.12C182.857 225.12 183.097 225.22 183.283 225.42C183.483 225.62 183.583 225.853 183.583 226.12C183.583 226.48 183.397 226.807 183.023 227.1C182.677 227.393 182.19 227.653 181.563 227.88C180.937 228.093 180.29 228.2 179.623 228.2ZM187.58 228C187.233 228 186.947 227.887 186.72 227.66C186.493 227.42 186.38 227.127 186.38 226.78V218.52C186.38 218.173 186.493 217.887 186.72 217.66C186.947 217.42 187.233 217.3 187.58 217.3C187.927 217.3 188.213 217.42 188.44 217.66C188.667 217.887 188.78 218.173 188.78 218.52V220.4L188.64 219.06C188.787 218.74 188.973 218.46 189.2 218.22C189.44 217.967 189.707 217.76 190 217.6C190.293 217.427 190.607 217.3 190.94 217.22C191.273 217.14 191.607 217.1 191.94 217.1C192.34 217.1 192.673 217.213 192.94 217.44C193.22 217.667 193.36 217.933 193.36 218.24C193.36 218.68 193.247 219 193.02 219.2C192.793 219.387 192.547 219.48 192.28 219.48C192.027 219.48 191.793 219.433 191.58 219.34C191.38 219.247 191.147 219.2 190.88 219.2C190.64 219.2 190.393 219.26 190.14 219.38C189.9 219.487 189.673 219.66 189.46 219.9C189.26 220.14 189.093 220.44 188.96 220.8C188.84 221.147 188.78 221.56 188.78 222.04V226.78C188.78 227.127 188.667 227.42 188.44 227.66C188.213 227.887 187.927 228 187.58 228Z" fill="#2E2E2E"/>
<path d="M66.1572 97.5857C65.8962 97.099 66.0791 96.4929 66.5658 96.2319C67.0525 95.9708 67.6587 96.1538 67.9197 96.6405L66.1572 97.5857ZM100.395 157.812C100.236 158.341 99.6776 158.64 99.1489 158.48L90.5327 155.88C90.004 155.72 89.7048 155.162 89.8643 154.634C90.0239 154.105 90.5819 153.806 91.1106 153.965L98.7694 156.277L101.081 148.618C101.24 148.089 101.798 147.79 102.327 147.95C102.856 148.109 103.155 148.667 102.996 149.196L100.395 157.812ZM98.5566 157.996L97.3994 155.838L99.162 154.893L100.319 157.05L98.5566 157.996ZM95.0852 151.523L92.771 147.208L94.5335 146.263L96.8477 150.578L95.0852 151.523ZM90.4567 142.893L88.1425 138.578L89.905 137.633L92.2192 141.948L90.4567 142.893ZM85.8282 134.263L83.514 129.948L85.2765 129.003L87.5908 133.318L85.8282 134.263ZM81.1998 125.633L78.8855 121.318L80.648 120.373L82.9623 124.688L81.1998 125.633ZM76.5713 117.003L74.2571 112.688L76.0196 111.743L78.3338 116.058L76.5713 117.003ZM71.9428 108.373L69.6286 104.058L71.3911 103.113L73.7053 107.428L71.9428 108.373ZM67.3143 99.7432L66.1572 97.5857L67.9197 96.6405L69.0769 98.798L67.3143 99.7432Z" fill="#0172C6"/>
<path d="M228.505 98.3864C228.796 97.917 229.413 97.7723 229.882 98.0633C230.352 98.3543 230.496 98.9707 230.205 99.4401L228.505 98.3864ZM193.467 158.15C192.929 158.277 192.391 157.943 192.265 157.405L190.209 148.643C190.083 148.106 190.416 147.567 190.954 147.441C191.492 147.315 192.03 147.649 192.156 148.186L193.983 155.975L201.772 154.147C202.31 154.021 202.848 154.355 202.974 154.892C203.1 155.43 202.767 155.968 202.229 156.094L193.467 158.15ZM192.388 156.65L193.678 154.569L195.378 155.623L194.088 157.704L192.388 156.65ZM196.258 150.407L198.838 146.246L200.538 147.3L197.958 151.461L196.258 150.407ZM201.418 142.084L203.997 137.922L205.697 138.976L203.118 143.138L201.418 142.084ZM206.577 133.761L209.157 129.599L210.857 130.653L208.277 134.814L206.577 133.761ZM211.737 125.437L214.317 121.276L216.016 122.329L213.437 126.491L211.737 125.437ZM216.896 117.114L219.476 112.952L221.176 114.006L218.596 118.168L216.896 117.114ZM222.056 108.791L224.636 104.629L226.336 105.683L223.756 109.844L222.056 108.791ZM227.215 100.467L228.505 98.3864L230.205 99.4401L228.915 101.521L227.215 100.467Z" fill="#0172C6"/>
<path d="M2.23145 7.2H7.21545C7.37412 7.2 7.50945 7.25133 7.62145 7.354C7.73345 7.45667 7.78945 7.58733 7.78945 7.746C7.78945 7.90467 7.73345 8.03533 7.62145 8.138C7.50945 8.23133 7.37412 8.278 7.21545 8.278H2.70745L2.83345 8.04V11.582L2.69345 11.428H6.58545C6.74412 11.428 6.87945 11.4793 6.99145 11.582C7.10345 11.6847 7.15945 11.8153 7.15945 11.974C7.15945 12.1327 7.10345 12.2633 6.99145 12.366C6.87945 12.4593 6.74412 12.506 6.58545 12.506H2.73545L2.83345 12.38V16.006L2.74945 15.908H7.21545C7.37412 15.908 7.50945 15.964 7.62145 16.076C7.73345 16.188 7.78945 16.314 7.78945 16.454C7.78945 16.6127 7.73345 16.7433 7.62145 16.846C7.50945 16.9487 7.37412 17 7.21545 17H2.23145C2.07279 17 1.93745 16.944 1.82545 16.832C1.72279 16.72 1.67145 16.5847 1.67145 16.426V7.76C1.67145 7.60133 1.72279 7.47067 1.82545 7.368C1.93745 7.256 2.07279 7.2 2.23145 7.2ZM9.38983 9.678C9.56716 9.678 9.71649 9.75733 9.83783 9.916L14.7098 16.132C14.7845 16.2347 14.8218 16.3467 14.8218 16.468C14.8218 16.6267 14.7658 16.762 14.6538 16.874C14.5418 16.986 14.4112 17.042 14.2618 17.042C14.0845 17.042 13.9305 16.958 13.7998 16.79L8.92783 10.588C8.85316 10.4853 8.81583 10.3733 8.81583 10.252C8.81583 10.084 8.87183 9.94867 8.98383 9.846C9.10516 9.734 9.24049 9.678 9.38983 9.678ZM9.38983 17.028C9.26849 17.028 9.14716 16.9813 9.02583 16.888C8.90449 16.7947 8.84383 16.6733 8.84383 16.524C8.84383 16.4027 8.89049 16.286 8.98383 16.174L11.2798 13.276L11.8678 14.2L9.83783 16.804C9.72583 16.9533 9.57649 17.028 9.38983 17.028ZM14.2618 9.678C14.4205 9.678 14.5465 9.72933 14.6398 9.832C14.7425 9.93467 14.7938 10.0513 14.7938 10.182C14.7938 10.238 14.7798 10.2987 14.7518 10.364C14.7332 10.4293 14.7005 10.49 14.6538 10.546L12.3718 13.472L11.7838 12.618L13.7998 9.93C13.9305 9.762 14.0845 9.678 14.2618 9.678ZM19.505 17.14C18.7584 17.14 18.105 16.9813 17.545 16.664C16.985 16.3467 16.5464 15.9127 16.229 15.362C15.921 14.802 15.767 14.158 15.767 13.43C15.767 12.618 15.9257 11.9273 16.243 11.358C16.5697 10.7793 16.9897 10.3407 17.503 10.042C18.0257 9.734 18.5764 9.58 19.155 9.58C19.5844 9.58 19.9997 9.65933 20.401 9.818C20.8024 9.97667 21.157 10.21 21.465 10.518C21.773 10.8167 22.0204 11.1807 22.207 11.61C22.3937 12.03 22.4917 12.5013 22.501 13.024C22.501 13.1733 22.445 13.2993 22.333 13.402C22.221 13.5047 22.0904 13.556 21.941 13.556H16.411L16.159 12.59H21.549L21.325 12.786V12.478C21.2877 12.0953 21.157 11.7687 20.933 11.498C20.7184 11.218 20.4524 11.0033 20.135 10.854C19.827 10.7047 19.5004 10.63 19.155 10.63C18.875 10.63 18.595 10.6813 18.315 10.784C18.0444 10.8773 17.797 11.036 17.573 11.26C17.3584 11.4747 17.181 11.7547 17.041 12.1C16.9104 12.4453 16.845 12.8607 16.845 13.346C16.845 13.8873 16.9524 14.3633 17.167 14.774C17.391 15.1847 17.699 15.5113 18.091 15.754C18.483 15.9873 18.9404 16.104 19.463 16.104C19.7897 16.104 20.0744 16.062 20.317 15.978C20.5597 15.894 20.7697 15.7913 20.947 15.67C21.1244 15.5393 21.2737 15.4087 21.395 15.278C21.5164 15.194 21.633 15.152 21.745 15.152C21.885 15.152 21.997 15.1987 22.081 15.292C22.1744 15.3853 22.221 15.4973 22.221 15.628C22.221 15.7867 22.1464 15.9267 21.997 16.048C21.7357 16.3373 21.381 16.594 20.933 16.818C20.485 17.0327 20.009 17.14 19.505 17.14ZM27.4044 9.58C27.8804 9.58 28.3098 9.63133 28.6924 9.734C29.0751 9.83667 29.3784 9.97667 29.6024 10.154C29.8264 10.3313 29.9384 10.532 29.9384 10.756C29.9384 10.8773 29.8964 10.994 29.8124 11.106C29.7284 11.218 29.6164 11.274 29.4764 11.274C29.3458 11.274 29.2384 11.2507 29.1544 11.204C29.0798 11.1573 29.0051 11.0967 28.9304 11.022C28.8651 10.9473 28.7718 10.882 28.6504 10.826C28.5384 10.7607 28.3751 10.7093 28.1604 10.672C27.9458 10.6347 27.7311 10.616 27.5164 10.616C27.0031 10.616 26.5504 10.7373 26.1584 10.98C25.7758 11.2227 25.4724 11.5493 25.2484 11.96C25.0244 12.3707 24.9124 12.8373 24.9124 13.36C24.9124 13.8827 25.0198 14.3493 25.2344 14.76C25.4491 15.1707 25.7478 15.4973 26.1304 15.74C26.5131 15.9827 26.9564 16.104 27.4604 16.104C27.7871 16.104 28.0484 16.076 28.2444 16.02C28.4404 15.964 28.6038 15.8987 28.7344 15.824C28.9024 15.7307 29.0284 15.6373 29.1124 15.544C29.2058 15.4507 29.3271 15.404 29.4764 15.404C29.6351 15.404 29.7564 15.4553 29.8404 15.558C29.9338 15.6607 29.9804 15.7867 29.9804 15.936C29.9804 16.104 29.8638 16.2813 29.6304 16.468C29.3971 16.6547 29.0798 16.8133 28.6784 16.944C28.2864 17.0747 27.8384 17.14 27.3344 17.14C26.6251 17.14 26.0044 16.9767 25.4724 16.65C24.9404 16.314 24.5251 15.8613 24.2264 15.292C23.9371 14.7133 23.7924 14.0693 23.7924 13.36C23.7924 12.6507 23.9418 12.0113 24.2404 11.442C24.5484 10.8727 24.9731 10.42 25.5144 10.084C26.0558 9.748 26.6858 9.58 27.4044 9.58ZM36.8622 9.762C37.0302 9.762 37.1655 9.818 37.2682 9.93C37.3709 10.0327 37.4222 10.1633 37.4222 10.322V14.144C37.4222 15.0867 37.1562 15.8193 36.6242 16.342C36.1015 16.8553 35.3689 17.112 34.4262 17.112C33.4929 17.112 32.7602 16.8553 32.2282 16.342C31.7055 15.8193 31.4442 15.0867 31.4442 14.144V10.322C31.4442 10.1633 31.4955 10.0327 31.5982 9.93C31.7102 9.818 31.8455 9.762 32.0042 9.762C32.1722 9.762 32.3075 9.818 32.4102 9.93C32.5129 10.0327 32.5642 10.1633 32.5642 10.322V14.144C32.5642 14.7787 32.7275 15.2593 33.0542 15.586C33.3809 15.9127 33.8382 16.076 34.4262 16.076C35.0329 16.076 35.4949 15.9127 35.8122 15.586C36.1389 15.2593 36.3022 14.7787 36.3022 14.144V10.322C36.3022 10.1633 36.3535 10.0327 36.4562 9.93C36.5682 9.818 36.7035 9.762 36.8622 9.762ZM39.2169 9.804H42.5069C42.6563 9.804 42.7776 9.85533 42.8709 9.958C42.9736 10.0607 43.0249 10.182 43.0249 10.322C43.0249 10.4713 42.9736 10.5973 42.8709 10.7C42.7776 10.7933 42.6563 10.84 42.5069 10.84H39.2169C39.0769 10.84 38.9556 10.7887 38.8529 10.686C38.7503 10.5833 38.6989 10.4573 38.6989 10.308C38.6989 10.168 38.7503 10.0513 38.8529 9.958C38.9556 9.85533 39.0769 9.804 39.2169 9.804ZM40.6869 7.9C40.8456 7.9 40.9763 7.956 41.0789 8.068C41.1816 8.17067 41.2329 8.30133 41.2329 8.46V15.222C41.2329 15.446 41.2656 15.614 41.3309 15.726C41.3963 15.838 41.4803 15.9173 41.5829 15.964C41.6949 16.0013 41.8023 16.02 41.9049 16.02C41.9983 16.02 42.0776 16.006 42.1429 15.978C42.2176 15.9407 42.3016 15.922 42.3949 15.922C42.4883 15.922 42.5723 15.9687 42.6469 16.062C42.7309 16.146 42.7729 16.258 42.7729 16.398C42.7729 16.566 42.6749 16.7107 42.4789 16.832C42.2829 16.944 42.0636 17 41.8209 17C41.6903 17 41.5269 16.9907 41.3309 16.972C41.1443 16.9533 40.9576 16.8927 40.7709 16.79C40.5843 16.6873 40.4256 16.5193 40.2949 16.286C40.1736 16.0433 40.1129 15.7073 40.1129 15.278V8.46C40.1129 8.30133 40.1689 8.17067 40.2809 8.068C40.3929 7.956 40.5283 7.9 40.6869 7.9ZM45.6609 16.426C45.6609 16.5847 45.6049 16.72 45.4929 16.832C45.3902 16.944 45.2595 17 45.1009 17C44.9329 17 44.7975 16.944 44.6949 16.832C44.5922 16.72 44.5409 16.5847 44.5409 16.426V10.21C44.5409 10.0513 44.5922 9.92067 44.6949 9.818C44.8069 9.706 44.9422 9.65 45.1009 9.65C45.2595 9.65 45.3902 9.706 45.4929 9.818C45.6049 9.92067 45.6609 10.0513 45.6609 10.21V16.426ZM45.1009 8.712C44.8675 8.712 44.6949 8.66533 44.5829 8.572C44.4709 8.47867 44.4149 8.334 44.4149 8.138V7.942C44.4149 7.746 44.4755 7.60133 44.5969 7.508C44.7182 7.41467 44.8909 7.368 45.1149 7.368C45.3389 7.368 45.5069 7.41467 45.6189 7.508C45.7309 7.60133 45.7869 7.746 45.7869 7.942V8.138C45.7869 8.334 45.7262 8.47867 45.6049 8.572C45.4929 8.66533 45.3249 8.712 45.1009 8.712ZM54.5467 13.36C54.5467 14.088 54.3834 14.7367 54.0567 15.306C53.7394 15.8753 53.3054 16.3233 52.7547 16.65C52.2134 16.9767 51.6021 17.14 50.9207 17.14C50.2394 17.14 49.6234 16.9767 49.0727 16.65C48.5221 16.3233 48.0834 15.8753 47.7567 15.306C47.4394 14.7367 47.2807 14.088 47.2807 13.36C47.2807 12.632 47.4394 11.9833 47.7567 11.414C48.0834 10.8447 48.5221 10.3967 49.0727 10.07C49.6234 9.74333 50.2394 9.58 50.9207 9.58C51.6021 9.58 52.2134 9.74333 52.7547 10.07C53.3054 10.3967 53.7394 10.8447 54.0567 11.414C54.3834 11.9833 54.5467 12.632 54.5467 13.36ZM53.4267 13.36C53.4267 12.8187 53.3147 12.3427 53.0907 11.932C52.8761 11.5213 52.5774 11.1993 52.1947 10.966C51.8214 10.7327 51.3967 10.616 50.9207 10.616C50.4447 10.616 50.0154 10.7327 49.6327 10.966C49.2594 11.1993 48.9607 11.5213 48.7367 11.932C48.5127 12.3427 48.4007 12.8187 48.4007 13.36C48.4007 13.892 48.5127 14.3633 48.7367 14.774C48.9607 15.1847 49.2594 15.5113 49.6327 15.754C50.0154 15.9873 50.4447 16.104 50.9207 16.104C51.3967 16.104 51.8214 15.9873 52.1947 15.754C52.5774 15.5113 52.8761 15.1847 53.0907 14.774C53.3147 14.3633 53.4267 13.892 53.4267 13.36ZM59.8293 9.58C60.464 9.58 60.9633 9.71067 61.3273 9.972C61.6913 10.2333 61.948 10.5833 62.0973 11.022C62.256 11.4607 62.3353 11.9507 62.3353 12.492V16.426C62.3353 16.5847 62.2793 16.72 62.1673 16.832C62.0646 16.944 61.934 17 61.7753 17C61.6166 17 61.4813 16.944 61.3693 16.832C61.2666 16.72 61.2153 16.5847 61.2153 16.426V12.52C61.2153 12.1653 61.1593 11.848 61.0473 11.568C60.9446 11.2787 60.7673 11.05 60.5153 10.882C60.2726 10.7047 59.9366 10.616 59.5073 10.616C59.1153 10.616 58.756 10.7047 58.4293 10.882C58.1026 11.05 57.8413 11.2787 57.6453 11.568C57.4493 11.848 57.3513 12.1653 57.3513 12.52V16.426C57.3513 16.5847 57.2953 16.72 57.1833 16.832C57.0806 16.944 56.95 17 56.7913 17C56.6326 17 56.4973 16.944 56.3853 16.832C56.2826 16.72 56.2313 16.5847 56.2313 16.426V10.322C56.2313 10.1633 56.2826 10.0327 56.3853 9.93C56.4973 9.818 56.6326 9.762 56.7913 9.762C56.9593 9.762 57.0946 9.818 57.1973 9.93C57.3 10.0327 57.3513 10.1633 57.3513 10.322V11.316L57.0713 11.624C57.118 11.3813 57.2253 11.1387 57.3933 10.896C57.5613 10.644 57.7713 10.42 58.0233 10.224C58.2753 10.028 58.5553 9.874 58.8633 9.762C59.1713 9.64067 59.4933 9.58 59.8293 9.58ZM72.5186 7.2C73.1999 7.2 73.7972 7.33067 74.3106 7.592C74.8332 7.844 75.2672 8.19867 75.6126 8.656C75.9579 9.11333 76.2146 9.64067 76.3826 10.238C76.5599 10.826 76.6486 11.4467 76.6486 12.1C76.6486 12.996 76.4946 13.8173 76.1866 14.564C75.8786 15.3013 75.4212 15.894 74.8146 16.342C74.2079 16.7807 73.4426 17 72.5186 17H69.0186C68.8599 17 68.7246 16.944 68.6126 16.832C68.5099 16.72 68.4586 16.5847 68.4586 16.426V7.76C68.4586 7.60133 68.5099 7.47067 68.6126 7.368C68.7246 7.256 68.8599 7.2 69.0186 7.2H72.5186ZM72.3786 15.908C73.0972 15.908 73.6806 15.7353 74.1286 15.39C74.5859 15.0447 74.9172 14.5827 75.1226 14.004C75.3372 13.4253 75.4446 12.7907 75.4446 12.1C75.4446 11.596 75.3839 11.1153 75.2626 10.658C75.1506 10.1913 74.9686 9.78067 74.7166 9.426C74.4739 9.07133 74.1566 8.79133 73.7646 8.586C73.3819 8.38067 72.9199 8.278 72.3786 8.278H69.5086L69.6206 8.166V16.048L69.5366 15.908H72.3786ZM84.2754 9.692C84.4341 9.692 84.5647 9.748 84.6674 9.86C84.7794 9.96267 84.8354 10.0933 84.8354 10.252V16.426C84.8354 16.5847 84.7794 16.72 84.6674 16.832C84.5647 16.944 84.4341 17 84.2754 17C84.1074 17 83.9721 16.944 83.8694 16.832C83.7667 16.72 83.7154 16.5847 83.7154 16.426V15.096L83.9814 15.068C83.9814 15.2733 83.9114 15.4973 83.7714 15.74C83.6314 15.9827 83.4401 16.2113 83.1974 16.426C82.9547 16.6313 82.6654 16.804 82.3294 16.944C82.0027 17.0747 81.6481 17.14 81.2654 17.14C80.6307 17.14 80.0614 16.9767 79.5574 16.65C79.0534 16.314 78.6521 15.8613 78.3534 15.292C78.0641 14.7227 77.9194 14.074 77.9194 13.346C77.9194 12.6087 78.0641 11.96 78.3534 11.4C78.6521 10.8307 79.0534 10.3873 79.5574 10.07C80.0614 9.74333 80.6214 9.58 81.2374 9.58C81.6387 9.58 82.0121 9.64533 82.3574 9.776C82.7027 9.90667 83.0014 10.084 83.2534 10.308C83.5147 10.532 83.7154 10.7793 83.8554 11.05C84.0047 11.3207 84.0794 11.5913 84.0794 11.862L83.7154 11.778V10.252C83.7154 10.0933 83.7667 9.96267 83.8694 9.86C83.9721 9.748 84.1074 9.692 84.2754 9.692ZM81.3914 16.104C81.8581 16.104 82.2687 15.9827 82.6234 15.74C82.9874 15.4973 83.2674 15.1707 83.4634 14.76C83.6687 14.34 83.7714 13.8687 83.7714 13.346C83.7714 12.8327 83.6687 12.3707 83.4634 11.96C83.2674 11.54 82.9874 11.2133 82.6234 10.98C82.2687 10.7373 81.8581 10.616 81.3914 10.616C80.9341 10.616 80.5234 10.7327 80.1594 10.966C79.8047 11.1993 79.5247 11.5213 79.3194 11.932C79.1141 12.3427 79.0114 12.814 79.0114 13.346C79.0114 13.8687 79.1094 14.34 79.3054 14.76C79.5107 15.1707 79.7907 15.4973 80.1454 15.74C80.5094 15.9827 80.9247 16.104 81.3914 16.104ZM86.631 9.804H89.921C90.0703 9.804 90.1917 9.85533 90.285 9.958C90.3877 10.0607 90.439 10.182 90.439 10.322C90.439 10.4713 90.3877 10.5973 90.285 10.7C90.1917 10.7933 90.0703 10.84 89.921 10.84H86.631C86.491 10.84 86.3697 10.7887 86.267 10.686C86.1643 10.5833 86.113 10.4573 86.113 10.308C86.113 10.168 86.1643 10.0513 86.267 9.958C86.3697 9.85533 86.491 9.804 86.631 9.804ZM88.101 7.9C88.2597 7.9 88.3903 7.956 88.493 8.068C88.5957 8.17067 88.647 8.30133 88.647 8.46V15.222C88.647 15.446 88.6797 15.614 88.745 15.726C88.8103 15.838 88.8943 15.9173 88.997 15.964C89.109 16.0013 89.2163 16.02 89.319 16.02C89.4123 16.02 89.4917 16.006 89.557 15.978C89.6317 15.9407 89.7157 15.922 89.809 15.922C89.9023 15.922 89.9863 15.9687 90.061 16.062C90.145 16.146 90.187 16.258 90.187 16.398C90.187 16.566 90.089 16.7107 89.893 16.832C89.697 16.944 89.4777 17 89.235 17C89.1043 17 88.941 16.9907 88.745 16.972C88.5583 16.9533 88.3717 16.8927 88.185 16.79C87.9983 16.6873 87.8397 16.5193 87.709 16.286C87.5877 16.0433 87.527 15.7073 87.527 15.278V8.46C87.527 8.30133 87.583 8.17067 87.695 8.068C87.807 7.956 87.9423 7.9 88.101 7.9ZM97.9609 9.692C98.1196 9.692 98.2503 9.748 98.3529 9.86C98.4649 9.96267 98.5209 10.0933 98.5209 10.252V16.426C98.5209 16.5847 98.4649 16.72 98.3529 16.832C98.2503 16.944 98.1196 17 97.9609 17C97.7929 17 97.6576 16.944 97.5549 16.832C97.4523 16.72 97.4009 16.5847 97.4009 16.426V15.096L97.6669 15.068C97.6669 15.2733 97.5969 15.4973 97.4569 15.74C97.3169 15.9827 97.1256 16.2113 96.8829 16.426C96.6403 16.6313 96.3509 16.804 96.0149 16.944C95.6883 17.0747 95.3336 17.14 94.9509 17.14C94.3163 17.14 93.7469 16.9767 93.2429 16.65C92.7389 16.314 92.3376 15.8613 92.0389 15.292C91.7496 14.7227 91.6049 14.074 91.6049 13.346C91.6049 12.6087 91.7496 11.96 92.0389 11.4C92.3376 10.8307 92.7389 10.3873 93.2429 10.07C93.7469 9.74333 94.3069 9.58 94.9229 9.58C95.3243 9.58 95.6976 9.64533 96.0429 9.776C96.3883 9.90667 96.6869 10.084 96.9389 10.308C97.2003 10.532 97.4009 10.7793 97.5409 11.05C97.6903 11.3207 97.7649 11.5913 97.7649 11.862L97.4009 11.778V10.252C97.4009 10.0933 97.4523 9.96267 97.5549 9.86C97.6576 9.748 97.7929 9.692 97.9609 9.692ZM95.0769 16.104C95.5436 16.104 95.9543 15.9827 96.3089 15.74C96.6729 15.4973 96.9529 15.1707 97.1489 14.76C97.3543 14.34 97.4569 13.8687 97.4569 13.346C97.4569 12.8327 97.3543 12.3707 97.1489 11.96C96.9529 11.54 96.6729 11.2133 96.3089 10.98C95.9543 10.7373 95.5436 10.616 95.0769 10.616C94.6196 10.616 94.2089 10.7327 93.8449 10.966C93.4903 11.1993 93.2103 11.5213 93.0049 11.932C92.7996 12.3427 92.6969 12.814 92.6969 13.346C92.6969 13.8687 92.7949 14.34 92.9909 14.76C93.1963 15.1707 93.4763 15.4973 93.8309 15.74C94.1949 15.9827 94.6103 16.104 95.0769 16.104ZM16.6746 43.632C16.5813 43.632 16.4926 43.6087 16.4086 43.562C15.6433 43.1327 15.004 42.596 14.4906 41.952C13.9773 41.3173 13.59 40.608 13.3286 39.824C13.0673 39.04 12.9366 38.228 12.9366 37.388C12.9366 36.548 13.072 35.7453 13.3426 34.98C13.6133 34.2147 14.0053 33.51 14.5186 32.866C15.0413 32.222 15.6713 31.6713 16.4086 31.214C16.4926 31.1673 16.5813 31.144 16.6746 31.144C16.824 31.144 16.9406 31.2 17.0246 31.312C17.1086 31.4147 17.1506 31.522 17.1506 31.634C17.1506 31.7927 17.076 31.928 16.9266 32.04C16.3106 32.432 15.788 32.9127 15.3586 33.482C14.9386 34.0513 14.6166 34.672 14.3926 35.344C14.178 36.0067 14.0706 36.688 14.0706 37.388C14.0706 38.088 14.1733 38.7787 14.3786 39.46C14.5933 40.1413 14.9106 40.762 15.3306 41.322C15.76 41.8913 16.292 42.3673 16.9266 42.75C17.0666 42.834 17.1366 42.9647 17.1366 43.142C17.1366 43.2633 17.0946 43.3753 17.0106 43.478C16.9266 43.5807 16.8146 43.632 16.6746 43.632ZM19.2529 31.2H24.2369C24.3956 31.2 24.5309 31.2513 24.6429 31.354C24.7549 31.4567 24.8109 31.5873 24.8109 31.746C24.8109 31.9047 24.7549 32.0353 24.6429 32.138C24.5309 32.2313 24.3956 32.278 24.2369 32.278H19.7289L19.8549 32.04V35.582L19.7149 35.428H23.6069C23.7656 35.428 23.9009 35.4793 24.0129 35.582C24.1249 35.6847 24.1809 35.8153 24.1809 35.974C24.1809 36.1327 24.1249 36.2633 24.0129 36.366C23.9009 36.4593 23.7656 36.506 23.6069 36.506H19.7569L19.8549 36.38V40.006L19.7709 39.908H24.2369C24.3956 39.908 24.5309 39.964 24.6429 40.076C24.7549 40.188 24.8109 40.314 24.8109 40.454C24.8109 40.6127 24.7549 40.7433 24.6429 40.846C24.5309 40.9487 24.3956 41 24.2369 41H19.2529C19.0943 41 18.9589 40.944 18.8469 40.832C18.7443 40.72 18.6929 40.5847 18.6929 40.426V31.76C18.6929 31.6013 18.7443 31.4707 18.8469 31.368C18.9589 31.256 19.0943 31.2 19.2529 31.2ZM33.7893 31.186C33.948 31.186 34.0833 31.2373 34.1953 31.34C34.3073 31.4333 34.3633 31.5593 34.3633 31.718C34.3633 31.7927 34.3446 31.8767 34.3073 31.97L30.6533 40.636C30.5973 40.7573 30.518 40.8507 30.4153 40.916C30.322 40.972 30.2193 41 30.1073 41C30.0046 40.9907 29.9066 40.958 29.8133 40.902C29.72 40.8367 29.65 40.748 29.6033 40.636L25.9633 31.984C25.9446 31.9467 25.9306 31.9093 25.9213 31.872C25.912 31.8253 25.9073 31.7787 25.9073 31.732C25.9073 31.5547 25.968 31.4193 26.0893 31.326C26.22 31.2233 26.346 31.172 26.4673 31.172C26.7193 31.172 26.9013 31.3027 27.0133 31.564L30.3593 39.544H30.0373L33.2713 31.536C33.3833 31.3027 33.556 31.186 33.7893 31.186ZM36.6165 31.186C36.7005 31.186 36.7892 31.2093 36.8825 31.256C36.9852 31.3027 37.0645 31.3633 37.1205 31.438L40.8305 37.052L40.3405 37.038L44.0925 31.438C44.2139 31.2607 44.3725 31.1767 44.5685 31.186C44.7179 31.1953 44.8485 31.2513 44.9605 31.354C45.0725 31.4567 45.1285 31.592 45.1285 31.76V40.426C45.1285 40.5847 45.0725 40.72 44.9605 40.832C44.8485 40.944 44.7085 41 44.5405 41C44.3725 41 44.2325 40.944 44.1205 40.832C44.0085 40.72 43.9525 40.5847 43.9525 40.426V32.824L44.3025 32.894L40.9985 37.92C40.9425 37.9853 40.8725 38.0413 40.7885 38.088C40.7139 38.1347 40.6345 38.158 40.5505 38.158C40.4665 38.158 40.3825 38.1347 40.2985 38.088C40.2145 38.0413 40.1445 37.9853 40.0885 37.92L36.8265 32.894L37.1205 32.53V40.426C37.1205 40.5847 37.0692 40.72 36.9665 40.832C36.8639 40.944 36.7332 41 36.5745 41C36.4159 41 36.2852 40.944 36.1825 40.832C36.0892 40.72 36.0425 40.5847 36.0425 40.426V31.76C36.0425 31.6107 36.0939 31.48 36.1965 31.368C36.3085 31.2467 36.4485 31.186 36.6165 31.186ZM55.4971 31.2C56.1784 31.2 56.7757 31.3307 57.2891 31.592C57.8117 31.844 58.2457 32.1987 58.5911 32.656C58.9364 33.1133 59.1931 33.6407 59.3611 34.238C59.5384 34.826 59.6271 35.4467 59.6271 36.1C59.6271 36.996 59.4731 37.8173 59.1651 38.564C58.8571 39.3013 58.3997 39.894 57.7931 40.342C57.1864 40.7807 56.4211 41 55.4971 41H51.9971C51.8384 41 51.7031 40.944 51.5911 40.832C51.4884 40.72 51.4371 40.5847 51.4371 40.426V31.76C51.4371 31.6013 51.4884 31.4707 51.5911 31.368C51.7031 31.256 51.8384 31.2 51.9971 31.2H55.4971ZM55.3571 39.908C56.0757 39.908 56.6591 39.7353 57.1071 39.39C57.5644 39.0447 57.8957 38.5827 58.1011 38.004C58.3157 37.4253 58.4231 36.7907 58.4231 36.1C58.4231 35.596 58.3624 35.1153 58.2411 34.658C58.1291 34.1913 57.9471 33.7807 57.6951 33.426C57.4524 33.0713 57.1351 32.7913 56.7431 32.586C56.3604 32.3807 55.8984 32.278 55.3571 32.278H52.4871L52.5991 32.166V40.048L52.5151 39.908H55.3571ZM67.2539 33.692C67.4126 33.692 67.5432 33.748 67.6459 33.86C67.7579 33.9627 67.8139 34.0933 67.8139 34.252V40.426C67.8139 40.5847 67.7579 40.72 67.6459 40.832C67.5432 40.944 67.4126 41 67.2539 41C67.0859 41 66.9506 40.944 66.8479 40.832C66.7452 40.72 66.6939 40.5847 66.6939 40.426V39.096L66.9599 39.068C66.9599 39.2733 66.8899 39.4973 66.7499 39.74C66.6099 39.9827 66.4186 40.2113 66.1759 40.426C65.9332 40.6313 65.6439 40.804 65.3079 40.944C64.9812 41.0747 64.6266 41.14 64.2439 41.14C63.6092 41.14 63.0399 40.9767 62.5359 40.65C62.0319 40.314 61.6306 39.8613 61.3319 39.292C61.0426 38.7227 60.8979 38.074 60.8979 37.346C60.8979 36.6087 61.0426 35.96 61.3319 35.4C61.6306 34.8307 62.0319 34.3873 62.5359 34.07C63.0399 33.7433 63.5999 33.58 64.2159 33.58C64.6172 33.58 64.9906 33.6453 65.3359 33.776C65.6812 33.9067 65.9799 34.084 66.2319 34.308C66.4932 34.532 66.6939 34.7793 66.8339 35.05C66.9832 35.3207 67.0579 35.5913 67.0579 35.862L66.6939 35.778V34.252C66.6939 34.0933 66.7452 33.9627 66.8479 33.86C66.9506 33.748 67.0859 33.692 67.2539 33.692ZM64.3699 40.104C64.8366 40.104 65.2472 39.9827 65.6019 39.74C65.9659 39.4973 66.2459 39.1707 66.4419 38.76C66.6472 38.34 66.7499 37.8687 66.7499 37.346C66.7499 36.8327 66.6472 36.3707 66.4419 35.96C66.2459 35.54 65.9659 35.2133 65.6019 34.98C65.2472 34.7373 64.8366 34.616 64.3699 34.616C63.9126 34.616 63.5019 34.7327 63.1379 34.966C62.7832 35.1993 62.5032 35.5213 62.2979 35.932C62.0926 36.3427 61.9899 36.814 61.9899 37.346C61.9899 37.8687 62.0879 38.34 62.2839 38.76C62.4892 39.1707 62.7692 39.4973 63.1239 39.74C63.4879 39.9827 63.9032 40.104 64.3699 40.104ZM69.6095 33.804H72.8995C73.0488 33.804 73.1702 33.8553 73.2635 33.958C73.3662 34.0607 73.4175 34.182 73.4175 34.322C73.4175 34.4713 73.3662 34.5973 73.2635 34.7C73.1702 34.7933 73.0488 34.84 72.8995 34.84H69.6095C69.4695 34.84 69.3482 34.7887 69.2455 34.686C69.1428 34.5833 69.0915 34.4573 69.0915 34.308C69.0915 34.168 69.1428 34.0513 69.2455 33.958C69.3482 33.8553 69.4695 33.804 69.6095 33.804ZM71.0795 31.9C71.2382 31.9 71.3688 31.956 71.4715 32.068C71.5742 32.1707 71.6255 32.3013 71.6255 32.46V39.222C71.6255 39.446 71.6582 39.614 71.7235 39.726C71.7888 39.838 71.8728 39.9173 71.9755 39.964C72.0875 40.0013 72.1948 40.02 72.2975 40.02C72.3908 40.02 72.4702 40.006 72.5355 39.978C72.6102 39.9407 72.6942 39.922 72.7875 39.922C72.8808 39.922 72.9648 39.9687 73.0395 40.062C73.1235 40.146 73.1655 40.258 73.1655 40.398C73.1655 40.566 73.0675 40.7107 72.8715 40.832C72.6755 40.944 72.4562 41 72.2135 41C72.0828 41 71.9195 40.9907 71.7235 40.972C71.5368 40.9533 71.3502 40.8927 71.1635 40.79C70.9768 40.6873 70.8182 40.5193 70.6875 40.286C70.5662 40.0433 70.5055 39.7073 70.5055 39.278V32.46C70.5055 32.3013 70.5615 32.1707 70.6735 32.068C70.7855 31.956 70.9208 31.9 71.0795 31.9ZM80.9395 33.692C81.0981 33.692 81.2288 33.748 81.3315 33.86C81.4435 33.9627 81.4995 34.0933 81.4995 34.252V40.426C81.4995 40.5847 81.4435 40.72 81.3315 40.832C81.2288 40.944 81.0981 41 80.9395 41C80.7715 41 80.6361 40.944 80.5335 40.832C80.4308 40.72 80.3795 40.5847 80.3795 40.426V39.096L80.6455 39.068C80.6455 39.2733 80.5755 39.4973 80.4355 39.74C80.2955 39.9827 80.1041 40.2113 79.8615 40.426C79.6188 40.6313 79.3295 40.804 78.9935 40.944C78.6668 41.0747 78.3121 41.14 77.9295 41.14C77.2948 41.14 76.7255 40.9767 76.2215 40.65C75.7175 40.314 75.3161 39.8613 75.0175 39.292C74.7281 38.7227 74.5835 38.074 74.5835 37.346C74.5835 36.6087 74.7281 35.96 75.0175 35.4C75.3161 34.8307 75.7175 34.3873 76.2215 34.07C76.7255 33.7433 77.2855 33.58 77.9015 33.58C78.3028 33.58 78.6761 33.6453 79.0215 33.776C79.3668 33.9067 79.6655 34.084 79.9175 34.308C80.1788 34.532 80.3795 34.7793 80.5195 35.05C80.6688 35.3207 80.7435 35.5913 80.7435 35.862L80.3795 35.778V34.252C80.3795 34.0933 80.4308 33.9627 80.5335 33.86C80.6361 33.748 80.7715 33.692 80.9395 33.692ZM78.0555 40.104C78.5221 40.104 78.9328 39.9827 79.2875 39.74C79.6515 39.4973 79.9315 39.1707 80.1275 38.76C80.3328 38.34 80.4355 37.8687 80.4355 37.346C80.4355 36.8327 80.3328 36.3707 80.1275 35.96C79.9315 35.54 79.6515 35.2133 79.2875 34.98C78.9328 34.7373 78.5221 34.616 78.0555 34.616C77.5981 34.616 77.1875 34.7327 76.8235 34.966C76.4688 35.1993 76.1888 35.5213 75.9835 35.932C75.7781 36.3427 75.6755 36.814 75.6755 37.346C75.6755 37.8687 75.7735 38.34 75.9695 38.76C76.1748 39.1707 76.4548 39.4973 76.8095 39.74C77.1735 39.9827 77.5888 40.104 78.0555 40.104ZM83.3371 43.632C83.1877 43.632 83.0711 43.576 82.9871 43.464C82.9031 43.352 82.8611 43.24 82.8611 43.128C82.8611 42.9693 82.9311 42.8387 83.0711 42.736C83.6964 42.3347 84.2191 41.8493 84.6391 41.28C85.0684 40.72 85.3904 40.104 85.6051 39.432C85.8291 38.76 85.9411 38.074 85.9411 37.374C85.9411 36.674 85.8337 35.988 85.6191 35.316C85.4137 34.6347 85.0964 34.0093 84.6671 33.44C84.2471 32.8707 83.7151 32.3993 83.0711 32.026C82.9311 31.9327 82.8611 31.7973 82.8611 31.62C82.8611 31.4987 82.9031 31.3867 82.9871 31.284C83.0804 31.1813 83.1971 31.13 83.3371 31.13C83.4304 31.13 83.5191 31.158 83.6031 31.214C84.3684 31.634 85.0031 32.166 85.5071 32.81C86.0204 33.454 86.4077 34.168 86.6691 34.952C86.9304 35.7267 87.0611 36.534 87.0611 37.374C87.0611 38.214 86.9257 39.0213 86.6551 39.796C86.3937 40.5613 86.0017 41.266 85.4791 41.91C84.9657 42.554 84.3357 43.1 83.5891 43.548C83.5144 43.604 83.4304 43.632 83.3371 43.632Z" fill="#2E2E2E"/>
<path d="M182.715 7.2C182.874 7.2 183 7.25133 183.093 7.354C183.187 7.44733 183.233 7.56867 183.233 7.718V16.412C183.233 16.5893 183.177 16.734 183.065 16.846C182.953 16.9487 182.818 17 182.659 17C182.575 17 182.491 16.986 182.407 16.958C182.323 16.9207 182.258 16.874 182.211 16.818L176.219 8.894L176.499 8.726V16.482C176.499 16.6313 176.448 16.7573 176.345 16.86C176.252 16.9533 176.126 17 175.967 17C175.818 17 175.697 16.9533 175.603 16.86C175.51 16.7573 175.463 16.6313 175.463 16.482V7.76C175.463 7.592 175.515 7.45667 175.617 7.354C175.729 7.25133 175.86 7.2 176.009 7.2C176.093 7.2 176.177 7.21867 176.261 7.256C176.355 7.284 176.425 7.33067 176.471 7.396L182.379 15.208L182.197 15.432V7.718C182.197 7.56867 182.244 7.44733 182.337 7.354C182.44 7.25133 182.566 7.2 182.715 7.2ZM192.368 13.36C192.368 14.088 192.205 14.7367 191.878 15.306C191.561 15.8753 191.127 16.3233 190.576 16.65C190.035 16.9767 189.423 17.14 188.742 17.14C188.061 17.14 187.445 16.9767 186.894 16.65C186.343 16.3233 185.905 15.8753 185.578 15.306C185.261 14.7367 185.102 14.088 185.102 13.36C185.102 12.632 185.261 11.9833 185.578 11.414C185.905 10.8447 186.343 10.3967 186.894 10.07C187.445 9.74333 188.061 9.58 188.742 9.58C189.423 9.58 190.035 9.74333 190.576 10.07C191.127 10.3967 191.561 10.8447 191.878 11.414C192.205 11.9833 192.368 12.632 192.368 13.36ZM191.248 13.36C191.248 12.8187 191.136 12.3427 190.912 11.932C190.697 11.5213 190.399 11.1993 190.016 10.966C189.643 10.7327 189.218 10.616 188.742 10.616C188.266 10.616 187.837 10.7327 187.454 10.966C187.081 11.1993 186.782 11.5213 186.558 11.932C186.334 12.3427 186.222 12.8187 186.222 13.36C186.222 13.892 186.334 14.3633 186.558 14.774C186.782 15.1847 187.081 15.5113 187.454 15.754C187.837 15.9873 188.266 16.104 188.742 16.104C189.218 16.104 189.643 15.9873 190.016 15.754C190.399 15.5113 190.697 15.1847 190.912 14.774C191.136 14.3633 191.248 13.892 191.248 13.36ZM197.651 9.58C198.285 9.58 198.785 9.71067 199.149 9.972C199.513 10.2333 199.769 10.5833 199.919 11.022C200.077 11.4607 200.157 11.9507 200.157 12.492V16.426C200.157 16.5847 200.101 16.72 199.989 16.832C199.886 16.944 199.755 17 199.597 17C199.438 17 199.303 16.944 199.191 16.832C199.088 16.72 199.037 16.5847 199.037 16.426V12.52C199.037 12.1653 198.981 11.848 198.869 11.568C198.766 11.2787 198.589 11.05 198.337 10.882C198.094 10.7047 197.758 10.616 197.329 10.616C196.937 10.616 196.577 10.7047 196.251 10.882C195.924 11.05 195.663 11.2787 195.467 11.568C195.271 11.848 195.173 12.1653 195.173 12.52V16.426C195.173 16.5847 195.117 16.72 195.005 16.832C194.902 16.944 194.771 17 194.613 17C194.454 17 194.319 16.944 194.207 16.832C194.104 16.72 194.053 16.5847 194.053 16.426V10.322C194.053 10.1633 194.104 10.0327 194.207 9.93C194.319 9.818 194.454 9.762 194.613 9.762C194.781 9.762 194.916 9.818 195.019 9.93C195.121 10.0327 195.173 10.1633 195.173 10.322V11.316L194.893 11.624C194.939 11.3813 195.047 11.1387 195.215 10.896C195.383 10.644 195.593 10.42 195.845 10.224C196.097 10.028 196.377 9.874 196.685 9.762C196.993 9.64067 197.315 9.58 197.651 9.58ZM202.522 13.206C202.364 13.206 202.228 13.1547 202.116 13.052C202.014 12.94 201.962 12.8 201.962 12.632C201.962 12.4733 202.014 12.3427 202.116 12.24C202.228 12.1373 202.364 12.086 202.522 12.086H205.35C205.509 12.086 205.64 12.142 205.742 12.254C205.854 12.366 205.91 12.5013 205.91 12.66C205.91 12.8187 205.854 12.9493 205.742 13.052C205.64 13.1547 205.509 13.206 205.35 13.206H202.522ZM211.057 17.14C210.31 17.14 209.657 16.9813 209.097 16.664C208.537 16.3467 208.098 15.9127 207.781 15.362C207.473 14.802 207.319 14.158 207.319 13.43C207.319 12.618 207.477 11.9273 207.795 11.358C208.121 10.7793 208.541 10.3407 209.055 10.042C209.577 9.734 210.128 9.58 210.707 9.58C211.136 9.58 211.551 9.65933 211.953 9.818C212.354 9.97667 212.709 10.21 213.017 10.518C213.325 10.8167 213.572 11.1807 213.759 11.61C213.945 12.03 214.043 12.5013 214.053 13.024C214.053 13.1733 213.997 13.2993 213.885 13.402C213.773 13.5047 213.642 13.556 213.493 13.556H207.963L207.711 12.59H213.101L212.877 12.786V12.478C212.839 12.0953 212.709 11.7687 212.485 11.498C212.27 11.218 212.004 11.0033 211.687 10.854C211.379 10.7047 211.052 10.63 210.707 10.63C210.427 10.63 210.147 10.6813 209.867 10.784C209.596 10.8773 209.349 11.036 209.125 11.26C208.91 11.4747 208.733 11.7547 208.593 12.1C208.462 12.4453 208.397 12.8607 208.397 13.346C208.397 13.8873 208.504 14.3633 208.719 14.774C208.943 15.1847 209.251 15.5113 209.643 15.754C210.035 15.9873 210.492 16.104 211.015 16.104C211.341 16.104 211.626 16.062 211.869 15.978C212.111 15.894 212.321 15.7913 212.499 15.67C212.676 15.5393 212.825 15.4087 212.947 15.278C213.068 15.194 213.185 15.152 213.297 15.152C213.437 15.152 213.549 15.1987 213.633 15.292C213.726 15.3853 213.773 15.4973 213.773 15.628C213.773 15.7867 213.698 15.9267 213.549 16.048C213.287 16.3373 212.933 16.594 212.485 16.818C212.037 17.0327 211.561 17.14 211.057 17.14ZM215.598 9.678C215.775 9.678 215.925 9.75733 216.046 9.916L220.918 16.132C220.993 16.2347 221.03 16.3467 221.03 16.468C221.03 16.6267 220.974 16.762 220.862 16.874C220.75 16.986 220.619 17.042 220.47 17.042C220.293 17.042 220.139 16.958 220.008 16.79L215.136 10.588C215.061 10.4853 215.024 10.3733 215.024 10.252C215.024 10.084 215.08 9.94867 215.192 9.846C215.313 9.734 215.449 9.678 215.598 9.678ZM215.598 17.028C215.477 17.028 215.355 16.9813 215.234 16.888C215.113 16.7947 215.052 16.6733 215.052 16.524C215.052 16.4027 215.099 16.286 215.192 16.174L217.488 13.276L218.076 14.2L216.046 16.804C215.934 16.9533 215.785 17.028 215.598 17.028ZM220.47 9.678C220.629 9.678 220.755 9.72933 220.848 9.832C220.951 9.93467 221.002 10.0513 221.002 10.182C221.002 10.238 220.988 10.2987 220.96 10.364C220.941 10.4293 220.909 10.49 220.862 10.546L218.58 13.472L217.992 12.618L220.008 9.93C220.139 9.762 220.293 9.678 220.47 9.678ZM225.713 17.14C224.966 17.14 224.313 16.9813 223.753 16.664C223.193 16.3467 222.754 15.9127 222.437 15.362C222.129 14.802 221.975 14.158 221.975 13.43C221.975 12.618 222.134 11.9273 222.451 11.358C222.778 10.7793 223.198 10.3407 223.711 10.042C224.234 9.734 224.784 9.58 225.363 9.58C225.792 9.58 226.208 9.65933 226.609 9.818C227.01 9.97667 227.365 10.21 227.673 10.518C227.981 10.8167 228.228 11.1807 228.415 11.61C228.602 12.03 228.7 12.5013 228.709 13.024C228.709 13.1733 228.653 13.2993 228.541 13.402C228.429 13.5047 228.298 13.556 228.149 13.556H222.619L222.367 12.59H227.757L227.533 12.786V12.478C227.496 12.0953 227.365 11.7687 227.141 11.498C226.926 11.218 226.66 11.0033 226.343 10.854C226.035 10.7047 225.708 10.63 225.363 10.63C225.083 10.63 224.803 10.6813 224.523 10.784C224.252 10.8773 224.005 11.036 223.781 11.26C223.566 11.4747 223.389 11.7547 223.249 12.1C223.118 12.4453 223.053 12.8607 223.053 13.346C223.053 13.8873 223.16 14.3633 223.375 14.774C223.599 15.1847 223.907 15.5113 224.299 15.754C224.691 15.9873 225.148 16.104 225.671 16.104C225.998 16.104 226.282 16.062 226.525 15.978C226.768 15.894 226.978 15.7913 227.155 15.67C227.332 15.5393 227.482 15.4087 227.603 15.278C227.724 15.194 227.841 15.152 227.953 15.152C228.093 15.152 228.205 15.1987 228.289 15.292C228.382 15.3853 228.429 15.4973 228.429 15.628C228.429 15.7867 228.354 15.9267 228.205 16.048C227.944 16.3373 227.589 16.594 227.141 16.818C226.693 17.0327 226.217 17.14 225.713 17.14ZM233.612 9.58C234.088 9.58 234.518 9.63133 234.9 9.734C235.283 9.83667 235.586 9.97667 235.81 10.154C236.034 10.3313 236.146 10.532 236.146 10.756C236.146 10.8773 236.104 10.994 236.02 11.106C235.936 11.218 235.824 11.274 235.684 11.274C235.554 11.274 235.446 11.2507 235.362 11.204C235.288 11.1573 235.213 11.0967 235.138 11.022C235.073 10.9473 234.98 10.882 234.858 10.826C234.746 10.7607 234.583 10.7093 234.368 10.672C234.154 10.6347 233.939 10.616 233.724 10.616C233.211 10.616 232.758 10.7373 232.366 10.98C231.984 11.2227 231.68 11.5493 231.456 11.96C231.232 12.3707 231.12 12.8373 231.12 13.36C231.12 13.8827 231.228 14.3493 231.442 14.76C231.657 15.1707 231.956 15.4973 232.338 15.74C232.721 15.9827 233.164 16.104 233.668 16.104C233.995 16.104 234.256 16.076 234.452 16.02C234.648 15.964 234.812 15.8987 234.942 15.824C235.11 15.7307 235.236 15.6373 235.32 15.544C235.414 15.4507 235.535 15.404 235.684 15.404C235.843 15.404 235.964 15.4553 236.048 15.558C236.142 15.6607 236.188 15.7867 236.188 15.936C236.188 16.104 236.072 16.2813 235.838 16.468C235.605 16.6547 235.288 16.8133 234.886 16.944C234.494 17.0747 234.046 17.14 233.542 17.14C232.833 17.14 232.212 16.9767 231.68 16.65C231.148 16.314 230.733 15.8613 230.434 15.292C230.145 14.7133 230 14.0693 230 13.36C230 12.6507 230.15 12.0113 230.448 11.442C230.756 10.8727 231.181 10.42 231.722 10.084C232.264 9.748 232.894 9.58 233.612 9.58ZM243.07 9.762C243.238 9.762 243.374 9.818 243.476 9.93C243.579 10.0327 243.63 10.1633 243.63 10.322V14.144C243.63 15.0867 243.364 15.8193 242.832 16.342C242.31 16.8553 241.577 17.112 240.634 17.112C239.701 17.112 238.968 16.8553 238.436 16.342C237.914 15.8193 237.652 15.0867 237.652 14.144V10.322C237.652 10.1633 237.704 10.0327 237.806 9.93C237.918 9.818 238.054 9.762 238.212 9.762C238.38 9.762 238.516 9.818 238.618 9.93C238.721 10.0327 238.772 10.1633 238.772 10.322V14.144C238.772 14.7787 238.936 15.2593 239.262 15.586C239.589 15.9127 240.046 16.076 240.634 16.076C241.241 16.076 241.703 15.9127 242.02 15.586C242.347 15.2593 242.51 14.7787 242.51 14.144V10.322C242.51 10.1633 242.562 10.0327 242.664 9.93C242.776 9.818 242.912 9.762 243.07 9.762ZM245.425 9.804H248.715C248.864 9.804 248.986 9.85533 249.079 9.958C249.182 10.0607 249.233 10.182 249.233 10.322C249.233 10.4713 249.182 10.5973 249.079 10.7C248.986 10.7933 248.864 10.84 248.715 10.84H245.425C245.285 10.84 245.164 10.7887 245.061 10.686C244.958 10.5833 244.907 10.4573 244.907 10.308C244.907 10.168 244.958 10.0513 245.061 9.958C245.164 9.85533 245.285 9.804 245.425 9.804ZM246.895 7.9C247.054 7.9 247.184 7.956 247.287 8.068C247.39 8.17067 247.441 8.30133 247.441 8.46V15.222C247.441 15.446 247.474 15.614 247.539 15.726C247.604 15.838 247.688 15.9173 247.791 15.964C247.903 16.0013 248.01 16.02 248.113 16.02C248.206 16.02 248.286 16.006 248.351 15.978C248.426 15.9407 248.51 15.922 248.603 15.922C248.696 15.922 248.78 15.9687 248.855 16.062C248.939 16.146 248.981 16.258 248.981 16.398C248.981 16.566 248.883 16.7107 248.687 16.832C248.491 16.944 248.272 17 248.029 17C247.898 17 247.735 16.9907 247.539 16.972C247.352 16.9533 247.166 16.8927 246.979 16.79C246.792 16.6873 246.634 16.5193 246.503 16.286C246.382 16.0433 246.321 15.7073 246.321 15.278V8.46C246.321 8.30133 246.377 8.17067 246.489 8.068C246.601 7.956 246.736 7.9 246.895 7.9ZM251.869 16.426C251.869 16.5847 251.813 16.72 251.701 16.832C251.598 16.944 251.468 17 251.309 17C251.141 17 251.006 16.944 250.903 16.832C250.8 16.72 250.749 16.5847 250.749 16.426V10.21C250.749 10.0513 250.8 9.92067 250.903 9.818C251.015 9.706 251.15 9.65 251.309 9.65C251.468 9.65 251.598 9.706 251.701 9.818C251.813 9.92067 251.869 10.0513 251.869 10.21V16.426ZM251.309 8.712C251.076 8.712 250.903 8.66533 250.791 8.572C250.679 8.47867 250.623 8.334 250.623 8.138V7.942C250.623 7.746 250.684 7.60133 250.805 7.508C250.926 7.41467 251.099 7.368 251.323 7.368C251.547 7.368 251.715 7.41467 251.827 7.508C251.939 7.60133 251.995 7.746 251.995 7.942V8.138C251.995 8.334 251.934 8.47867 251.813 8.572C251.701 8.66533 251.533 8.712 251.309 8.712ZM260.755 13.36C260.755 14.088 260.591 14.7367 260.265 15.306C259.947 15.8753 259.513 16.3233 258.963 16.65C258.421 16.9767 257.81 17.14 257.129 17.14C256.447 17.14 255.831 16.9767 255.281 16.65C254.73 16.3233 254.291 15.8753 253.965 15.306C253.647 14.7367 253.489 14.088 253.489 13.36C253.489 12.632 253.647 11.9833 253.965 11.414C254.291 10.8447 254.73 10.3967 255.281 10.07C255.831 9.74333 256.447 9.58 257.129 9.58C257.81 9.58 258.421 9.74333 258.963 10.07C259.513 10.3967 259.947 10.8447 260.265 11.414C260.591 11.9833 260.755 12.632 260.755 13.36ZM259.635 13.36C259.635 12.8187 259.523 12.3427 259.299 11.932C259.084 11.5213 258.785 11.1993 258.403 10.966C258.029 10.7327 257.605 10.616 257.129 10.616C256.653 10.616 256.223 10.7327 255.841 10.966C255.467 11.1993 255.169 11.5213 254.945 11.932C254.721 12.3427 254.609 12.8187 254.609 13.36C254.609 13.892 254.721 14.3633 254.945 14.774C255.169 15.1847 255.467 15.5113 255.841 15.754C256.223 15.9873 256.653 16.104 257.129 16.104C257.605 16.104 258.029 15.9873 258.403 15.754C258.785 15.5113 259.084 15.1847 259.299 14.774C259.523 14.3633 259.635 13.892 259.635 13.36ZM266.037 9.58C266.672 9.58 267.171 9.71067 267.535 9.972C267.899 10.2333 268.156 10.5833 268.305 11.022C268.464 11.4607 268.543 11.9507 268.543 12.492V16.426C268.543 16.5847 268.487 16.72 268.375 16.832C268.273 16.944 268.142 17 267.983 17C267.825 17 267.689 16.944 267.577 16.832C267.475 16.72 267.423 16.5847 267.423 16.426V12.52C267.423 12.1653 267.367 11.848 267.255 11.568C267.153 11.2787 266.975 11.05 266.723 10.882C266.481 10.7047 266.145 10.616 265.715 10.616C265.323 10.616 264.964 10.7047 264.637 10.882C264.311 11.05 264.049 11.2787 263.853 11.568C263.657 11.848 263.559 12.1653 263.559 12.52V16.426C263.559 16.5847 263.503 16.72 263.391 16.832C263.289 16.944 263.158 17 262.999 17C262.841 17 262.705 16.944 262.593 16.832C262.491 16.72 262.439 16.5847 262.439 16.426V10.322C262.439 10.1633 262.491 10.0327 262.593 9.93C262.705 9.818 262.841 9.762 262.999 9.762C263.167 9.762 263.303 9.818 263.405 9.93C263.508 10.0327 263.559 10.1633 263.559 10.322V11.316L263.279 11.624C263.326 11.3813 263.433 11.1387 263.601 10.896C263.769 10.644 263.979 10.42 264.231 10.224C264.483 10.028 264.763 9.874 265.071 9.762C265.379 9.64067 265.701 9.58 266.037 9.58ZM278.727 7.2C279.408 7.2 280.005 7.33067 280.519 7.592C281.041 7.844 281.475 8.19867 281.821 8.656C282.166 9.11333 282.423 9.64067 282.591 10.238C282.768 10.826 282.857 11.4467 282.857 12.1C282.857 12.996 282.703 13.8173 282.395 14.564C282.087 15.3013 281.629 15.894 281.023 16.342C280.416 16.7807 279.651 17 278.727 17H275.227C275.068 17 274.933 16.944 274.821 16.832C274.718 16.72 274.667 16.5847 274.667 16.426V7.76C274.667 7.60133 274.718 7.47067 274.821 7.368C274.933 7.256 275.068 7.2 275.227 7.2H278.727ZM278.587 15.908C279.305 15.908 279.889 15.7353 280.337 15.39C280.794 15.0447 281.125 14.5827 281.331 14.004C281.545 13.4253 281.653 12.7907 281.653 12.1C281.653 11.596 281.592 11.1153 281.471 10.658C281.359 10.1913 281.177 9.78067 280.925 9.426C280.682 9.07133 280.365 8.79133 279.973 8.586C279.59 8.38067 279.128 8.278 278.587 8.278H275.717L275.829 8.166V16.048L275.745 15.908H278.587ZM290.483 9.692C290.642 9.692 290.773 9.748 290.875 9.86C290.987 9.96267 291.043 10.0933 291.043 10.252V16.426C291.043 16.5847 290.987 16.72 290.875 16.832C290.773 16.944 290.642 17 290.483 17C290.315 17 290.18 16.944 290.077 16.832C289.975 16.72 289.923 16.5847 289.923 16.426V15.096L290.189 15.068C290.189 15.2733 290.119 15.4973 289.979 15.74C289.839 15.9827 289.648 16.2113 289.405 16.426C289.163 16.6313 288.873 16.804 288.537 16.944C288.211 17.0747 287.856 17.14 287.473 17.14C286.839 17.14 286.269 16.9767 285.765 16.65C285.261 16.314 284.86 15.8613 284.561 15.292C284.272 14.7227 284.127 14.074 284.127 13.346C284.127 12.6087 284.272 11.96 284.561 11.4C284.86 10.8307 285.261 10.3873 285.765 10.07C286.269 9.74333 286.829 9.58 287.445 9.58C287.847 9.58 288.22 9.64533 288.565 9.776C288.911 9.90667 289.209 10.084 289.461 10.308C289.723 10.532 289.923 10.7793 290.063 11.05C290.213 11.3207 290.287 11.5913 290.287 11.862L289.923 11.778V10.252C289.923 10.0933 289.975 9.96267 290.077 9.86C290.18 9.748 290.315 9.692 290.483 9.692ZM287.599 16.104C288.066 16.104 288.477 15.9827 288.831 15.74C289.195 15.4973 289.475 15.1707 289.671 14.76C289.877 14.34 289.979 13.8687 289.979 13.346C289.979 12.8327 289.877 12.3707 289.671 11.96C289.475 11.54 289.195 11.2133 288.831 10.98C288.477 10.7373 288.066 10.616 287.599 10.616C287.142 10.616 286.731 10.7327 286.367 10.966C286.013 11.1993 285.733 11.5213 285.527 11.932C285.322 12.3427 285.219 12.814 285.219 13.346C285.219 13.8687 285.317 14.34 285.513 14.76C285.719 15.1707 285.999 15.4973 286.353 15.74C286.717 15.9827 287.133 16.104 287.599 16.104ZM292.839 9.804H296.129C296.278 9.804 296.4 9.85533 296.493 9.958C296.596 10.0607 296.647 10.182 296.647 10.322C296.647 10.4713 296.596 10.5973 296.493 10.7C296.4 10.7933 296.278 10.84 296.129 10.84H292.839C292.699 10.84 292.578 10.7887 292.475 10.686C292.372 10.5833 292.321 10.4573 292.321 10.308C292.321 10.168 292.372 10.0513 292.475 9.958C292.578 9.85533 292.699 9.804 292.839 9.804ZM294.309 7.9C294.468 7.9 294.598 7.956 294.701 8.068C294.804 8.17067 294.855 8.30133 294.855 8.46V15.222C294.855 15.446 294.888 15.614 294.953 15.726C295.018 15.838 295.102 15.9173 295.205 15.964C295.317 16.0013 295.424 16.02 295.527 16.02C295.62 16.02 295.7 16.006 295.765 15.978C295.84 15.9407 295.924 15.922 296.017 15.922C296.11 15.922 296.194 15.9687 296.269 16.062C296.353 16.146 296.395 16.258 296.395 16.398C296.395 16.566 296.297 16.7107 296.101 16.832C295.905 16.944 295.686 17 295.443 17C295.312 17 295.149 16.9907 294.953 16.972C294.766 16.9533 294.58 16.8927 294.393 16.79C294.206 16.6873 294.048 16.5193 293.917 16.286C293.796 16.0433 293.735 15.7073 293.735 15.278V8.46C293.735 8.30133 293.791 8.17067 293.903 8.068C294.015 7.956 294.15 7.9 294.309 7.9ZM304.169 9.692C304.328 9.692 304.458 9.748 304.561 9.86C304.673 9.96267 304.729 10.0933 304.729 10.252V16.426C304.729 16.5847 304.673 16.72 304.561 16.832C304.458 16.944 304.328 17 304.169 17C304.001 17 303.866 16.944 303.763 16.832C303.66 16.72 303.609 16.5847 303.609 16.426V15.096L303.875 15.068C303.875 15.2733 303.805 15.4973 303.665 15.74C303.525 15.9827 303.334 16.2113 303.091 16.426C302.848 16.6313 302.559 16.804 302.223 16.944C301.896 17.0747 301.542 17.14 301.159 17.14C300.524 17.14 299.955 16.9767 299.451 16.65C298.947 16.314 298.546 15.8613 298.247 15.292C297.958 14.7227 297.813 14.074 297.813 13.346C297.813 12.6087 297.958 11.96 298.247 11.4C298.546 10.8307 298.947 10.3873 299.451 10.07C299.955 9.74333 300.515 9.58 301.131 9.58C301.532 9.58 301.906 9.64533 302.251 9.776C302.596 9.90667 302.895 10.084 303.147 10.308C303.408 10.532 303.609 10.7793 303.749 11.05C303.898 11.3207 303.973 11.5913 303.973 11.862L303.609 11.778V10.252C303.609 10.0933 303.66 9.96267 303.763 9.86C303.866 9.748 304.001 9.692 304.169 9.692ZM301.285 16.104C301.752 16.104 302.162 15.9827 302.517 15.74C302.881 15.4973 303.161 15.1707 303.357 14.76C303.562 14.34 303.665 13.8687 303.665 13.346C303.665 12.8327 303.562 12.3707 303.357 11.96C303.161 11.54 302.881 11.2133 302.517 10.98C302.162 10.7373 301.752 10.616 301.285 10.616C300.828 10.616 300.417 10.7327 300.053 10.966C299.698 11.1993 299.418 11.5213 299.213 11.932C299.008 12.3427 298.905 12.814 298.905 13.346C298.905 13.8687 299.003 14.34 299.199 14.76C299.404 15.1707 299.684 15.4973 300.039 15.74C300.403 15.9827 300.818 16.104 301.285 16.104ZM183.603 43.632C183.51 43.632 183.421 43.6087 183.337 43.562C182.572 43.1327 181.933 42.596 181.419 41.952C180.906 41.3173 180.519 40.608 180.257 39.824C179.996 39.04 179.865 38.228 179.865 37.388C179.865 36.548 180.001 35.7453 180.271 34.98C180.542 34.2147 180.934 33.51 181.447 32.866C181.97 32.222 182.6 31.6713 183.337 31.214C183.421 31.1673 183.51 31.144 183.603 31.144C183.753 31.144 183.869 31.2 183.953 31.312C184.037 31.4147 184.079 31.522 184.079 31.634C184.079 31.7927 184.005 31.928 183.855 32.04C183.239 32.432 182.717 32.9127 182.287 33.482C181.867 34.0513 181.545 34.672 181.321 35.344C181.107 36.0067 180.999 36.688 180.999 37.388C180.999 38.088 181.102 38.7787 181.307 39.46C181.522 40.1413 181.839 40.762 182.259 41.322C182.689 41.8913 183.221 42.3673 183.855 42.75C183.995 42.834 184.065 42.9647 184.065 43.142C184.065 43.2633 184.023 43.3753 183.939 43.478C183.855 43.5807 183.743 43.632 183.603 43.632ZM189.836 31.2C190.657 31.2 191.287 31.4147 191.726 31.844C192.174 32.264 192.398 32.8613 192.398 33.636C192.398 34.0467 192.304 34.4247 192.118 34.77C191.931 35.1153 191.656 35.3907 191.292 35.596C190.937 35.8013 190.498 35.9133 189.976 35.932L189.948 35.54C190.274 35.54 190.61 35.5867 190.956 35.68C191.301 35.7733 191.618 35.9227 191.908 36.128C192.206 36.3333 192.444 36.604 192.622 36.94C192.808 37.276 192.902 37.6913 192.902 38.186C192.902 38.718 192.813 39.166 192.636 39.53C192.458 39.8847 192.22 40.174 191.922 40.398C191.632 40.6127 191.306 40.7667 190.942 40.86C190.587 40.9533 190.228 41 189.864 41H186.182C186.023 41 185.888 40.944 185.776 40.832C185.673 40.72 185.622 40.5847 185.622 40.426V31.76C185.622 31.6013 185.673 31.4707 185.776 31.368C185.888 31.256 186.023 31.2 186.182 31.2H189.836ZM189.668 32.306H186.658L186.826 32.054V35.54L186.672 35.358H189.696C190.106 35.358 190.456 35.2273 190.746 34.966C191.044 34.6953 191.194 34.2987 191.194 33.776C191.194 33.3093 191.058 32.95 190.788 32.698C190.517 32.4367 190.144 32.306 189.668 32.306ZM189.78 36.478H186.728L186.826 36.38V40.034L186.714 39.908H189.822C190.372 39.908 190.82 39.768 191.166 39.488C191.52 39.208 191.698 38.774 191.698 38.186C191.698 37.7287 191.604 37.3787 191.418 37.136C191.231 36.884 190.988 36.7113 190.69 36.618C190.4 36.5247 190.097 36.478 189.78 36.478ZM195.763 40.426C195.763 40.5847 195.707 40.72 195.595 40.832C195.483 40.944 195.348 41 195.189 41C195.03 41 194.9 40.944 194.797 40.832C194.694 40.72 194.643 40.5847 194.643 40.426V31.2C194.643 31.0413 194.694 30.9107 194.797 30.808C194.909 30.696 195.044 30.64 195.203 30.64C195.371 30.64 195.506 30.696 195.609 30.808C195.712 30.9107 195.763 31.0413 195.763 31.2V40.426ZM204.673 37.36C204.673 38.088 204.509 38.7367 204.183 39.306C203.865 39.8753 203.431 40.3233 202.881 40.65C202.339 40.9767 201.728 41.14 201.047 41.14C200.365 41.14 199.749 40.9767 199.199 40.65C198.648 40.3233 198.209 39.8753 197.883 39.306C197.565 38.7367 197.407 38.088 197.407 37.36C197.407 36.632 197.565 35.9833 197.883 35.414C198.209 34.8447 198.648 34.3967 199.199 34.07C199.749 33.7433 200.365 33.58 201.047 33.58C201.728 33.58 202.339 33.7433 202.881 34.07C203.431 34.3967 203.865 34.8447 204.183 35.414C204.509 35.9833 204.673 36.632 204.673 37.36ZM203.553 37.36C203.553 36.8187 203.441 36.3427 203.217 35.932C203.002 35.5213 202.703 35.1993 202.321 34.966C201.947 34.7327 201.523 34.616 201.047 34.616C200.571 34.616 200.141 34.7327 199.759 34.966C199.385 35.1993 199.087 35.5213 198.863 35.932C198.639 36.3427 198.527 36.8187 198.527 37.36C198.527 37.892 198.639 38.3633 198.863 38.774C199.087 39.1847 199.385 39.5113 199.759 39.754C200.141 39.9873 200.571 40.104 201.047 40.104C201.523 40.104 201.947 39.9873 202.321 39.754C202.703 39.5113 203.002 39.1847 203.217 38.774C203.441 38.3633 203.553 37.892 203.553 37.36ZM209.927 33.58C210.562 33.58 211.131 33.7433 211.635 34.07C212.139 34.3873 212.536 34.826 212.825 35.386C213.124 35.946 213.273 36.5947 213.273 37.332C213.273 38.0693 213.124 38.7227 212.825 39.292C212.536 39.8613 212.139 40.314 211.635 40.65C211.141 40.9767 210.581 41.14 209.955 41.14C209.61 41.14 209.283 41.0887 208.975 40.986C208.677 40.874 208.401 40.7293 208.149 40.552C207.907 40.3653 207.701 40.1647 207.533 39.95C207.365 39.726 207.244 39.5067 207.169 39.292L207.477 39.096V40.496C207.477 40.6547 207.426 40.79 207.323 40.902C207.221 41.014 207.085 41.07 206.917 41.07C206.759 41.07 206.623 41.0187 206.511 40.916C206.409 40.804 206.357 40.664 206.357 40.496V31.214C206.357 31.0553 206.409 30.92 206.511 30.808C206.623 30.696 206.759 30.64 206.917 30.64C207.085 30.64 207.221 30.696 207.323 30.808C207.426 30.92 207.477 31.0553 207.477 31.214V35.526L207.267 35.414C207.333 35.1807 207.445 34.9567 207.603 34.742C207.771 34.518 207.972 34.322 208.205 34.154C208.448 33.9767 208.714 33.8367 209.003 33.734C209.302 33.6313 209.61 33.58 209.927 33.58ZM209.801 34.616C209.335 34.616 208.919 34.7327 208.555 34.966C208.201 35.1993 207.921 35.5213 207.715 35.932C207.519 36.3427 207.421 36.8093 207.421 37.332C207.421 37.8547 207.519 38.326 207.715 38.746C207.921 39.166 208.201 39.4973 208.555 39.74C208.919 39.9827 209.335 40.104 209.801 40.104C210.268 40.104 210.679 39.9827 211.033 39.74C211.388 39.4973 211.668 39.166 211.873 38.746C212.079 38.326 212.181 37.8547 212.181 37.332C212.181 36.8093 212.079 36.3427 211.873 35.932C211.668 35.5213 211.388 35.1993 211.033 34.966C210.679 34.7327 210.268 34.616 209.801 34.616ZM217.757 41.14C217.094 41.14 216.506 40.9907 215.993 40.692C215.48 40.384 215.074 39.992 214.775 39.516C214.486 39.0307 214.341 38.522 214.341 37.99C214.341 37.5607 214.42 37.1547 214.579 36.772C214.747 36.3893 214.994 36.0487 215.321 35.75C215.657 35.442 216.082 35.1947 216.595 35.008L217.365 35.792C216.665 35.9413 216.175 36.2027 215.895 36.576C215.624 36.94 215.489 37.3553 215.489 37.822C215.489 38.1953 215.578 38.5547 215.755 38.9C215.932 39.2453 216.203 39.5253 216.567 39.74C216.94 39.9547 217.402 40.062 217.953 40.062C218.504 40.062 218.984 39.964 219.395 39.768C219.806 39.572 220.151 39.306 220.431 38.97C220.711 38.634 220.94 38.2607 221.117 37.85C221.294 37.4393 221.416 37.024 221.481 36.604C221.5 36.492 221.546 36.4033 221.621 36.338C221.696 36.2727 221.812 36.24 221.971 36.24C222.13 36.24 222.256 36.3053 222.349 36.436C222.452 36.5667 222.489 36.7207 222.461 36.898C222.386 37.4207 222.232 37.934 221.999 38.438C221.766 38.942 221.458 39.3993 221.075 39.81C220.692 40.2113 220.226 40.5333 219.675 40.776C219.124 41.0187 218.485 41.14 217.757 41.14ZM222.741 40.986C222.666 40.986 222.601 40.9767 222.545 40.958C222.498 40.93 222.456 40.9067 222.419 40.888C221.812 40.3933 221.238 39.9267 220.697 39.488C220.165 39.0493 219.647 38.5967 219.143 38.13C218.639 37.654 218.13 37.122 217.617 36.534C217.29 36.1607 216.992 35.806 216.721 35.47C216.46 35.134 216.25 34.8027 216.091 34.476C215.932 34.1493 215.853 33.8133 215.853 33.468C215.853 33.02 215.965 32.614 216.189 32.25C216.413 31.886 216.73 31.5967 217.141 31.382C217.561 31.1673 218.056 31.06 218.625 31.06C219.288 31.06 219.852 31.1813 220.319 31.424C220.786 31.6573 221.108 31.9513 221.285 32.306C221.294 32.3153 221.308 32.3573 221.327 32.432C221.355 32.4973 221.369 32.572 221.369 32.656C221.369 32.768 221.322 32.8753 221.229 32.978C221.145 33.0713 221.024 33.118 220.865 33.118C220.772 33.118 220.692 33.0993 220.627 33.062C220.562 33.0153 220.51 32.9687 220.473 32.922C220.286 32.6513 220.048 32.4367 219.759 32.278C219.47 32.1193 219.092 32.04 218.625 32.04C218.102 32.04 217.706 32.1707 217.435 32.432C217.164 32.6933 217.029 33.0293 217.029 33.44C217.029 33.72 217.113 34.0187 217.281 34.336C217.458 34.644 217.673 34.952 217.925 35.26C218.186 35.5587 218.438 35.8433 218.681 36.114C219.026 36.4967 219.395 36.8793 219.787 37.262C220.179 37.6353 220.571 37.9947 220.963 38.34C221.355 38.676 221.724 38.9887 222.069 39.278C222.424 39.558 222.727 39.796 222.979 39.992C223.063 40.0667 223.124 40.1413 223.161 40.216C223.198 40.2907 223.217 40.3793 223.217 40.482C223.217 40.5753 223.175 40.6827 223.091 40.804C223.016 40.9253 222.9 40.986 222.741 40.986ZM229.019 31.2C229.841 31.2 230.471 31.4147 230.909 31.844C231.357 32.264 231.581 32.8613 231.581 33.636C231.581 34.0467 231.488 34.4247 231.301 34.77C231.115 35.1153 230.839 35.3907 230.475 35.596C230.121 35.8013 229.682 35.9133 229.159 35.932L229.131 35.54C229.458 35.54 229.794 35.5867 230.139 35.68C230.485 35.7733 230.802 35.9227 231.091 36.128C231.39 36.3333 231.628 36.604 231.805 36.94C231.992 37.276 232.085 37.6913 232.085 38.186C232.085 38.718 231.997 39.166 231.819 39.53C231.642 39.8847 231.404 40.174 231.105 40.398C230.816 40.6127 230.489 40.7667 230.125 40.86C229.771 40.9533 229.411 41 229.047 41H225.365C225.207 41 225.071 40.944 224.959 40.832C224.857 40.72 224.805 40.5847 224.805 40.426V31.76C224.805 31.6013 224.857 31.4707 224.959 31.368C225.071 31.256 225.207 31.2 225.365 31.2H229.019ZM228.851 32.306H225.841L226.009 32.054V35.54L225.855 35.358H228.879C229.29 35.358 229.64 35.2273 229.929 34.966C230.228 34.6953 230.377 34.2987 230.377 33.776C230.377 33.3093 230.242 32.95 229.971 32.698C229.701 32.4367 229.327 32.306 228.851 32.306ZM228.963 36.478H225.911L226.009 36.38V40.034L225.897 39.908H229.005C229.556 39.908 230.004 39.768 230.349 39.488C230.704 39.208 230.881 38.774 230.881 38.186C230.881 37.7287 230.788 37.3787 230.601 37.136C230.415 36.884 230.172 36.7113 229.873 36.618C229.584 36.5247 229.281 36.478 228.963 36.478ZM234.947 40.426C234.947 40.5847 234.891 40.72 234.779 40.832C234.667 40.944 234.531 41 234.373 41C234.214 41 234.083 40.944 233.981 40.832C233.878 40.72 233.827 40.5847 233.827 40.426V31.2C233.827 31.0413 233.878 30.9107 233.981 30.808C234.093 30.696 234.228 30.64 234.387 30.64C234.555 30.64 234.69 30.696 234.793 30.808C234.895 30.9107 234.947 31.0413 234.947 31.2V40.426ZM243.856 37.36C243.856 38.088 243.693 38.7367 243.366 39.306C243.049 39.8753 242.615 40.3233 242.064 40.65C241.523 40.9767 240.912 41.14 240.23 41.14C239.549 41.14 238.933 40.9767 238.382 40.65C237.832 40.3233 237.393 39.8753 237.066 39.306C236.749 38.7367 236.59 38.088 236.59 37.36C236.59 36.632 236.749 35.9833 237.066 35.414C237.393 34.8447 237.832 34.3967 238.382 34.07C238.933 33.7433 239.549 33.58 240.23 33.58C240.912 33.58 241.523 33.7433 242.064 34.07C242.615 34.3967 243.049 34.8447 243.366 35.414C243.693 35.9833 243.856 36.632 243.856 37.36ZM242.736 37.36C242.736 36.8187 242.624 36.3427 242.4 35.932C242.186 35.5213 241.887 35.1993 241.504 34.966C241.131 34.7327 240.706 34.616 240.23 34.616C239.754 34.616 239.325 34.7327 238.942 34.966C238.569 35.1993 238.27 35.5213 238.046 35.932C237.822 36.3427 237.71 36.8187 237.71 37.36C237.71 37.892 237.822 38.3633 238.046 38.774C238.27 39.1847 238.569 39.5113 238.942 39.754C239.325 39.9873 239.754 40.104 240.23 40.104C240.706 40.104 241.131 39.9873 241.504 39.754C241.887 39.5113 242.186 39.1847 242.4 38.774C242.624 38.3633 242.736 37.892 242.736 37.36ZM248.761 33.58C249.237 33.58 249.666 33.6313 250.049 33.734C250.432 33.8367 250.735 33.9767 250.959 34.154C251.183 34.3313 251.295 34.532 251.295 34.756C251.295 34.8773 251.253 34.994 251.169 35.106C251.085 35.218 250.973 35.274 250.833 35.274C250.702 35.274 250.595 35.2507 250.511 35.204C250.436 35.1573 250.362 35.0967 250.287 35.022C250.222 34.9473 250.128 34.882 250.007 34.826C249.895 34.7607 249.732 34.7093 249.517 34.672C249.302 34.6347 249.088 34.616 248.873 34.616C248.36 34.616 247.907 34.7373 247.515 34.98C247.132 35.2227 246.829 35.5493 246.605 35.96C246.381 36.3707 246.269 36.8373 246.269 37.36C246.269 37.8827 246.376 38.3493 246.591 38.76C246.806 39.1707 247.104 39.4973 247.487 39.74C247.87 39.9827 248.313 40.104 248.817 40.104C249.144 40.104 249.405 40.076 249.601 40.02C249.797 39.964 249.96 39.8987 250.091 39.824C250.259 39.7307 250.385 39.6373 250.469 39.544C250.562 39.4507 250.684 39.404 250.833 39.404C250.992 39.404 251.113 39.4553 251.197 39.558C251.29 39.6607 251.337 39.7867 251.337 39.936C251.337 40.104 251.22 40.2813 250.987 40.468C250.754 40.6547 250.436 40.8133 250.035 40.944C249.643 41.0747 249.195 41.14 248.691 41.14C247.982 41.14 247.361 40.9767 246.829 40.65C246.297 40.314 245.882 39.8613 245.583 39.292C245.294 38.7133 245.149 38.0693 245.149 37.36C245.149 36.6507 245.298 36.0113 245.597 35.442C245.905 34.8727 246.33 34.42 246.871 34.084C247.412 33.748 248.042 33.58 248.761 33.58ZM253.473 41C253.305 41 253.169 40.944 253.067 40.832C252.964 40.72 252.913 40.5847 252.913 40.426V31.2C252.913 31.0413 252.964 30.9107 253.067 30.808C253.169 30.696 253.305 30.64 253.473 30.64C253.631 30.64 253.762 30.696 253.865 30.808C253.977 30.9107 254.033 31.0413 254.033 31.2V40.426C254.033 40.5847 253.977 40.72 253.865 40.832C253.762 40.944 253.631 41 253.473 41ZM258.121 33.72C258.27 33.72 258.396 33.7807 258.499 33.902C258.611 34.014 258.667 34.1307 258.667 34.252C258.667 34.4107 258.592 34.5507 258.443 34.672L253.907 38.634L253.865 37.332L257.729 33.888C257.841 33.776 257.971 33.72 258.121 33.72ZM258.275 40.986C258.116 40.986 257.976 40.9253 257.855 40.804L254.873 37.626L255.713 36.856L258.667 40.02C258.779 40.1413 258.835 40.2813 258.835 40.44C258.835 40.608 258.769 40.7433 258.639 40.846C258.508 40.9393 258.387 40.986 258.275 40.986ZM268.568 31.2C269.25 31.2 269.847 31.3307 270.36 31.592C270.883 31.844 271.317 32.1987 271.662 32.656C272.008 33.1133 272.264 33.6407 272.432 34.238C272.61 34.826 272.698 35.4467 272.698 36.1C272.698 36.996 272.544 37.8173 272.236 38.564C271.928 39.3013 271.471 39.894 270.864 40.342C270.258 40.7807 269.492 41 268.568 41H265.068C264.91 41 264.774 40.944 264.662 40.832C264.56 40.72 264.508 40.5847 264.508 40.426V31.76C264.508 31.6013 264.56 31.4707 264.662 31.368C264.774 31.256 264.91 31.2 265.068 31.2H268.568ZM268.428 39.908C269.147 39.908 269.73 39.7353 270.178 39.39C270.636 39.0447 270.967 38.5827 271.172 38.004C271.387 37.4253 271.494 36.7907 271.494 36.1C271.494 35.596 271.434 35.1153 271.312 34.658C271.2 34.1913 271.018 33.7807 270.766 33.426C270.524 33.0713 270.206 32.7913 269.814 32.586C269.432 32.3807 268.97 32.278 268.428 32.278H265.558L265.67 32.166V40.048L265.586 39.908H268.428ZM280.325 33.692C280.484 33.692 280.615 33.748 280.717 33.86C280.829 33.9627 280.885 34.0933 280.885 34.252V40.426C280.885 40.5847 280.829 40.72 280.717 40.832C280.615 40.944 280.484 41 280.325 41C280.157 41 280.022 40.944 279.919 40.832C279.817 40.72 279.765 40.5847 279.765 40.426V39.096L280.031 39.068C280.031 39.2733 279.961 39.4973 279.821 39.74C279.681 39.9827 279.49 40.2113 279.247 40.426C279.005 40.6313 278.715 40.804 278.379 40.944C278.053 41.0747 277.698 41.14 277.315 41.14C276.681 41.14 276.111 40.9767 275.607 40.65C275.103 40.314 274.702 39.8613 274.403 39.292C274.114 38.7227 273.969 38.074 273.969 37.346C273.969 36.6087 274.114 35.96 274.403 35.4C274.702 34.8307 275.103 34.3873 275.607 34.07C276.111 33.7433 276.671 33.58 277.287 33.58C277.689 33.58 278.062 33.6453 278.407 33.776C278.753 33.9067 279.051 34.084 279.303 34.308C279.565 34.532 279.765 34.7793 279.905 35.05C280.055 35.3207 280.129 35.5913 280.129 35.862L279.765 35.778V34.252C279.765 34.0933 279.817 33.9627 279.919 33.86C280.022 33.748 280.157 33.692 280.325 33.692ZM277.441 40.104C277.908 40.104 278.319 39.9827 278.673 39.74C279.037 39.4973 279.317 39.1707 279.513 38.76C279.719 38.34 279.821 37.8687 279.821 37.346C279.821 36.8327 279.719 36.3707 279.513 35.96C279.317 35.54 279.037 35.2133 278.673 34.98C278.319 34.7373 277.908 34.616 277.441 34.616C276.984 34.616 276.573 34.7327 276.209 34.966C275.855 35.1993 275.575 35.5213 275.369 35.932C275.164 36.3427 275.061 36.814 275.061 37.346C275.061 37.8687 275.159 38.34 275.355 38.76C275.561 39.1707 275.841 39.4973 276.195 39.74C276.559 39.9827 276.975 40.104 277.441 40.104ZM282.681 33.804H285.971C286.12 33.804 286.241 33.8553 286.335 33.958C286.437 34.0607 286.489 34.182 286.489 34.322C286.489 34.4713 286.437 34.5973 286.335 34.7C286.241 34.7933 286.12 34.84 285.971 34.84H282.681C282.541 34.84 282.419 34.7887 282.317 34.686C282.214 34.5833 282.163 34.4573 282.163 34.308C282.163 34.168 282.214 34.0513 282.317 33.958C282.419 33.8553 282.541 33.804 282.681 33.804ZM284.151 31.9C284.309 31.9 284.44 31.956 284.543 32.068C284.645 32.1707 284.697 32.3013 284.697 32.46V39.222C284.697 39.446 284.729 39.614 284.795 39.726C284.86 39.838 284.944 39.9173 285.047 39.964C285.159 40.0013 285.266 40.02 285.369 40.02C285.462 40.02 285.541 40.006 285.607 39.978C285.681 39.9407 285.765 39.922 285.859 39.922C285.952 39.922 286.036 39.9687 286.111 40.062C286.195 40.146 286.237 40.258 286.237 40.398C286.237 40.566 286.139 40.7107 285.943 40.832C285.747 40.944 285.527 41 285.285 41C285.154 41 284.991 40.9907 284.795 40.972C284.608 40.9533 284.421 40.8927 284.235 40.79C284.048 40.6873 283.889 40.5193 283.759 40.286C283.637 40.0433 283.577 39.7073 283.577 39.278V32.46C283.577 32.3013 283.633 32.1707 283.745 32.068C283.857 31.956 283.992 31.9 284.151 31.9ZM294.011 33.692C294.169 33.692 294.3 33.748 294.403 33.86C294.515 33.9627 294.571 34.0933 294.571 34.252V40.426C294.571 40.5847 294.515 40.72 294.403 40.832C294.3 40.944 294.169 41 294.011 41C293.843 41 293.707 40.944 293.605 40.832C293.502 40.72 293.451 40.5847 293.451 40.426V39.096L293.717 39.068C293.717 39.2733 293.647 39.4973 293.507 39.74C293.367 39.9827 293.175 40.2113 292.933 40.426C292.69 40.6313 292.401 40.804 292.065 40.944C291.738 41.0747 291.383 41.14 291.001 41.14C290.366 41.14 289.797 40.9767 289.293 40.65C288.789 40.314 288.387 39.8613 288.089 39.292C287.799 38.7227 287.655 38.074 287.655 37.346C287.655 36.6087 287.799 35.96 288.089 35.4C288.387 34.8307 288.789 34.3873 289.293 34.07C289.797 33.7433 290.357 33.58 290.973 33.58C291.374 33.58 291.747 33.6453 292.093 33.776C292.438 33.9067 292.737 34.084 292.989 34.308C293.25 34.532 293.451 34.7793 293.591 35.05C293.74 35.3207 293.815 35.5913 293.815 35.862L293.451 35.778V34.252C293.451 34.0933 293.502 33.9627 293.605 33.86C293.707 33.748 293.843 33.692 294.011 33.692ZM291.127 40.104C291.593 40.104 292.004 39.9827 292.359 39.74C292.723 39.4973 293.003 39.1707 293.199 38.76C293.404 38.34 293.507 37.8687 293.507 37.346C293.507 36.8327 293.404 36.3707 293.199 35.96C293.003 35.54 292.723 35.2133 292.359 34.98C292.004 34.7373 291.593 34.616 291.127 34.616C290.669 34.616 290.259 34.7327 289.895 34.966C289.54 35.1993 289.26 35.5213 289.055 35.932C288.849 36.3427 288.747 36.814 288.747 37.346C288.747 37.8687 288.845 38.34 289.041 38.76C289.246 39.1707 289.526 39.4973 289.881 39.74C290.245 39.9827 290.66 40.104 291.127 40.104ZM296.408 43.632C296.259 43.632 296.142 43.576 296.058 43.464C295.974 43.352 295.932 43.24 295.932 43.128C295.932 42.9693 296.002 42.8387 296.142 42.736C296.768 42.3347 297.29 41.8493 297.71 41.28C298.14 40.72 298.462 40.104 298.676 39.432C298.9 38.76 299.012 38.074 299.012 37.374C299.012 36.674 298.905 35.988 298.69 35.316C298.485 34.6347 298.168 34.0093 297.738 33.44C297.318 32.8707 296.786 32.3993 296.142 32.026C296.002 31.9327 295.932 31.7973 295.932 31.62C295.932 31.4987 295.974 31.3867 296.058 31.284C296.152 31.1813 296.268 31.13 296.408 31.13C296.502 31.13 296.59 31.158 296.674 31.214C297.44 31.634 298.074 32.166 298.578 32.81C299.092 33.454 299.479 34.168 299.74 34.952C300.002 35.7267 300.132 36.534 300.132 37.374C300.132 38.214 299.997 39.0213 299.726 39.796C299.465 40.5613 299.073 41.266 298.55 41.91C298.037 42.554 297.407 43.1 296.66 43.548C296.586 43.604 296.502 43.632 296.408 43.632Z" fill="#2E2E2E"/>
<circle cx="56" cy="80" r="15" fill="#E66E35" stroke="#AF4919" stroke-width="2"/>
<circle cx="240" cy="80" r="15" fill="#7ED233" stroke="#509711" stroke-width="2"/>
<defs>
<linearGradient id="paint0_linear_5833_4" x1="153" y1="170" x2="153" y2="270" gradientUnits="userSpaceOnUse">
<stop stop-color="#1E80CA" stop-opacity="0.52"/>
<stop offset="1" stop-color="#0172C6" stop-opacity="0"/>
</linearGradient>
</defs>
</svg>
