<svg width="292" height="290" viewBox="0 0 292 290" fill="none" xmlns="http://www.w3.org/2000/svg">
<path d="M57 239C56.4477 239 56 239.448 56 240C56 240.552 56.4477 241 57 241V239ZM257.707 240.707C258.098 240.317 258.098 239.683 257.707 239.293L251.343 232.929C250.953 232.538 250.319 232.538 249.929 232.929C249.538 233.319 249.538 233.953 249.929 234.343L255.586 240L249.929 245.657C249.538 246.047 249.538 246.681 249.929 247.071C250.319 247.462 250.953 247.462 251.343 247.071L257.707 240.707ZM57 241H257V239H57V241Z" fill="#2E2E2E"/>
<rect x="88" y="191" width="138" height="98" rx="9" fill="url(#paint0_linear_5833_2)" stroke="#2E2E2E" stroke-width="2"/>
<path d="M133.633 234.2C132.673 234.2 131.82 234.067 131.073 233.8C130.326 233.533 129.613 233.093 128.933 232.48C128.786 232.373 128.673 232.247 128.593 232.1C128.526 231.94 128.493 231.78 128.493 231.62C128.493 231.367 128.586 231.14 128.773 230.94C128.96 230.74 129.193 230.64 129.473 230.64C129.686 230.64 129.886 230.713 130.073 230.86C130.58 231.327 131.106 231.68 131.653 231.92C132.213 232.16 132.866 232.28 133.613 232.28C134.146 232.28 134.633 232.193 135.073 232.02C135.526 231.847 135.886 231.613 136.153 231.32C136.42 231.027 136.553 230.687 136.553 230.3C136.553 229.82 136.413 229.427 136.133 229.12C135.866 228.8 135.473 228.54 134.953 228.34C134.446 228.127 133.833 227.947 133.113 227.8C132.446 227.68 131.846 227.513 131.313 227.3C130.793 227.087 130.346 226.82 129.973 226.5C129.6 226.167 129.313 225.773 129.113 225.32C128.913 224.867 128.813 224.34 128.813 223.74C128.813 222.927 129.026 222.227 129.453 221.64C129.88 221.053 130.46 220.6 131.193 220.28C131.926 219.96 132.753 219.8 133.673 219.8C134.513 219.8 135.3 219.933 136.033 220.2C136.766 220.453 137.36 220.8 137.813 221.24C138.133 221.52 138.293 221.82 138.293 222.14C138.293 222.38 138.193 222.607 137.993 222.82C137.806 223.02 137.586 223.12 137.333 223.12C137.146 223.12 136.986 223.067 136.853 222.96C136.64 222.733 136.353 222.533 135.993 222.36C135.633 222.173 135.246 222.02 134.833 221.9C134.433 221.78 134.046 221.72 133.673 221.72C133.073 221.72 132.56 221.807 132.133 221.98C131.706 222.14 131.38 222.367 131.153 222.66C130.926 222.94 130.813 223.273 130.813 223.66C130.813 224.113 130.94 224.487 131.193 224.78C131.46 225.073 131.826 225.313 132.293 225.5C132.76 225.673 133.293 225.833 133.893 225.98C134.626 226.14 135.28 226.32 135.853 226.52C136.44 226.72 136.933 226.98 137.333 227.3C137.733 227.607 138.04 227.993 138.253 228.46C138.466 228.927 138.573 229.507 138.573 230.2C138.573 231 138.346 231.7 137.893 232.3C137.44 232.9 136.84 233.367 136.093 233.7C135.36 234.033 134.54 234.2 133.633 234.2ZM146.092 223.3C147.079 223.3 147.839 223.547 148.372 224.04C148.905 224.52 149.259 225.173 149.432 226L149.112 225.9L149.252 225.58C149.425 225.233 149.685 224.887 150.032 224.54C150.392 224.18 150.819 223.887 151.312 223.66C151.805 223.42 152.332 223.3 152.892 223.3C153.812 223.3 154.525 223.5 155.032 223.9C155.539 224.287 155.892 224.813 156.092 225.48C156.292 226.133 156.392 226.867 156.392 227.68V232.98C156.392 233.273 156.299 233.52 156.112 233.72C155.925 233.907 155.685 234 155.392 234C155.112 234 154.872 233.907 154.672 233.72C154.485 233.52 154.392 233.273 154.392 232.98V227.7C154.392 227.233 154.325 226.807 154.192 226.42C154.072 226.033 153.852 225.727 153.532 225.5C153.225 225.26 152.799 225.14 152.252 225.14C151.732 225.14 151.265 225.26 150.852 225.5C150.452 225.727 150.139 226.033 149.912 226.42C149.685 226.807 149.572 227.233 149.572 227.7V232.98C149.572 233.273 149.479 233.52 149.292 233.72C149.105 233.907 148.865 234 148.572 234C148.279 234 148.039 233.907 147.852 233.72C147.665 233.52 147.572 233.273 147.572 232.98V227.68C147.572 227.213 147.505 226.787 147.372 226.4C147.252 226.013 147.039 225.707 146.732 225.48C146.425 225.253 145.999 225.14 145.452 225.14C144.932 225.14 144.472 225.253 144.072 225.48C143.672 225.707 143.359 226.013 143.132 226.4C142.919 226.787 142.812 227.213 142.812 227.68V232.98C142.812 233.273 142.712 233.52 142.512 233.72C142.325 233.907 142.092 234 141.812 234C141.519 234 141.279 233.907 141.092 233.72C140.905 233.52 140.812 233.273 140.812 232.98V224.5C140.812 224.207 140.905 223.967 141.092 223.78C141.279 223.58 141.519 223.48 141.812 223.48C142.092 223.48 142.325 223.58 142.512 223.78C142.712 223.967 142.812 224.207 142.812 224.5V225.68L142.432 225.9C142.525 225.607 142.679 225.307 142.892 225C143.105 224.693 143.372 224.413 143.692 224.16C144.025 223.907 144.392 223.7 144.792 223.54C145.192 223.38 145.625 223.3 146.092 223.3ZM167.811 223.32C168.104 223.32 168.344 223.42 168.531 223.62C168.718 223.807 168.811 224.047 168.811 224.34V232.98C168.811 233.273 168.718 233.52 168.531 233.72C168.344 233.907 168.104 234 167.811 234C167.531 234 167.291 233.907 167.091 233.72C166.904 233.52 166.811 233.273 166.811 232.98V231.54L167.231 231.6C167.231 231.84 167.131 232.107 166.931 232.4C166.744 232.693 166.484 232.98 166.151 233.26C165.818 233.527 165.424 233.753 164.971 233.94C164.518 234.113 164.031 234.2 163.511 234.2C162.591 234.2 161.764 233.967 161.031 233.5C160.298 233.02 159.718 232.367 159.291 231.54C158.864 230.713 158.651 229.773 158.651 228.72C158.651 227.64 158.864 226.693 159.291 225.88C159.718 225.053 160.291 224.407 161.011 223.94C161.744 223.473 162.558 223.24 163.451 223.24C164.024 223.24 164.551 223.333 165.031 223.52C165.524 223.707 165.951 223.947 166.311 224.24C166.671 224.533 166.944 224.847 167.131 225.18C167.331 225.5 167.431 225.807 167.431 226.1L166.811 226.16V224.34C166.811 224.06 166.904 223.82 167.091 223.62C167.291 223.42 167.531 223.32 167.811 223.32ZM163.731 232.36C164.358 232.36 164.911 232.2 165.391 231.88C165.871 231.56 166.244 231.127 166.511 230.58C166.778 230.02 166.911 229.4 166.911 228.72C166.911 228.027 166.778 227.407 166.511 226.86C166.244 226.313 165.871 225.88 165.391 225.56C164.911 225.24 164.358 225.08 163.731 225.08C163.118 225.08 162.571 225.24 162.091 225.56C161.624 225.88 161.251 226.313 160.971 226.86C160.704 227.407 160.571 228.027 160.571 228.72C160.571 229.4 160.704 230.02 160.971 230.58C161.251 231.127 161.624 231.56 162.091 231.88C162.571 232.2 163.118 232.36 163.731 232.36ZM172.613 234C172.32 234 172.08 233.907 171.893 233.72C171.706 233.52 171.613 233.273 171.613 232.98V224.5C171.613 224.207 171.706 223.967 171.893 223.78C172.08 223.58 172.32 223.48 172.613 223.48C172.893 223.48 173.126 223.58 173.313 223.78C173.513 223.967 173.613 224.207 173.613 224.5V226.74L173.413 225.88C173.52 225.507 173.68 225.16 173.893 224.84C174.12 224.52 174.386 224.24 174.693 224C175 223.76 175.34 223.573 175.713 223.44C176.1 223.307 176.5 223.24 176.913 223.24C177.26 223.24 177.56 223.333 177.813 223.52C178.066 223.707 178.193 223.94 178.193 224.22C178.193 224.58 178.1 224.847 177.913 225.02C177.726 225.18 177.52 225.26 177.293 225.26C177.093 225.26 176.9 225.22 176.713 225.14C176.526 225.047 176.306 225 176.053 225C175.773 225 175.486 225.073 175.193 225.22C174.9 225.367 174.633 225.587 174.393 225.88C174.153 226.16 173.96 226.493 173.813 226.88C173.68 227.267 173.613 227.7 173.613 228.18V232.98C173.613 233.273 173.513 233.52 173.313 233.72C173.126 233.907 172.893 234 172.613 234ZM179.832 223.6H184.532C184.799 223.6 185.019 223.693 185.192 223.88C185.379 224.053 185.472 224.273 185.472 224.54C185.472 224.793 185.379 225.007 185.192 225.18C185.019 225.353 184.799 225.44 184.532 225.44H179.832C179.566 225.44 179.339 225.353 179.152 225.18C178.979 224.993 178.892 224.773 178.892 224.52C178.892 224.253 178.979 224.033 179.152 223.86C179.339 223.687 179.566 223.6 179.832 223.6ZM181.932 221C182.226 221 182.466 221.1 182.652 221.3C182.839 221.487 182.932 221.727 182.932 222.02V231.3C182.932 231.54 182.972 231.733 183.052 231.88C183.132 232.027 183.239 232.127 183.372 232.18C183.519 232.233 183.666 232.26 183.812 232.26C183.959 232.26 184.086 232.233 184.192 232.18C184.312 232.127 184.452 232.1 184.612 232.1C184.772 232.1 184.919 232.173 185.052 232.32C185.186 232.467 185.252 232.667 185.252 232.92C185.252 233.24 185.079 233.5 184.732 233.7C184.386 233.9 184.012 234 183.612 234C183.386 234 183.119 233.98 182.812 233.94C182.506 233.9 182.206 233.8 181.912 233.64C181.632 233.48 181.399 233.227 181.212 232.88C181.026 232.52 180.932 232.02 180.932 231.38V222.02C180.932 221.727 181.026 221.487 181.212 221.3C181.412 221.1 181.652 221 181.932 221ZM121.988 248.8C122.281 248.947 122.448 249.173 122.488 249.48C122.541 249.787 122.468 250.067 122.268 250.32C122.121 250.52 121.928 250.633 121.688 250.66C121.461 250.687 121.234 250.64 121.008 250.52C120.621 250.32 120.214 250.16 119.788 250.04C119.361 249.92 118.908 249.86 118.428 249.86C117.668 249.86 116.981 249.987 116.368 250.24C115.768 250.48 115.248 250.833 114.808 251.3C114.368 251.753 114.028 252.293 113.788 252.92C113.561 253.547 113.448 254.24 113.448 255C113.448 255.84 113.574 256.587 113.828 257.24C114.081 257.88 114.428 258.427 114.868 258.88C115.321 259.32 115.848 259.653 116.448 259.88C117.061 260.093 117.721 260.2 118.428 260.2C118.881 260.2 119.321 260.147 119.748 260.04C120.188 259.933 120.601 259.773 120.988 259.56C121.228 259.44 121.461 259.4 121.688 259.44C121.928 259.467 122.121 259.58 122.268 259.78C122.494 260.06 122.574 260.347 122.508 260.64C122.454 260.92 122.288 261.133 122.008 261.28C121.674 261.467 121.308 261.627 120.908 261.76C120.508 261.893 120.101 262 119.688 262.08C119.274 262.16 118.854 262.2 118.428 262.2C117.468 262.2 116.561 262.04 115.708 261.72C114.854 261.4 114.094 260.933 113.428 260.32C112.761 259.707 112.234 258.953 111.848 258.06C111.474 257.167 111.288 256.147 111.288 255C111.288 253.973 111.461 253.027 111.808 252.16C112.168 251.28 112.668 250.527 113.308 249.9C113.961 249.26 114.721 248.767 115.588 248.42C116.454 248.06 117.401 247.88 118.428 247.88C119.068 247.88 119.688 247.96 120.288 248.12C120.901 248.28 121.468 248.507 121.988 248.8ZM134.623 256.74C134.623 257.807 134.389 258.753 133.923 259.58C133.456 260.393 132.823 261.033 132.023 261.5C131.223 261.967 130.323 262.2 129.323 262.2C128.323 262.2 127.423 261.967 126.623 261.5C125.823 261.033 125.183 260.393 124.703 259.58C124.236 258.753 124.003 257.807 124.003 256.74C124.003 255.66 124.236 254.713 124.703 253.9C125.183 253.073 125.823 252.427 126.623 251.96C127.423 251.48 128.323 251.24 129.323 251.24C130.323 251.24 131.223 251.48 132.023 251.96C132.823 252.427 133.456 253.073 133.923 253.9C134.389 254.713 134.623 255.66 134.623 256.74ZM132.623 256.74C132.623 256.007 132.476 255.373 132.183 254.84C131.889 254.293 131.489 253.867 130.983 253.56C130.489 253.24 129.936 253.08 129.323 253.08C128.709 253.08 128.149 253.24 127.643 253.56C127.136 253.867 126.736 254.293 126.443 254.84C126.149 255.373 126.003 256.007 126.003 256.74C126.003 257.447 126.149 258.073 126.443 258.62C126.736 259.167 127.136 259.593 127.643 259.9C128.149 260.207 128.709 260.36 129.323 260.36C129.936 260.36 130.489 260.207 130.983 259.9C131.489 259.593 131.889 259.167 132.183 258.62C132.476 258.073 132.623 257.447 132.623 256.74ZM142.306 251.24C143.253 251.24 143.986 251.44 144.506 251.84C145.026 252.227 145.386 252.753 145.586 253.42C145.8 254.073 145.906 254.807 145.906 255.62V260.98C145.906 261.273 145.806 261.52 145.606 261.72C145.42 261.907 145.186 262 144.906 262C144.613 262 144.373 261.907 144.186 261.72C144 261.52 143.906 261.273 143.906 260.98V255.64C143.906 255.16 143.84 254.733 143.706 254.36C143.573 253.973 143.34 253.667 143.006 253.44C142.686 253.2 142.233 253.08 141.646 253.08C141.1 253.08 140.62 253.2 140.206 253.44C139.793 253.667 139.466 253.973 139.226 254.36C139 254.733 138.886 255.16 138.886 255.64V260.98C138.886 261.273 138.786 261.52 138.586 261.72C138.4 261.907 138.166 262 137.886 262C137.593 262 137.353 261.907 137.166 261.72C136.98 261.52 136.886 261.273 136.886 260.98V252.5C136.886 252.207 136.98 251.967 137.166 251.78C137.353 251.58 137.593 251.48 137.886 251.48C138.166 251.48 138.4 251.58 138.586 251.78C138.786 251.967 138.886 252.207 138.886 252.5V253.62L138.526 253.82C138.62 253.527 138.78 253.233 139.006 252.94C139.246 252.633 139.533 252.353 139.866 252.1C140.2 251.833 140.573 251.627 140.986 251.48C141.4 251.32 141.84 251.24 142.306 251.24ZM148.543 251.6H153.243C153.51 251.6 153.73 251.693 153.903 251.88C154.09 252.053 154.183 252.273 154.183 252.54C154.183 252.793 154.09 253.007 153.903 253.18C153.73 253.353 153.51 253.44 153.243 253.44H148.543C148.277 253.44 148.05 253.353 147.863 253.18C147.69 252.993 147.603 252.773 147.603 252.52C147.603 252.253 147.69 252.033 147.863 251.86C148.05 251.687 148.277 251.6 148.543 251.6ZM150.643 249C150.937 249 151.177 249.1 151.363 249.3C151.55 249.487 151.643 249.727 151.643 250.02V259.3C151.643 259.54 151.683 259.733 151.763 259.88C151.843 260.027 151.95 260.127 152.083 260.18C152.23 260.233 152.377 260.26 152.523 260.26C152.67 260.26 152.797 260.233 152.903 260.18C153.023 260.127 153.163 260.1 153.323 260.1C153.483 260.1 153.63 260.173 153.763 260.32C153.897 260.467 153.963 260.667 153.963 260.92C153.963 261.24 153.79 261.5 153.443 261.7C153.097 261.9 152.723 262 152.323 262C152.097 262 151.83 261.98 151.523 261.94C151.217 261.9 150.917 261.8 150.623 261.64C150.343 261.48 150.11 261.227 149.923 260.88C149.737 260.52 149.643 260.02 149.643 259.38V250.02C149.643 249.727 149.737 249.487 149.923 249.3C150.123 249.1 150.363 249 150.643 249ZM157.398 262C157.105 262 156.865 261.907 156.678 261.72C156.491 261.52 156.398 261.273 156.398 260.98V252.5C156.398 252.207 156.491 251.967 156.678 251.78C156.865 251.58 157.105 251.48 157.398 251.48C157.678 251.48 157.911 251.58 158.098 251.78C158.298 251.967 158.398 252.207 158.398 252.5V254.74L158.198 253.88C158.305 253.507 158.465 253.16 158.678 252.84C158.905 252.52 159.171 252.24 159.478 252C159.785 251.76 160.125 251.573 160.498 251.44C160.885 251.307 161.285 251.24 161.698 251.24C162.045 251.24 162.345 251.333 162.598 251.52C162.851 251.707 162.978 251.94 162.978 252.22C162.978 252.58 162.885 252.847 162.698 253.02C162.511 253.18 162.305 253.26 162.078 253.26C161.878 253.26 161.685 253.22 161.498 253.14C161.311 253.047 161.091 253 160.838 253C160.558 253 160.271 253.073 159.978 253.22C159.685 253.367 159.418 253.587 159.178 253.88C158.938 254.16 158.745 254.493 158.598 254.88C158.465 255.267 158.398 255.7 158.398 256.18V260.98C158.398 261.273 158.298 261.52 158.098 261.72C157.911 261.907 157.678 262 157.398 262ZM173.143 251.32C173.436 251.32 173.676 251.42 173.863 251.62C174.05 251.807 174.143 252.047 174.143 252.34V260.98C174.143 261.273 174.05 261.52 173.863 261.72C173.676 261.907 173.436 262 173.143 262C172.863 262 172.623 261.907 172.423 261.72C172.236 261.52 172.143 261.273 172.143 260.98V259.54L172.563 259.6C172.563 259.84 172.463 260.107 172.263 260.4C172.076 260.693 171.816 260.98 171.483 261.26C171.15 261.527 170.756 261.753 170.303 261.94C169.85 262.113 169.363 262.2 168.843 262.2C167.923 262.2 167.096 261.967 166.363 261.5C165.63 261.02 165.05 260.367 164.623 259.54C164.196 258.713 163.983 257.773 163.983 256.72C163.983 255.64 164.196 254.693 164.623 253.88C165.05 253.053 165.623 252.407 166.343 251.94C167.076 251.473 167.89 251.24 168.783 251.24C169.356 251.24 169.883 251.333 170.363 251.52C170.856 251.707 171.283 251.947 171.643 252.24C172.003 252.533 172.276 252.847 172.463 253.18C172.663 253.5 172.763 253.807 172.763 254.1L172.143 254.16V252.34C172.143 252.06 172.236 251.82 172.423 251.62C172.623 251.42 172.863 251.32 173.143 251.32ZM169.063 260.36C169.69 260.36 170.243 260.2 170.723 259.88C171.203 259.56 171.576 259.127 171.843 258.58C172.11 258.02 172.243 257.4 172.243 256.72C172.243 256.027 172.11 255.407 171.843 254.86C171.576 254.313 171.203 253.88 170.723 253.56C170.243 253.24 169.69 253.08 169.063 253.08C168.45 253.08 167.903 253.24 167.423 253.56C166.956 253.88 166.583 254.313 166.303 254.86C166.036 255.407 165.903 256.027 165.903 256.72C165.903 257.4 166.036 258.02 166.303 258.58C166.583 259.127 166.956 259.56 167.423 259.88C167.903 260.2 168.45 260.36 169.063 260.36ZM181.605 251.24C182.325 251.24 182.965 251.32 183.525 251.48C184.085 251.627 184.518 251.84 184.825 252.12C185.145 252.387 185.305 252.7 185.305 253.06C185.305 253.287 185.238 253.5 185.105 253.7C184.972 253.887 184.772 253.98 184.505 253.98C184.318 253.98 184.158 253.947 184.025 253.88C183.905 253.813 183.792 253.733 183.685 253.64C183.578 253.547 183.445 253.453 183.285 253.36C183.138 253.28 182.918 253.213 182.625 253.16C182.345 253.107 182.092 253.08 181.865 253.08C181.158 253.08 180.545 253.24 180.025 253.56C179.518 253.88 179.118 254.313 178.825 254.86C178.545 255.407 178.405 256.027 178.405 256.72C178.405 257.413 178.545 258.033 178.825 258.58C179.118 259.127 179.512 259.56 180.005 259.88C180.512 260.2 181.098 260.36 181.765 260.36C182.165 260.36 182.492 260.333 182.745 260.28C182.998 260.213 183.218 260.133 183.405 260.04C183.605 259.92 183.772 259.8 183.905 259.68C184.052 259.547 184.252 259.48 184.505 259.48C184.798 259.48 185.018 259.573 185.165 259.76C185.325 259.933 185.405 260.153 185.405 260.42C185.405 260.713 185.225 261 184.865 261.28C184.518 261.547 184.052 261.767 183.465 261.94C182.878 262.113 182.232 262.2 181.525 262.2C180.485 262.2 179.578 261.96 178.805 261.48C178.045 261 177.452 260.347 177.025 259.52C176.612 258.693 176.405 257.76 176.405 256.72C176.405 255.667 176.625 254.733 177.065 253.92C177.505 253.093 178.118 252.44 178.905 251.96C179.692 251.48 180.592 251.24 181.605 251.24ZM187.176 251.6H191.876C192.143 251.6 192.363 251.693 192.536 251.88C192.723 252.053 192.816 252.273 192.816 252.54C192.816 252.793 192.723 253.007 192.536 253.18C192.363 253.353 192.143 253.44 191.876 253.44H187.176C186.909 253.44 186.683 253.353 186.496 253.18C186.323 252.993 186.236 252.773 186.236 252.52C186.236 252.253 186.323 252.033 186.496 251.86C186.683 251.687 186.909 251.6 187.176 251.6ZM189.276 249C189.569 249 189.809 249.1 189.996 249.3C190.183 249.487 190.276 249.727 190.276 250.02V259.3C190.276 259.54 190.316 259.733 190.396 259.88C190.476 260.027 190.583 260.127 190.716 260.18C190.863 260.233 191.009 260.26 191.156 260.26C191.303 260.26 191.429 260.233 191.536 260.18C191.656 260.127 191.796 260.1 191.956 260.1C192.116 260.1 192.263 260.173 192.396 260.32C192.529 260.467 192.596 260.667 192.596 260.92C192.596 261.24 192.423 261.5 192.076 261.7C191.729 261.9 191.356 262 190.956 262C190.729 262 190.463 261.98 190.156 261.94C189.849 261.9 189.549 261.8 189.256 261.64C188.976 261.48 188.743 261.227 188.556 260.88C188.369 260.52 188.276 260.02 188.276 259.38V250.02C188.276 249.727 188.369 249.487 188.556 249.3C188.756 249.1 188.996 249 189.276 249ZM194.801 260.36C194.681 260.173 194.628 259.96 194.641 259.72C194.655 259.467 194.795 259.253 195.061 259.08C195.248 258.96 195.441 258.913 195.641 258.94C195.855 258.953 196.055 259.053 196.241 259.24C196.615 259.653 197.028 259.98 197.481 260.22C197.948 260.46 198.508 260.58 199.161 260.58C199.428 260.567 199.701 260.527 199.981 260.46C200.261 260.38 200.501 260.247 200.701 260.06C200.901 259.86 201.001 259.573 201.001 259.2C201.001 258.867 200.895 258.6 200.681 258.4C200.468 258.2 200.188 258.04 199.841 257.92C199.495 257.787 199.121 257.667 198.721 257.56C198.295 257.44 197.861 257.307 197.421 257.16C196.995 257.013 196.608 256.827 196.261 256.6C195.915 256.36 195.628 256.053 195.401 255.68C195.188 255.307 195.081 254.847 195.081 254.3C195.081 253.673 195.255 253.133 195.601 252.68C195.961 252.227 196.421 251.873 196.981 251.62C197.555 251.367 198.175 251.24 198.841 251.24C199.228 251.24 199.635 251.293 200.061 251.4C200.488 251.493 200.901 251.647 201.301 251.86C201.701 252.073 202.048 252.353 202.341 252.7C202.475 252.873 202.548 253.08 202.561 253.32C202.588 253.56 202.481 253.773 202.241 253.96C202.081 254.093 201.888 254.153 201.661 254.14C201.435 254.127 201.248 254.053 201.101 253.92C200.848 253.6 200.521 253.353 200.121 253.18C199.721 252.993 199.268 252.9 198.761 252.9C198.508 252.9 198.241 252.94 197.961 253.02C197.695 253.087 197.468 253.213 197.281 253.4C197.095 253.587 197.001 253.86 197.001 254.22C197.001 254.553 197.108 254.82 197.321 255.02C197.548 255.22 197.841 255.387 198.201 255.52C198.561 255.653 198.955 255.773 199.381 255.88C199.795 255.987 200.201 256.113 200.601 256.26C201.015 256.407 201.381 256.6 201.701 256.84C202.035 257.067 202.301 257.367 202.501 257.74C202.715 258.1 202.821 258.56 202.821 259.12C202.821 259.773 202.628 260.333 202.241 260.8C201.868 261.253 201.388 261.6 200.801 261.84C200.228 262.08 199.621 262.2 198.981 262.2C198.221 262.2 197.461 262.067 196.701 261.8C195.955 261.52 195.321 261.04 194.801 260.36Z" fill="#2E2E2E"/>
<rect x="88" y="1" width="138" height="98" rx="9" fill="url(#paint1_linear_5833_2)" stroke="#0172C6" stroke-width="2"/>
<path d="M120.808 54.98C120.795 55.2733 120.681 55.52 120.468 55.72C120.268 55.9067 120.028 56 119.748 56C119.441 56 119.188 55.9067 118.988 55.72C118.801 55.52 118.708 55.2733 118.708 54.98V43.02C118.708 42.7267 118.808 42.4867 119.008 42.3C119.208 42.1 119.468 42 119.788 42C120.055 42 120.288 42.1 120.488 42.3C120.701 42.4867 120.808 42.7267 120.808 43.02V54.98ZM129.24 45.24C130.187 45.24 130.92 45.44 131.44 45.84C131.96 46.2267 132.32 46.7533 132.52 47.42C132.733 48.0733 132.84 48.8067 132.84 49.62V54.98C132.84 55.2733 132.74 55.52 132.54 55.72C132.353 55.9067 132.12 56 131.84 56C131.547 56 131.307 55.9067 131.12 55.72C130.933 55.52 130.84 55.2733 130.84 54.98V49.64C130.84 49.16 130.773 48.7333 130.64 48.36C130.507 47.9733 130.273 47.6667 129.94 47.44C129.62 47.2 129.167 47.08 128.58 47.08C128.033 47.08 127.553 47.2 127.14 47.44C126.727 47.6667 126.4 47.9733 126.16 48.36C125.933 48.7333 125.82 49.16 125.82 49.64V54.98C125.82 55.2733 125.72 55.52 125.52 55.72C125.333 55.9067 125.1 56 124.82 56C124.527 56 124.287 55.9067 124.1 55.72C123.913 55.52 123.82 55.2733 123.82 54.98V46.5C123.82 46.2067 123.913 45.9667 124.1 45.78C124.287 45.58 124.527 45.48 124.82 45.48C125.1 45.48 125.333 45.58 125.52 45.78C125.72 45.9667 125.82 46.2067 125.82 46.5V47.62L125.46 47.82C125.553 47.5267 125.713 47.2333 125.94 46.94C126.18 46.6333 126.467 46.3533 126.8 46.1C127.133 45.8333 127.507 45.6267 127.92 45.48C128.333 45.32 128.773 45.24 129.24 45.24ZM135.477 45.6H140.177C140.443 45.6 140.663 45.6933 140.837 45.88C141.023 46.0533 141.117 46.2733 141.117 46.54C141.117 46.7933 141.023 47.0067 140.837 47.18C140.663 47.3533 140.443 47.44 140.177 47.44H135.477C135.21 47.44 134.983 47.3533 134.797 47.18C134.623 46.9933 134.537 46.7733 134.537 46.52C134.537 46.2533 134.623 46.0333 134.797 45.86C134.983 45.6867 135.21 45.6 135.477 45.6ZM137.577 43C137.87 43 138.11 43.1 138.297 43.3C138.483 43.4867 138.577 43.7267 138.577 44.02V53.3C138.577 53.54 138.617 53.7333 138.697 53.88C138.777 54.0267 138.883 54.1267 139.017 54.18C139.163 54.2333 139.31 54.26 139.457 54.26C139.603 54.26 139.73 54.2333 139.837 54.18C139.957 54.1267 140.097 54.1 140.257 54.1C140.417 54.1 140.563 54.1733 140.697 54.32C140.83 54.4667 140.897 54.6667 140.897 54.92C140.897 55.24 140.723 55.5 140.377 55.7C140.03 55.9 139.657 56 139.257 56C139.03 56 138.763 55.98 138.457 55.94C138.15 55.9 137.85 55.8 137.557 55.64C137.277 55.48 137.043 55.2267 136.857 54.88C136.67 54.52 136.577 54.02 136.577 53.38V44.02C136.577 43.7267 136.67 43.4867 136.857 43.3C137.057 43.1 137.297 43 137.577 43ZM151.292 54.04C151.572 54.04 151.805 54.1333 151.992 54.32C152.192 54.5067 152.292 54.74 152.292 55.02C152.292 55.3 152.192 55.5333 151.992 55.72C151.805 55.9067 151.572 56 151.292 56H144.572C144.278 56 144.032 55.9067 143.832 55.72C143.645 55.52 143.552 55.2733 143.552 54.98V43.02C143.552 42.7267 143.652 42.4867 143.852 42.3C144.052 42.1 144.312 42 144.632 42C144.898 42 145.132 42.1 145.332 42.3C145.545 42.4867 145.652 42.7267 145.652 43.02V54.38L145.232 54.04H151.292ZM162.987 45.32C163.28 45.32 163.52 45.42 163.707 45.62C163.893 45.8067 163.987 46.0467 163.987 46.34V54.98C163.987 55.2733 163.893 55.52 163.707 55.72C163.52 55.9067 163.28 56 162.987 56C162.707 56 162.467 55.9067 162.267 55.72C162.08 55.52 161.987 55.2733 161.987 54.98V53.54L162.407 53.6C162.407 53.84 162.307 54.1067 162.107 54.4C161.92 54.6933 161.66 54.98 161.327 55.26C160.993 55.5267 160.6 55.7533 160.147 55.94C159.693 56.1133 159.207 56.2 158.687 56.2C157.767 56.2 156.94 55.9667 156.207 55.5C155.473 55.02 154.893 54.3667 154.467 53.54C154.04 52.7133 153.827 51.7733 153.827 50.72C153.827 49.64 154.04 48.6933 154.467 47.88C154.893 47.0533 155.467 46.4067 156.187 45.94C156.92 45.4733 157.733 45.24 158.627 45.24C159.2 45.24 159.727 45.3333 160.207 45.52C160.7 45.7067 161.127 45.9467 161.487 46.24C161.847 46.5333 162.12 46.8467 162.307 47.18C162.507 47.5 162.607 47.8067 162.607 48.1L161.987 48.16V46.34C161.987 46.06 162.08 45.82 162.267 45.62C162.467 45.42 162.707 45.32 162.987 45.32ZM158.907 54.36C159.533 54.36 160.087 54.2 160.567 53.88C161.047 53.56 161.42 53.1267 161.687 52.58C161.953 52.02 162.087 51.4 162.087 50.72C162.087 50.0267 161.953 49.4067 161.687 48.86C161.42 48.3133 161.047 47.88 160.567 47.56C160.087 47.24 159.533 47.08 158.907 47.08C158.293 47.08 157.747 47.24 157.267 47.56C156.8 47.88 156.427 48.3133 156.147 48.86C155.88 49.4067 155.747 50.0267 155.747 50.72C155.747 51.4 155.88 52.02 156.147 52.58C156.427 53.1267 156.8 53.56 157.267 53.88C157.747 54.2 158.293 54.36 158.907 54.36ZM174.609 45.4C174.902 45.4 175.142 45.5 175.329 45.7C175.515 45.8867 175.609 46.1267 175.609 46.42V55.02C175.609 56.1933 175.382 57.1467 174.929 57.88C174.489 58.6133 173.889 59.1467 173.129 59.48C172.382 59.8267 171.535 60 170.589 60C170.109 60 169.629 59.9533 169.149 59.86C168.669 59.78 168.275 59.66 167.969 59.5C167.649 59.3533 167.422 59.1733 167.289 58.96C167.155 58.7467 167.135 58.5133 167.229 58.26C167.322 57.94 167.482 57.72 167.709 57.6C167.935 57.4933 168.169 57.4867 168.409 57.58C168.635 57.6733 168.935 57.7933 169.309 57.94C169.682 58.0867 170.109 58.16 170.589 58.16C171.242 58.16 171.795 58.0533 172.249 57.84C172.702 57.6267 173.042 57.2933 173.269 56.84C173.509 56.3867 173.629 55.8 173.629 55.08V53.7L173.949 54.18C173.735 54.62 173.455 54.9867 173.109 55.28C172.762 55.5733 172.349 55.8 171.869 55.96C171.402 56.12 170.882 56.2 170.309 56.2C169.575 56.2 168.942 56.04 168.409 55.72C167.889 55.3867 167.489 54.9333 167.209 54.36C166.929 53.7733 166.789 53.1067 166.789 52.36V46.42C166.789 46.1267 166.882 45.8867 167.069 45.7C167.255 45.5 167.495 45.4 167.789 45.4C168.069 45.4 168.302 45.5 168.489 45.7C168.689 45.8867 168.789 46.1267 168.789 46.42V51.82C168.789 52.7 168.982 53.3467 169.369 53.76C169.755 54.16 170.329 54.36 171.089 54.36C171.595 54.36 172.035 54.2533 172.409 54.04C172.782 53.8267 173.075 53.5333 173.289 53.16C173.502 52.7733 173.609 52.3267 173.609 51.82V46.42C173.609 46.1267 173.702 45.8867 173.889 45.7C174.089 45.5 174.329 45.4 174.609 45.4ZM183.212 56.2C182.105 56.2 181.145 55.9733 180.332 55.52C179.519 55.0533 178.885 54.42 178.432 53.62C177.992 52.8067 177.772 51.88 177.772 50.84C177.772 49.6667 178.005 48.6667 178.472 47.84C178.952 47 179.572 46.36 180.332 45.92C181.092 45.4667 181.899 45.24 182.752 45.24C183.405 45.24 184.025 45.3733 184.612 45.64C185.199 45.8933 185.719 46.2533 186.172 46.72C186.639 47.1733 187.005 47.7133 187.272 48.34C187.539 48.9533 187.679 49.6267 187.692 50.36C187.679 50.6267 187.572 50.8467 187.372 51.02C187.172 51.1933 186.939 51.28 186.672 51.28H178.892L178.412 49.58H185.932L185.552 49.94V49.44C185.525 48.9733 185.372 48.5667 185.092 48.22C184.812 47.86 184.465 47.5867 184.052 47.4C183.639 47.2 183.205 47.1 182.752 47.1C182.352 47.1 181.965 47.1667 181.592 47.3C181.232 47.42 180.905 47.62 180.612 47.9C180.332 48.18 180.105 48.5533 179.932 49.02C179.772 49.4733 179.692 50.04 179.692 50.72C179.692 51.4533 179.845 52.0933 180.152 52.64C180.459 53.1867 180.872 53.6133 181.392 53.92C181.912 54.2133 182.485 54.36 183.112 54.36C183.605 54.36 184.012 54.3133 184.332 54.22C184.652 54.1133 184.919 53.9867 185.132 53.84C185.345 53.6933 185.532 53.5533 185.692 53.42C185.892 53.3 186.092 53.24 186.292 53.24C186.532 53.24 186.732 53.3267 186.892 53.5C187.052 53.66 187.132 53.8533 187.132 54.08C187.132 54.3733 186.985 54.64 186.692 54.88C186.332 55.2267 185.832 55.5333 185.192 55.8C184.565 56.0667 183.905 56.2 183.212 56.2ZM190.953 56C190.659 56 190.419 55.9067 190.233 55.72C190.046 55.52 189.953 55.2733 189.953 54.98V46.5C189.953 46.2067 190.046 45.9667 190.233 45.78C190.419 45.58 190.659 45.48 190.953 45.48C191.233 45.48 191.466 45.58 191.653 45.78C191.853 45.9667 191.953 46.2067 191.953 46.5V48.74L191.753 47.88C191.859 47.5067 192.019 47.16 192.233 46.84C192.459 46.52 192.726 46.24 193.033 46C193.339 45.76 193.679 45.5733 194.053 45.44C194.439 45.3067 194.839 45.24 195.253 45.24C195.599 45.24 195.899 45.3333 196.153 45.52C196.406 45.7067 196.533 45.94 196.533 46.22C196.533 46.58 196.439 46.8467 196.253 47.02C196.066 47.18 195.859 47.26 195.633 47.26C195.433 47.26 195.239 47.22 195.053 47.14C194.866 47.0467 194.646 47 194.393 47C194.113 47 193.826 47.0733 193.533 47.22C193.239 47.3667 192.973 47.5867 192.733 47.88C192.493 48.16 192.299 48.4933 192.153 48.88C192.019 49.2667 191.953 49.7 191.953 50.18V54.98C191.953 55.2733 191.853 55.52 191.653 55.72C191.466 55.9067 191.233 56 190.953 56Z" fill="#2E2E2E"/>
<path d="M122 110C122 109.448 121.552 109 121 109C120.448 109 120 109.448 120 110H122ZM120.293 180.707C120.683 181.098 121.317 181.098 121.707 180.707L128.071 174.343C128.462 173.953 128.462 173.319 128.071 172.929C127.681 172.538 127.047 172.538 126.657 172.929L121 178.586L115.343 172.929C114.953 172.538 114.319 172.538 113.929 172.929C113.538 173.319 113.538 173.953 113.929 174.343L120.293 180.707ZM122 180V177.083H120V180H122ZM122 171.25V165.417H120V171.25H122ZM122 159.583V153.75H120V159.583H122ZM122 147.917V142.083H120V147.917H122ZM122 136.25V130.417H120V136.25H122ZM122 124.583V118.75H120V124.583H122ZM122 112.917V110H120V112.917H122Z" fill="#0172C6"/>
<path d="M192 180C192 180.552 191.552 181 191 181C190.448 181 190 180.552 190 180H192ZM190.293 109.293C190.683 108.902 191.317 108.902 191.707 109.293L198.071 115.657C198.462 116.047 198.462 116.681 198.071 117.071C197.681 117.462 197.047 117.462 196.657 117.071L191 111.414L185.343 117.071C184.953 117.462 184.319 117.462 183.929 117.071C183.538 116.681 183.538 116.047 183.929 115.657L190.293 109.293ZM192 110V112.917H190V110H192ZM192 118.75V124.583H190V118.75H192ZM192 130.417V136.25H190V130.417H192ZM192 142.083V147.917H190V142.083H192ZM192 153.75V159.583H190V153.75H192ZM192 165.417V171.25H190V165.417H192ZM192 177.083V180H190V177.083H192Z" fill="#0172C6"/>
<path d="M7.32227 130.692C7.48093 130.692 7.6116 130.748 7.71427 130.86C7.82627 130.963 7.88227 131.093 7.88227 131.252V137.426C7.88227 137.585 7.82627 137.72 7.71427 137.832C7.6116 137.944 7.48093 138 7.32227 138C7.15427 138 7.01893 137.944 6.91627 137.832C6.8136 137.72 6.76227 137.585 6.76227 137.426V136.096L7.02827 136.068C7.02827 136.273 6.95827 136.497 6.81827 136.74C6.67827 136.983 6.48693 137.211 6.24427 137.426C6.0016 137.631 5.71227 137.804 5.37627 137.944C5.0496 138.075 4.69493 138.14 4.31227 138.14C3.6776 138.14 3.10827 137.977 2.60427 137.65C2.10027 137.314 1.69893 136.861 1.40027 136.292C1.11093 135.723 0.966266 135.074 0.966266 134.346C0.966266 133.609 1.11093 132.96 1.40027 132.4C1.69893 131.831 2.10027 131.387 2.60427 131.07C3.10827 130.743 3.66827 130.58 4.28427 130.58C4.6856 130.58 5.05893 130.645 5.40427 130.776C5.7496 130.907 6.04827 131.084 6.30027 131.308C6.5616 131.532 6.76227 131.779 6.90227 132.05C7.0516 132.321 7.12627 132.591 7.12627 132.862L6.76227 132.778V131.252C6.76227 131.093 6.8136 130.963 6.91627 130.86C7.01893 130.748 7.15427 130.692 7.32227 130.692ZM4.43827 137.104C4.90493 137.104 5.3156 136.983 5.67027 136.74C6.03427 136.497 6.31427 136.171 6.51027 135.76C6.7156 135.34 6.81827 134.869 6.81827 134.346C6.81827 133.833 6.7156 133.371 6.51027 132.96C6.31427 132.54 6.03427 132.213 5.67027 131.98C5.3156 131.737 4.90493 131.616 4.43827 131.616C3.98093 131.616 3.57027 131.733 3.20627 131.966C2.8516 132.199 2.5716 132.521 2.36627 132.932C2.16093 133.343 2.05827 133.814 2.05827 134.346C2.05827 134.869 2.15627 135.34 2.35227 135.76C2.5576 136.171 2.8376 136.497 3.19227 136.74C3.55627 136.983 3.9716 137.104 4.43827 137.104ZM15.2392 130.762C15.4072 130.762 15.5425 130.818 15.6452 130.93C15.7478 131.033 15.7992 131.163 15.7992 131.322V135.144C15.7992 136.087 15.5332 136.819 15.0012 137.342C14.4785 137.855 13.7458 138.112 12.8032 138.112C11.8698 138.112 11.1372 137.855 10.6052 137.342C10.0825 136.819 9.82116 136.087 9.82116 135.144V131.322C9.82116 131.163 9.87249 131.033 9.97516 130.93C10.0872 130.818 10.2225 130.762 10.3812 130.762C10.5492 130.762 10.6845 130.818 10.7872 130.93C10.8898 131.033 10.9412 131.163 10.9412 131.322V135.144C10.9412 135.779 11.1045 136.259 11.4312 136.586C11.7578 136.913 12.2152 137.076 12.8032 137.076C13.4098 137.076 13.8718 136.913 14.1892 136.586C14.5158 136.259 14.6792 135.779 14.6792 135.144V131.322C14.6792 131.163 14.7305 131.033 14.8332 130.93C14.9452 130.818 15.0805 130.762 15.2392 130.762ZM17.5939 130.804H20.8839C21.0332 130.804 21.1546 130.855 21.2479 130.958C21.3506 131.061 21.4019 131.182 21.4019 131.322C21.4019 131.471 21.3506 131.597 21.2479 131.7C21.1546 131.793 21.0332 131.84 20.8839 131.84H17.5939C17.4539 131.84 17.3326 131.789 17.2299 131.686C17.1272 131.583 17.0759 131.457 17.0759 131.308C17.0759 131.168 17.1272 131.051 17.2299 130.958C17.3326 130.855 17.4539 130.804 17.5939 130.804ZM19.0639 128.9C19.2226 128.9 19.3532 128.956 19.4559 129.068C19.5586 129.171 19.6099 129.301 19.6099 129.46V136.222C19.6099 136.446 19.6426 136.614 19.7079 136.726C19.7732 136.838 19.8572 136.917 19.9599 136.964C20.0719 137.001 20.1792 137.02 20.2819 137.02C20.3752 137.02 20.4546 137.006 20.5199 136.978C20.5946 136.941 20.6786 136.922 20.7719 136.922C20.8652 136.922 20.9492 136.969 21.0239 137.062C21.1079 137.146 21.1499 137.258 21.1499 137.398C21.1499 137.566 21.0519 137.711 20.8559 137.832C20.6599 137.944 20.4406 138 20.1979 138C20.0672 138 19.9039 137.991 19.7079 137.972C19.5212 137.953 19.3346 137.893 19.1479 137.79C18.9612 137.687 18.8026 137.519 18.6719 137.286C18.5506 137.043 18.4899 136.707 18.4899 136.278V129.46C18.4899 129.301 18.5459 129.171 18.6579 129.068C18.7699 128.956 18.9052 128.9 19.0639 128.9ZM29.7655 134.36C29.7655 135.088 29.6021 135.737 29.2755 136.306C28.9581 136.875 28.5241 137.323 27.9735 137.65C27.4321 137.977 26.8208 138.14 26.1395 138.14C25.4581 138.14 24.8421 137.977 24.2915 137.65C23.7408 137.323 23.3021 136.875 22.9755 136.306C22.6581 135.737 22.4995 135.088 22.4995 134.36C22.4995 133.632 22.6581 132.983 22.9755 132.414C23.3021 131.845 23.7408 131.397 24.2915 131.07C24.8421 130.743 25.4581 130.58 26.1395 130.58C26.8208 130.58 27.4321 130.743 27.9735 131.07C28.5241 131.397 28.9581 131.845 29.2755 132.414C29.6021 132.983 29.7655 133.632 29.7655 134.36ZM28.6455 134.36C28.6455 133.819 28.5335 133.343 28.3095 132.932C28.0948 132.521 27.7961 132.199 27.4135 131.966C27.0401 131.733 26.6155 131.616 26.1395 131.616C25.6635 131.616 25.2341 131.733 24.8515 131.966C24.4781 132.199 24.1795 132.521 23.9555 132.932C23.7315 133.343 23.6195 133.819 23.6195 134.36C23.6195 134.892 23.7315 135.363 23.9555 135.774C24.1795 136.185 24.4781 136.511 24.8515 136.754C25.2341 136.987 25.6635 137.104 26.1395 137.104C26.6155 137.104 27.0401 136.987 27.4135 136.754C27.7961 136.511 28.0948 136.185 28.3095 135.774C28.5335 135.363 28.6455 134.892 28.6455 134.36ZM31.7441 134.206C31.5854 134.206 31.4501 134.155 31.3381 134.052C31.2354 133.94 31.1841 133.8 31.1841 133.632C31.1841 133.473 31.2354 133.343 31.3381 133.24C31.4501 133.137 31.5854 133.086 31.7441 133.086H34.5721C34.7307 133.086 34.8614 133.142 34.9641 133.254C35.0761 133.366 35.1321 133.501 35.1321 133.66C35.1321 133.819 35.0761 133.949 34.9641 134.052C34.8614 134.155 34.7307 134.206 34.5721 134.206H31.7441ZM42.8965 127.64C43.0552 127.64 43.1858 127.696 43.2885 127.808C43.4005 127.911 43.4565 128.041 43.4565 128.2V137.426C43.4565 137.585 43.4005 137.72 43.2885 137.832C43.1858 137.944 43.0552 138 42.8965 138C42.7285 138 42.5932 137.944 42.4905 137.832C42.3878 137.72 42.3365 137.585 42.3365 137.426V136.096L42.6025 135.998C42.6025 136.222 42.5325 136.46 42.3925 136.712C42.2525 136.955 42.0612 137.183 41.8185 137.398C41.5758 137.613 41.2865 137.79 40.9505 137.93C40.6238 138.07 40.2692 138.14 39.8865 138.14C39.2612 138.14 38.6918 137.977 38.1785 137.65C37.6745 137.323 37.2732 136.875 36.9745 136.306C36.6852 135.737 36.5405 135.088 36.5405 134.36C36.5405 133.623 36.6852 132.969 36.9745 132.4C37.2732 131.831 37.6745 131.387 38.1785 131.07C38.6825 130.743 39.2425 130.58 39.8585 130.58C40.2505 130.58 40.6192 130.645 40.9645 130.776C41.3098 130.907 41.6085 131.084 41.8605 131.308C42.1218 131.532 42.3272 131.779 42.4765 132.05C42.6258 132.321 42.7005 132.591 42.7005 132.862L42.3365 132.778V128.2C42.3365 128.041 42.3878 127.911 42.4905 127.808C42.5932 127.696 42.7285 127.64 42.8965 127.64ZM40.0125 137.104C40.4792 137.104 40.8898 136.987 41.2445 136.754C41.6085 136.511 41.8885 136.185 42.0845 135.774C42.2898 135.354 42.3925 134.883 42.3925 134.36C42.3925 133.828 42.2898 133.357 42.0845 132.946C41.8885 132.535 41.6085 132.213 41.2445 131.98C40.8898 131.737 40.4792 131.616 40.0125 131.616C39.5552 131.616 39.1445 131.737 38.7805 131.98C38.4258 132.213 38.1458 132.535 37.9405 132.946C37.7352 133.357 37.6325 133.828 37.6325 134.36C37.6325 134.873 37.7352 135.34 37.9405 135.76C38.1458 136.171 38.4258 136.497 38.7805 136.74C39.1445 136.983 39.5552 137.104 40.0125 137.104ZM48.8781 138.14C48.1314 138.14 47.4781 137.981 46.9181 137.664C46.3581 137.347 45.9194 136.913 45.6021 136.362C45.2941 135.802 45.1401 135.158 45.1401 134.43C45.1401 133.618 45.2988 132.927 45.6161 132.358C45.9428 131.779 46.3628 131.341 46.8761 131.042C47.3988 130.734 47.9494 130.58 48.5281 130.58C48.9574 130.58 49.3728 130.659 49.7741 130.818C50.1754 130.977 50.5301 131.21 50.8381 131.518C51.1461 131.817 51.3934 132.181 51.5801 132.61C51.7668 133.03 51.8648 133.501 51.8741 134.024C51.8741 134.173 51.8181 134.299 51.7061 134.402C51.5941 134.505 51.4634 134.556 51.3141 134.556H45.7841L45.5321 133.59H50.9221L50.6981 133.786V133.478C50.6608 133.095 50.5301 132.769 50.3061 132.498C50.0914 132.218 49.8254 132.003 49.5081 131.854C49.2001 131.705 48.8734 131.63 48.5281 131.63C48.2481 131.63 47.9681 131.681 47.6881 131.784C47.4174 131.877 47.1701 132.036 46.9461 132.26C46.7314 132.475 46.5541 132.755 46.4141 133.1C46.2834 133.445 46.2181 133.861 46.2181 134.346C46.2181 134.887 46.3254 135.363 46.5401 135.774C46.7641 136.185 47.0721 136.511 47.4641 136.754C47.8561 136.987 48.3134 137.104 48.8361 137.104C49.1628 137.104 49.4474 137.062 49.6901 136.978C49.9328 136.894 50.1428 136.791 50.3201 136.67C50.4974 136.539 50.6468 136.409 50.7681 136.278C50.8894 136.194 51.0061 136.152 51.1181 136.152C51.2581 136.152 51.3701 136.199 51.4541 136.292C51.5474 136.385 51.5941 136.497 51.5941 136.628C51.5941 136.787 51.5194 136.927 51.3701 137.048C51.1088 137.337 50.7541 137.594 50.3061 137.818C49.8581 138.033 49.3821 138.14 48.8781 138.14ZM57.1275 130.65C57.7622 130.65 58.3315 130.809 58.8355 131.126C59.3395 131.443 59.7362 131.882 60.0255 132.442C60.3242 133.002 60.4735 133.646 60.4735 134.374C60.4735 135.093 60.3242 135.737 60.0255 136.306C59.7362 136.866 59.3395 137.309 58.8355 137.636C58.3408 137.953 57.7808 138.112 57.1555 138.112C56.8102 138.112 56.4835 138.061 56.1755 137.958C55.8768 137.846 55.6015 137.706 55.3495 137.538C55.1068 137.361 54.9015 137.165 54.7335 136.95C54.5655 136.726 54.4442 136.507 54.3695 136.292L54.6775 136.096V140.226C54.6775 140.385 54.6262 140.52 54.5235 140.632C54.4208 140.744 54.2855 140.8 54.1175 140.8C53.9588 140.8 53.8235 140.744 53.7115 140.632C53.6088 140.529 53.5575 140.394 53.5575 140.226V131.28C53.5575 131.121 53.6088 130.991 53.7115 130.888C53.8235 130.776 53.9588 130.72 54.1175 130.72C54.2855 130.72 54.4208 130.776 54.5235 130.888C54.6262 130.991 54.6775 131.121 54.6775 131.28V132.526L54.4675 132.414C54.5328 132.181 54.6448 131.957 54.8035 131.742C54.9715 131.527 55.1722 131.341 55.4055 131.182C55.6482 131.014 55.9142 130.883 56.2035 130.79C56.5022 130.697 56.8102 130.65 57.1275 130.65ZM57.0015 131.686C56.5348 131.686 56.1195 131.803 55.7555 132.036C55.4008 132.269 55.1208 132.587 54.9155 132.988C54.7195 133.389 54.6215 133.851 54.6215 134.374C54.6215 134.887 54.7195 135.349 54.9155 135.76C55.1208 136.171 55.4008 136.493 55.7555 136.726C56.1195 136.959 56.5348 137.076 57.0015 137.076C57.4682 137.076 57.8788 136.959 58.2335 136.726C58.5882 136.493 58.8682 136.171 59.0735 135.76C59.2788 135.349 59.3815 134.887 59.3815 134.374C59.3815 133.851 59.2788 133.389 59.0735 132.988C58.8682 132.587 58.5882 132.269 58.2335 132.036C57.8788 131.803 57.4682 131.686 57.0015 131.686ZM63.3891 137.426C63.3891 137.585 63.3331 137.72 63.2211 137.832C63.1091 137.944 62.9738 138 62.8151 138C62.6564 138 62.5258 137.944 62.4231 137.832C62.3204 137.72 62.2691 137.585 62.2691 137.426V128.2C62.2691 128.041 62.3204 127.911 62.4231 127.808C62.5351 127.696 62.6704 127.64 62.8291 127.64C62.9971 127.64 63.1324 127.696 63.2351 127.808C63.3378 127.911 63.3891 128.041 63.3891 128.2V137.426ZM72.2987 134.36C72.2987 135.088 72.1353 135.737 71.8087 136.306C71.4913 136.875 71.0573 137.323 70.5067 137.65C69.9653 137.977 69.354 138.14 68.6727 138.14C67.9913 138.14 67.3753 137.977 66.8247 137.65C66.274 137.323 65.8353 136.875 65.5087 136.306C65.1913 135.737 65.0327 135.088 65.0327 134.36C65.0327 133.632 65.1913 132.983 65.5087 132.414C65.8353 131.845 66.274 131.397 66.8247 131.07C67.3753 130.743 67.9913 130.58 68.6727 130.58C69.354 130.58 69.9653 130.743 70.5067 131.07C71.0573 131.397 71.4913 131.845 71.8087 132.414C72.1353 132.983 72.2987 133.632 72.2987 134.36ZM71.1787 134.36C71.1787 133.819 71.0667 133.343 70.8427 132.932C70.628 132.521 70.3293 132.199 69.9467 131.966C69.5733 131.733 69.1487 131.616 68.6727 131.616C68.1967 131.616 67.7673 131.733 67.3847 131.966C67.0113 132.199 66.7127 132.521 66.4887 132.932C66.2647 133.343 66.1527 133.819 66.1527 134.36C66.1527 134.892 66.2647 135.363 66.4887 135.774C66.7127 136.185 67.0113 136.511 67.3847 136.754C67.7673 136.987 68.1967 137.104 68.6727 137.104C69.1487 137.104 69.5733 136.987 69.9467 136.754C70.3293 136.511 70.628 136.185 70.8427 135.774C71.0667 135.363 71.1787 134.892 71.1787 134.36ZM79.4013 130.65C79.5599 130.65 79.6906 130.706 79.7933 130.818C79.9053 130.921 79.9613 131.051 79.9613 131.21V137.314C79.9613 138.098 79.8073 138.747 79.4993 139.26C79.1913 139.783 78.7759 140.17 78.2533 140.422C77.7399 140.674 77.1566 140.8 76.5033 140.8C76.1393 140.8 75.7893 140.763 75.4533 140.688C75.1173 140.613 74.8419 140.515 74.6273 140.394C74.4499 140.31 74.3239 140.203 74.2493 140.072C74.1839 139.951 74.1746 139.82 74.2213 139.68C74.2866 139.512 74.3799 139.395 74.5013 139.33C74.6319 139.265 74.7673 139.265 74.9073 139.33C75.0566 139.395 75.2713 139.484 75.5513 139.596C75.8406 139.717 76.1626 139.778 76.5173 139.778C77.0026 139.778 77.4179 139.685 77.7633 139.498C78.1086 139.311 78.3746 139.036 78.5613 138.672C78.7479 138.317 78.8413 137.874 78.8413 137.342V136.348L79.0093 136.698C78.8599 136.987 78.6593 137.239 78.4073 137.454C78.1553 137.669 77.8659 137.837 77.5393 137.958C77.2126 138.079 76.8533 138.14 76.4613 138.14C75.9293 138.14 75.4766 138.028 75.1033 137.804C74.7393 137.571 74.4593 137.253 74.2633 136.852C74.0766 136.441 73.9833 135.97 73.9833 135.438V131.21C73.9833 131.051 74.0346 130.921 74.1373 130.818C74.2493 130.706 74.3846 130.65 74.5433 130.65C74.7113 130.65 74.8466 130.706 74.9493 130.818C75.0519 130.921 75.1033 131.051 75.1033 131.21V135.186C75.1033 135.821 75.2433 136.301 75.5233 136.628C75.8033 136.945 76.2373 137.104 76.8253 137.104C77.1986 137.104 77.5346 137.02 77.8333 136.852C78.1413 136.684 78.3839 136.455 78.5613 136.166C78.7479 135.867 78.8413 135.541 78.8413 135.186V131.21C78.8413 131.051 78.8926 130.921 78.9953 130.818C79.0979 130.706 79.2333 130.65 79.4013 130.65ZM34.2295 152.2C34.9108 152.2 35.5082 152.331 36.0215 152.592C36.5442 152.844 36.9782 153.199 37.3235 153.656C37.6688 154.113 37.9255 154.641 38.0935 155.238C38.2708 155.826 38.3595 156.447 38.3595 157.1C38.3595 157.996 38.2055 158.817 37.8975 159.564C37.5895 160.301 37.1322 160.894 36.5255 161.342C35.9188 161.781 35.1535 162 34.2295 162H30.7295C30.5708 162 30.4355 161.944 30.3235 161.832C30.2208 161.72 30.1695 161.585 30.1695 161.426V152.76C30.1695 152.601 30.2208 152.471 30.3235 152.368C30.4355 152.256 30.5708 152.2 30.7295 152.2H34.2295ZM34.0895 160.908C34.8082 160.908 35.3915 160.735 35.8395 160.39C36.2968 160.045 36.6282 159.583 36.8335 159.004C37.0482 158.425 37.1555 157.791 37.1555 157.1C37.1555 156.596 37.0948 156.115 36.9735 155.658C36.8615 155.191 36.6795 154.781 36.4275 154.426C36.1848 154.071 35.8675 153.791 35.4755 153.586C35.0928 153.381 34.6308 153.278 34.0895 153.278H31.2195L31.3315 153.166V161.048L31.2475 160.908H34.0895ZM41.3803 161.426C41.3803 161.585 41.3197 161.72 41.1983 161.832C41.0863 161.944 40.951 162 40.7923 162C40.615 162 40.475 161.944 40.3723 161.832C40.2697 161.72 40.2183 161.585 40.2183 161.426V152.774C40.2183 152.606 40.2743 152.471 40.3863 152.368C40.4983 152.256 40.6383 152.2 40.8063 152.2C40.965 152.2 41.1003 152.256 41.2123 152.368C41.3243 152.471 41.3803 152.606 41.3803 152.774V161.426ZM47.2208 154.804H50.5108C50.6602 154.804 50.7815 154.855 50.8748 154.958C50.9775 155.061 51.0288 155.182 51.0288 155.322C51.0288 155.471 50.9775 155.597 50.8748 155.7C50.7815 155.793 50.6602 155.84 50.5108 155.84H47.2208C47.0808 155.84 46.9595 155.789 46.8568 155.686C46.7542 155.583 46.7028 155.457 46.7028 155.308C46.7028 155.168 46.7542 155.051 46.8568 154.958C46.9595 154.855 47.0808 154.804 47.2208 154.804ZM48.6908 152.9C48.8495 152.9 48.9802 152.956 49.0828 153.068C49.1855 153.171 49.2368 153.301 49.2368 153.46V160.222C49.2368 160.446 49.2695 160.614 49.3348 160.726C49.4002 160.838 49.4842 160.917 49.5868 160.964C49.6988 161.001 49.8062 161.02 49.9088 161.02C50.0022 161.02 50.0815 161.006 50.1468 160.978C50.2215 160.941 50.3055 160.922 50.3988 160.922C50.4922 160.922 50.5762 160.969 50.6508 161.062C50.7348 161.146 50.7768 161.258 50.7768 161.398C50.7768 161.566 50.6788 161.711 50.4828 161.832C50.2868 161.944 50.0675 162 49.8248 162C49.6942 162 49.5308 161.991 49.3348 161.972C49.1482 161.953 48.9615 161.893 48.7748 161.79C48.5882 161.687 48.4295 161.519 48.2988 161.286C48.1775 161.043 48.1168 160.707 48.1168 160.278V153.46C48.1168 153.301 48.1728 153.171 48.2848 153.068C48.3968 152.956 48.5322 152.9 48.6908 152.9ZM58.5508 154.692C58.7094 154.692 58.8401 154.748 58.9428 154.86C59.0548 154.963 59.1108 155.093 59.1108 155.252V161.426C59.1108 161.585 59.0548 161.72 58.9428 161.832C58.8401 161.944 58.7094 162 58.5508 162C58.3828 162 58.2474 161.944 58.1448 161.832C58.0421 161.72 57.9908 161.585 57.9908 161.426V160.096L58.2568 160.068C58.2568 160.273 58.1868 160.497 58.0468 160.74C57.9068 160.983 57.7154 161.211 57.4728 161.426C57.2301 161.631 56.9408 161.804 56.6048 161.944C56.2781 162.075 55.9234 162.14 55.5408 162.14C54.9061 162.14 54.3368 161.977 53.8328 161.65C53.3288 161.314 52.9274 160.861 52.6288 160.292C52.3394 159.723 52.1948 159.074 52.1948 158.346C52.1948 157.609 52.3394 156.96 52.6288 156.4C52.9274 155.831 53.3288 155.387 53.8328 155.07C54.3368 154.743 54.8968 154.58 55.5128 154.58C55.9141 154.58 56.2874 154.645 56.6328 154.776C56.9781 154.907 57.2768 155.084 57.5288 155.308C57.7901 155.532 57.9908 155.779 58.1308 156.05C58.2801 156.321 58.3548 156.591 58.3548 156.862L57.9908 156.778V155.252C57.9908 155.093 58.0421 154.963 58.1448 154.86C58.2474 154.748 58.3828 154.692 58.5508 154.692ZM55.6668 161.104C56.1334 161.104 56.5441 160.983 56.8988 160.74C57.2628 160.497 57.5428 160.171 57.7388 159.76C57.9441 159.34 58.0468 158.869 58.0468 158.346C58.0468 157.833 57.9441 157.371 57.7388 156.96C57.5428 156.54 57.2628 156.213 56.8988 155.98C56.5441 155.737 56.1334 155.616 55.6668 155.616C55.2094 155.616 54.7988 155.733 54.4348 155.966C54.0801 156.199 53.8001 156.521 53.5948 156.932C53.3894 157.343 53.2868 157.814 53.2868 158.346C53.2868 158.869 53.3848 159.34 53.5808 159.76C53.7861 160.171 54.0661 160.497 54.4208 160.74C54.7848 160.983 55.2001 161.104 55.6668 161.104ZM60.7804 160.852C60.6964 160.731 60.6591 160.605 60.6684 160.474C60.6777 160.334 60.7571 160.213 60.9064 160.11C60.9997 160.045 61.1071 160.017 61.2284 160.026C61.3591 160.035 61.4757 160.096 61.5784 160.208C61.8397 160.516 62.1384 160.763 62.4744 160.95C62.8104 161.127 63.2211 161.216 63.7064 161.216C63.9304 161.207 64.1544 161.169 64.3784 161.104C64.6024 161.039 64.7891 160.927 64.9384 160.768C65.0971 160.6 65.1764 160.381 65.1764 160.11C65.1764 159.849 65.0971 159.643 64.9384 159.494C64.7797 159.335 64.5744 159.209 64.3224 159.116C64.0704 159.013 63.7951 158.925 63.4964 158.85C63.1884 158.766 62.8851 158.673 62.5864 158.57C62.2877 158.458 62.0171 158.323 61.7744 158.164C61.5411 157.996 61.3497 157.791 61.2004 157.548C61.0604 157.296 60.9904 156.993 60.9904 156.638C60.9904 156.218 61.1024 155.854 61.3264 155.546C61.5597 155.238 61.8677 155 62.2504 154.832C62.6424 154.664 63.0671 154.58 63.5244 154.58C63.7857 154.58 64.0564 154.613 64.3364 154.678C64.6257 154.734 64.9057 154.837 65.1764 154.986C65.4471 155.126 65.6851 155.322 65.8904 155.574C65.9744 155.667 66.0211 155.784 66.0304 155.924C66.0397 156.064 65.9791 156.19 65.8484 156.302C65.7457 156.377 65.6291 156.409 65.4984 156.4C65.3771 156.391 65.2744 156.344 65.1904 156.26C64.9944 156.027 64.7471 155.849 64.4484 155.728C64.1591 155.597 63.8371 155.532 63.4824 155.532C63.2584 155.532 63.0391 155.565 62.8244 155.63C62.6097 155.695 62.4277 155.807 62.2784 155.966C62.1384 156.115 62.0684 156.325 62.0684 156.596C62.0777 156.848 62.1617 157.053 62.3204 157.212C62.4791 157.371 62.6937 157.501 62.9644 157.604C63.2351 157.697 63.5337 157.791 63.8604 157.884C64.1591 157.959 64.4437 158.047 64.7144 158.15C64.9944 158.243 65.2464 158.369 65.4704 158.528C65.6944 158.687 65.8717 158.892 66.0024 159.144C66.1331 159.387 66.1984 159.695 66.1984 160.068C66.1984 160.497 66.0771 160.871 65.8344 161.188C65.5917 161.496 65.2697 161.734 64.8684 161.902C64.4764 162.061 64.0517 162.14 63.5944 162.14C63.0811 162.14 62.5724 162.042 62.0684 161.846C61.5737 161.65 61.1444 161.319 60.7804 160.852ZM68.4893 162C68.3213 162 68.1859 161.944 68.0833 161.832C67.9806 161.72 67.9293 161.585 67.9293 161.426V152.2C67.9293 152.041 67.9806 151.911 68.0833 151.808C68.1859 151.696 68.3213 151.64 68.4893 151.64C68.6479 151.64 68.7786 151.696 68.8813 151.808C68.9933 151.911 69.0493 152.041 69.0493 152.2V161.426C69.0493 161.585 68.9933 161.72 68.8813 161.832C68.7786 161.944 68.6479 162 68.4893 162ZM73.1373 154.72C73.2866 154.72 73.4126 154.781 73.5153 154.902C73.6273 155.014 73.6833 155.131 73.6833 155.252C73.6833 155.411 73.6086 155.551 73.4593 155.672L68.9233 159.634L68.8813 158.332L72.7453 154.888C72.8573 154.776 72.9879 154.72 73.1373 154.72ZM73.2913 161.986C73.1326 161.986 72.9926 161.925 72.8713 161.804L69.8893 158.626L70.7293 157.856L73.6833 161.02C73.7953 161.141 73.8512 161.281 73.8512 161.44C73.8512 161.608 73.7859 161.743 73.6553 161.846C73.5246 161.939 73.4033 161.986 73.2913 161.986ZM74.9991 160.852C74.9151 160.731 74.8778 160.605 74.8871 160.474C74.8965 160.334 74.9758 160.213 75.1251 160.11C75.2185 160.045 75.3258 160.017 75.4471 160.026C75.5778 160.035 75.6945 160.096 75.7971 160.208C76.0585 160.516 76.3571 160.763 76.6931 160.95C77.0291 161.127 77.4398 161.216 77.9251 161.216C78.1491 161.207 78.3731 161.169 78.5971 161.104C78.8211 161.039 79.0078 160.927 79.1571 160.768C79.3158 160.6 79.3951 160.381 79.3951 160.11C79.3951 159.849 79.3158 159.643 79.1571 159.494C78.9985 159.335 78.7931 159.209 78.5411 159.116C78.2891 159.013 78.0138 158.925 77.7151 158.85C77.4071 158.766 77.1038 158.673 76.8051 158.57C76.5065 158.458 76.2358 158.323 75.9931 158.164C75.7598 157.996 75.5685 157.791 75.4191 157.548C75.2791 157.296 75.2091 156.993 75.2091 156.638C75.2091 156.218 75.3211 155.854 75.5451 155.546C75.7785 155.238 76.0865 155 76.4691 154.832C76.8611 154.664 77.2858 154.58 77.7431 154.58C78.0045 154.58 78.2751 154.613 78.5551 154.678C78.8445 154.734 79.1245 154.837 79.3951 154.986C79.6658 155.126 79.9038 155.322 80.1091 155.574C80.1931 155.667 80.2398 155.784 80.2491 155.924C80.2585 156.064 80.1978 156.19 80.0671 156.302C79.9645 156.377 79.8478 156.409 79.7171 156.4C79.5958 156.391 79.4931 156.344 79.4091 156.26C79.2131 156.027 78.9658 155.849 78.6671 155.728C78.3778 155.597 78.0558 155.532 77.7011 155.532C77.4771 155.532 77.2578 155.565 77.0431 155.63C76.8285 155.695 76.6465 155.807 76.4971 155.966C76.3571 156.115 76.2871 156.325 76.2871 156.596C76.2965 156.848 76.3805 157.053 76.5391 157.212C76.6978 157.371 76.9125 157.501 77.1831 157.604C77.4538 157.697 77.7525 157.791 78.0791 157.884C78.3778 157.959 78.6625 158.047 78.9331 158.15C79.2131 158.243 79.4651 158.369 79.6891 158.528C79.9131 158.687 80.0905 158.892 80.2211 159.144C80.3518 159.387 80.4171 159.695 80.4171 160.068C80.4171 160.497 80.2958 160.871 80.0531 161.188C79.8105 161.496 79.4885 161.734 79.0871 161.902C78.6951 162.061 78.2705 162.14 77.8131 162.14C77.2998 162.14 76.7911 162.042 76.2871 161.846C75.7925 161.65 75.3631 161.319 74.9991 160.852Z" fill="#2E2E2E"/>
<path d="M231.63 136.852C231.546 136.731 231.509 136.605 231.518 136.474C231.527 136.334 231.607 136.213 231.756 136.11C231.849 136.045 231.957 136.017 232.078 136.026C232.209 136.035 232.325 136.096 232.428 136.208C232.689 136.516 232.988 136.763 233.324 136.95C233.66 137.127 234.071 137.216 234.556 137.216C234.78 137.207 235.004 137.169 235.228 137.104C235.452 137.039 235.639 136.927 235.788 136.768C235.947 136.6 236.026 136.381 236.026 136.11C236.026 135.849 235.947 135.643 235.788 135.494C235.629 135.335 235.424 135.209 235.172 135.116C234.92 135.013 234.645 134.925 234.346 134.85C234.038 134.766 233.735 134.673 233.436 134.57C233.137 134.458 232.867 134.323 232.624 134.164C232.391 133.996 232.199 133.791 232.05 133.548C231.91 133.296 231.84 132.993 231.84 132.638C231.84 132.218 231.952 131.854 232.176 131.546C232.409 131.238 232.717 131 233.1 130.832C233.492 130.664 233.917 130.58 234.374 130.58C234.635 130.58 234.906 130.613 235.186 130.678C235.475 130.734 235.755 130.837 236.026 130.986C236.297 131.126 236.535 131.322 236.74 131.574C236.824 131.667 236.871 131.784 236.88 131.924C236.889 132.064 236.829 132.19 236.698 132.302C236.595 132.377 236.479 132.409 236.348 132.4C236.227 132.391 236.124 132.344 236.04 132.26C235.844 132.027 235.597 131.849 235.298 131.728C235.009 131.597 234.687 131.532 234.332 131.532C234.108 131.532 233.889 131.565 233.674 131.63C233.459 131.695 233.277 131.807 233.128 131.966C232.988 132.115 232.918 132.325 232.918 132.596C232.927 132.848 233.011 133.053 233.17 133.212C233.329 133.371 233.543 133.501 233.814 133.604C234.085 133.697 234.383 133.791 234.71 133.884C235.009 133.959 235.293 134.047 235.564 134.15C235.844 134.243 236.096 134.369 236.32 134.528C236.544 134.687 236.721 134.892 236.852 135.144C236.983 135.387 237.048 135.695 237.048 136.068C237.048 136.497 236.927 136.871 236.684 137.188C236.441 137.496 236.119 137.734 235.718 137.902C235.326 138.061 234.901 138.14 234.444 138.14C233.931 138.14 233.422 138.042 232.918 137.846C232.423 137.65 231.994 137.319 231.63 136.852ZM239.745 137.426C239.745 137.585 239.689 137.72 239.577 137.832C239.474 137.944 239.344 138 239.185 138C239.017 138 238.882 137.944 238.779 137.832C238.676 137.72 238.625 137.585 238.625 137.426V131.21C238.625 131.051 238.676 130.921 238.779 130.818C238.891 130.706 239.026 130.65 239.185 130.65C239.344 130.65 239.474 130.706 239.577 130.818C239.689 130.921 239.745 131.051 239.745 131.21V137.426ZM239.185 129.712C238.952 129.712 238.779 129.665 238.667 129.572C238.555 129.479 238.499 129.334 238.499 129.138V128.942C238.499 128.746 238.56 128.601 238.681 128.508C238.802 128.415 238.975 128.368 239.199 128.368C239.423 128.368 239.591 128.415 239.703 128.508C239.815 128.601 239.871 128.746 239.871 128.942V129.138C239.871 129.334 239.81 129.479 239.689 129.572C239.577 129.665 239.409 129.712 239.185 129.712ZM245.355 130.58C245.989 130.58 246.489 130.711 246.853 130.972C247.217 131.233 247.473 131.583 247.623 132.022C247.781 132.461 247.861 132.951 247.861 133.492V137.426C247.861 137.585 247.805 137.72 247.693 137.832C247.59 137.944 247.459 138 247.301 138C247.142 138 247.007 137.944 246.895 137.832C246.792 137.72 246.741 137.585 246.741 137.426V133.52C246.741 133.165 246.685 132.848 246.573 132.568C246.47 132.279 246.293 132.05 246.041 131.882C245.798 131.705 245.462 131.616 245.033 131.616C244.641 131.616 244.281 131.705 243.955 131.882C243.628 132.05 243.367 132.279 243.171 132.568C242.975 132.848 242.877 133.165 242.877 133.52V137.426C242.877 137.585 242.821 137.72 242.709 137.832C242.606 137.944 242.475 138 242.317 138C242.158 138 242.023 137.944 241.911 137.832C241.808 137.72 241.757 137.585 241.757 137.426V131.322C241.757 131.163 241.808 131.033 241.911 130.93C242.023 130.818 242.158 130.762 242.317 130.762C242.485 130.762 242.62 130.818 242.723 130.93C242.825 131.033 242.877 131.163 242.877 131.322V132.316L242.597 132.624C242.643 132.381 242.751 132.139 242.919 131.896C243.087 131.644 243.297 131.42 243.549 131.224C243.801 131.028 244.081 130.874 244.389 130.762C244.697 130.641 245.019 130.58 245.355 130.58ZM250.604 138C250.436 138 250.301 137.944 250.198 137.832C250.096 137.72 250.044 137.585 250.044 137.426V128.2C250.044 128.041 250.096 127.911 250.198 127.808C250.301 127.696 250.436 127.64 250.604 127.64C250.763 127.64 250.894 127.696 250.996 127.808C251.108 127.911 251.164 128.041 251.164 128.2V137.426C251.164 137.585 251.108 137.72 250.996 137.832C250.894 137.944 250.763 138 250.604 138ZM255.252 130.72C255.402 130.72 255.528 130.781 255.63 130.902C255.742 131.014 255.798 131.131 255.798 131.252C255.798 131.411 255.724 131.551 255.574 131.672L251.038 135.634L250.996 134.332L254.86 130.888C254.972 130.776 255.103 130.72 255.252 130.72ZM255.406 137.986C255.248 137.986 255.108 137.925 254.986 137.804L252.004 134.626L252.844 133.856L255.798 137.02C255.91 137.141 255.966 137.281 255.966 137.44C255.966 137.608 255.901 137.743 255.77 137.846C255.64 137.939 255.518 137.986 255.406 137.986ZM236.292 152.2C236.973 152.2 237.571 152.331 238.084 152.592C238.607 152.844 239.041 153.199 239.386 153.656C239.731 154.113 239.988 154.641 240.156 155.238C240.333 155.826 240.422 156.447 240.422 157.1C240.422 157.996 240.268 158.817 239.96 159.564C239.652 160.301 239.195 160.894 238.588 161.342C237.981 161.781 237.216 162 236.292 162H232.792C232.633 162 232.498 161.944 232.386 161.832C232.283 161.72 232.232 161.585 232.232 161.426V152.76C232.232 152.601 232.283 152.471 232.386 152.368C232.498 152.256 232.633 152.2 232.792 152.2H236.292ZM236.152 160.908C236.871 160.908 237.454 160.735 237.902 160.39C238.359 160.045 238.691 159.583 238.896 159.004C239.111 158.425 239.218 157.791 239.218 157.1C239.218 156.596 239.157 156.115 239.036 155.658C238.924 155.191 238.742 154.781 238.49 154.426C238.247 154.071 237.93 153.791 237.538 153.586C237.155 153.381 236.693 153.278 236.152 153.278H233.282L233.394 153.166V161.048L233.31 160.908H236.152ZM243.443 161.426C243.443 161.585 243.382 161.72 243.261 161.832C243.149 161.944 243.013 162 242.855 162C242.677 162 242.537 161.944 242.435 161.832C242.332 161.72 242.281 161.585 242.281 161.426V152.774C242.281 152.606 242.337 152.471 242.449 152.368C242.561 152.256 242.701 152.2 242.869 152.2C243.027 152.2 243.163 152.256 243.275 152.368C243.387 152.471 243.443 152.606 243.443 152.774V161.426ZM250.123 162C249.965 162 249.829 161.944 249.717 161.832C249.615 161.72 249.563 161.585 249.563 161.426V155.322C249.563 155.163 249.615 155.033 249.717 154.93C249.829 154.818 249.965 154.762 250.123 154.762C250.291 154.762 250.427 154.818 250.529 154.93C250.632 155.033 250.683 155.163 250.683 155.322V157.17L250.515 156.876C250.571 156.587 250.669 156.307 250.809 156.036C250.959 155.756 251.145 155.509 251.369 155.294C251.593 155.07 251.85 154.897 252.139 154.776C252.429 154.645 252.746 154.58 253.091 154.58C253.297 154.58 253.483 154.631 253.651 154.734C253.829 154.827 253.917 154.963 253.917 155.14C253.917 155.336 253.866 155.481 253.763 155.574C253.661 155.667 253.544 155.714 253.413 155.714C253.292 155.714 253.175 155.691 253.063 155.644C252.951 155.588 252.811 155.56 252.643 155.56C252.41 155.56 252.177 155.625 251.943 155.756C251.719 155.877 251.509 156.055 251.313 156.288C251.127 156.521 250.973 156.787 250.851 157.086C250.739 157.375 250.683 157.688 250.683 158.024V161.426C250.683 161.585 250.627 161.72 250.515 161.832C250.413 161.944 250.282 162 250.123 162ZM258.214 162.14C257.467 162.14 256.814 161.981 256.254 161.664C255.694 161.347 255.255 160.913 254.938 160.362C254.63 159.802 254.476 159.158 254.476 158.43C254.476 157.618 254.635 156.927 254.952 156.358C255.279 155.779 255.699 155.341 256.212 155.042C256.735 154.734 257.285 154.58 257.864 154.58C258.293 154.58 258.709 154.659 259.11 154.818C259.511 154.977 259.866 155.21 260.174 155.518C260.482 155.817 260.729 156.181 260.916 156.61C261.103 157.03 261.201 157.501 261.21 158.024C261.21 158.173 261.154 158.299 261.042 158.402C260.93 158.505 260.799 158.556 260.65 158.556H255.12L254.868 157.59H260.258L260.034 157.786V157.478C259.997 157.095 259.866 156.769 259.642 156.498C259.427 156.218 259.161 156.003 258.844 155.854C258.536 155.705 258.209 155.63 257.864 155.63C257.584 155.63 257.304 155.681 257.024 155.784C256.753 155.877 256.506 156.036 256.282 156.26C256.067 156.475 255.89 156.755 255.75 157.1C255.619 157.445 255.554 157.861 255.554 158.346C255.554 158.887 255.661 159.363 255.876 159.774C256.1 160.185 256.408 160.511 256.8 160.754C257.192 160.987 257.649 161.104 258.172 161.104C258.499 161.104 258.783 161.062 259.026 160.978C259.269 160.894 259.479 160.791 259.656 160.67C259.833 160.539 259.983 160.409 260.104 160.278C260.225 160.194 260.342 160.152 260.454 160.152C260.594 160.152 260.706 160.199 260.79 160.292C260.883 160.385 260.93 160.497 260.93 160.628C260.93 160.787 260.855 160.927 260.706 161.048C260.445 161.337 260.09 161.594 259.642 161.818C259.194 162.033 258.718 162.14 258.214 162.14ZM262.487 160.852C262.403 160.731 262.366 160.605 262.375 160.474C262.385 160.334 262.464 160.213 262.613 160.11C262.707 160.045 262.814 160.017 262.935 160.026C263.066 160.035 263.183 160.096 263.285 160.208C263.547 160.516 263.845 160.763 264.181 160.95C264.517 161.127 264.928 161.216 265.413 161.216C265.637 161.207 265.861 161.169 266.085 161.104C266.309 161.039 266.496 160.927 266.645 160.768C266.804 160.6 266.883 160.381 266.883 160.11C266.883 159.849 266.804 159.643 266.645 159.494C266.487 159.335 266.281 159.209 266.029 159.116C265.777 159.013 265.502 158.925 265.203 158.85C264.895 158.766 264.592 158.673 264.293 158.57C263.995 158.458 263.724 158.323 263.481 158.164C263.248 157.996 263.057 157.791 262.907 157.548C262.767 157.296 262.697 156.993 262.697 156.638C262.697 156.218 262.809 155.854 263.033 155.546C263.267 155.238 263.575 155 263.957 154.832C264.349 154.664 264.774 154.58 265.231 154.58C265.493 154.58 265.763 154.613 266.043 154.678C266.333 154.734 266.613 154.837 266.883 154.986C267.154 155.126 267.392 155.322 267.597 155.574C267.681 155.667 267.728 155.784 267.737 155.924C267.747 156.064 267.686 156.19 267.555 156.302C267.453 156.377 267.336 156.409 267.205 156.4C267.084 156.391 266.981 156.344 266.897 156.26C266.701 156.027 266.454 155.849 266.155 155.728C265.866 155.597 265.544 155.532 265.189 155.532C264.965 155.532 264.746 155.565 264.531 155.63C264.317 155.695 264.135 155.807 263.985 155.966C263.845 156.115 263.775 156.325 263.775 156.596C263.785 156.848 263.869 157.053 264.027 157.212C264.186 157.371 264.401 157.501 264.671 157.604C264.942 157.697 265.241 157.791 265.567 157.884C265.866 157.959 266.151 158.047 266.421 158.15C266.701 158.243 266.953 158.369 267.177 158.528C267.401 158.687 267.579 158.892 267.709 159.144C267.84 159.387 267.905 159.695 267.905 160.068C267.905 160.497 267.784 160.871 267.541 161.188C267.299 161.496 266.977 161.734 266.575 161.902C266.183 162.061 265.759 162.14 265.301 162.14C264.788 162.14 264.279 162.042 263.775 161.846C263.281 161.65 262.851 161.319 262.487 160.852ZM274.942 154.762C275.11 154.762 275.246 154.818 275.348 154.93C275.451 155.033 275.502 155.163 275.502 155.322V159.144C275.502 160.087 275.236 160.819 274.704 161.342C274.182 161.855 273.449 162.112 272.506 162.112C271.573 162.112 270.84 161.855 270.308 161.342C269.786 160.819 269.524 160.087 269.524 159.144V155.322C269.524 155.163 269.576 155.033 269.678 154.93C269.79 154.818 269.926 154.762 270.084 154.762C270.252 154.762 270.388 154.818 270.49 154.93C270.593 155.033 270.644 155.163 270.644 155.322V159.144C270.644 159.779 270.808 160.259 271.134 160.586C271.461 160.913 271.918 161.076 272.506 161.076C273.113 161.076 273.575 160.913 273.892 160.586C274.219 160.259 274.382 159.779 274.382 159.144V155.322C274.382 155.163 274.434 155.033 274.536 154.93C274.648 154.818 274.784 154.762 274.942 154.762ZM278.809 161.426C278.809 161.585 278.753 161.72 278.641 161.832C278.529 161.944 278.394 162 278.235 162C278.076 162 277.946 161.944 277.843 161.832C277.74 161.72 277.689 161.585 277.689 161.426V152.2C277.689 152.041 277.74 151.911 277.843 151.808C277.955 151.696 278.09 151.64 278.249 151.64C278.417 151.64 278.552 151.696 278.655 151.808C278.758 151.911 278.809 152.041 278.809 152.2V161.426ZM280.66 154.804H283.95C284.1 154.804 284.221 154.855 284.314 154.958C284.417 155.061 284.468 155.182 284.468 155.322C284.468 155.471 284.417 155.597 284.314 155.7C284.221 155.793 284.1 155.84 283.95 155.84H280.66C280.52 155.84 280.399 155.789 280.296 155.686C280.194 155.583 280.142 155.457 280.142 155.308C280.142 155.168 280.194 155.051 280.296 154.958C280.399 154.855 280.52 154.804 280.66 154.804ZM282.13 152.9C282.289 152.9 282.42 152.956 282.522 153.068C282.625 153.171 282.676 153.301 282.676 153.46V160.222C282.676 160.446 282.709 160.614 282.774 160.726C282.84 160.838 282.924 160.917 283.026 160.964C283.138 161.001 283.246 161.02 283.348 161.02C283.442 161.02 283.521 161.006 283.586 160.978C283.661 160.941 283.745 160.922 283.838 160.922C283.932 160.922 284.016 160.969 284.09 161.062C284.174 161.146 284.216 161.258 284.216 161.398C284.216 161.566 284.118 161.711 283.922 161.832C283.726 161.944 283.507 162 283.264 162C283.134 162 282.97 161.991 282.774 161.972C282.588 161.953 282.401 161.893 282.214 161.79C282.028 161.687 281.869 161.519 281.738 161.286C281.617 161.043 281.556 160.707 281.556 160.278V153.46C281.556 153.301 281.612 153.171 281.724 153.068C281.836 152.956 281.972 152.9 282.13 152.9ZM285.894 160.852C285.81 160.731 285.772 160.605 285.782 160.474C285.791 160.334 285.87 160.213 286.02 160.11C286.113 160.045 286.22 160.017 286.342 160.026C286.472 160.035 286.589 160.096 286.692 160.208C286.953 160.516 287.252 160.763 287.588 160.95C287.924 161.127 288.334 161.216 288.82 161.216C289.044 161.207 289.268 161.169 289.492 161.104C289.716 161.039 289.902 160.927 290.052 160.768C290.21 160.6 290.29 160.381 290.29 160.11C290.29 159.849 290.21 159.643 290.052 159.494C289.893 159.335 289.688 159.209 289.436 159.116C289.184 159.013 288.908 158.925 288.61 158.85C288.302 158.766 287.998 158.673 287.7 158.57C287.401 158.458 287.13 158.323 286.888 158.164C286.654 157.996 286.463 157.791 286.314 157.548C286.174 157.296 286.104 156.993 286.104 156.638C286.104 156.218 286.216 155.854 286.44 155.546C286.673 155.238 286.981 155 287.364 154.832C287.756 154.664 288.18 154.58 288.638 154.58C288.899 154.58 289.17 154.613 289.45 154.678C289.739 154.734 290.019 154.837 290.29 154.986C290.56 155.126 290.798 155.322 291.004 155.574C291.088 155.667 291.134 155.784 291.144 155.924C291.153 156.064 291.092 156.19 290.962 156.302C290.859 156.377 290.742 156.409 290.612 156.4C290.49 156.391 290.388 156.344 290.304 156.26C290.108 156.027 289.86 155.849 289.562 155.728C289.272 155.597 288.95 155.532 288.596 155.532C288.372 155.532 288.152 155.565 287.938 155.63C287.723 155.695 287.541 155.807 287.392 155.966C287.252 156.115 287.182 156.325 287.182 156.596C287.191 156.848 287.275 157.053 287.434 157.212C287.592 157.371 287.807 157.501 288.078 157.604C288.348 157.697 288.647 157.791 288.974 157.884C289.272 157.959 289.557 158.047 289.828 158.15C290.108 158.243 290.36 158.369 290.584 158.528C290.808 158.687 290.985 158.892 291.116 159.144C291.246 159.387 291.312 159.695 291.312 160.068C291.312 160.497 291.19 160.871 290.948 161.188C290.705 161.496 290.383 161.734 289.982 161.902C289.59 162.061 289.165 162.14 288.708 162.14C288.194 162.14 287.686 162.042 287.182 161.846C286.687 161.65 286.258 161.319 285.894 160.852Z" fill="#2E2E2E"/>
<defs>
<linearGradient id="paint0_linear_5833_2" x1="157" y1="190" x2="157" y2="290" gradientUnits="userSpaceOnUse">
<stop stop-color="#E6E6E6"/>
<stop offset="1" stop-color="#F5F5F5"/>
</linearGradient>
<linearGradient id="paint1_linear_5833_2" x1="157" y1="0" x2="157" y2="100" gradientUnits="userSpaceOnUse">
<stop stop-color="#1E80CA" stop-opacity="0.52"/>
<stop offset="1" stop-color="#0172C6" stop-opacity="0"/>
</linearGradient>
</defs>
</svg>
