<svg width="108" height="27" viewBox="0 0 108 27" fill="none" xmlns="http://www.w3.org/2000/svg">
<path d="M3.69744 0.636363V21H0.00852269V0.636363H3.69744ZM11.1325 12.0511V21H7.53303V5.72727H10.9734V8.32244H11.1523C11.5037 7.46733 12.0638 6.78788 12.8327 6.28409C13.6083 5.7803 14.5662 5.52841 15.7063 5.52841C16.7603 5.52841 17.6784 5.75379 18.4606 6.20454C19.2494 6.6553 19.8593 7.30824 20.2901 8.16335C20.7276 9.01847 20.9431 10.0559 20.9364 11.2756V21H17.337V11.8324C17.337 10.8116 17.0719 10.0128 16.5415 9.43608C16.0179 8.85937 15.292 8.57102 14.364 8.57102C13.7343 8.57102 13.1741 8.71023 12.6836 8.98864C12.1997 9.26042 11.8185 9.65483 11.5401 10.1719C11.2683 10.6889 11.1325 11.3153 11.1325 12.0511ZM32.2219 5.72727V8.51136H23.4421V5.72727H32.2219ZM25.6097 2.06818H29.2092V16.4062C29.2092 16.8902 29.2821 17.2614 29.4279 17.5199C29.5804 17.7718 29.7792 17.9441 30.0245 18.0369C30.2698 18.1297 30.5415 18.1761 30.8398 18.1761C31.0652 18.1761 31.2707 18.1596 31.4563 18.1264C31.6486 18.0933 31.7944 18.0634 31.8938 18.0369L32.5004 20.8509C32.3081 20.9171 32.033 20.9901 31.6751 21.0696C31.3237 21.1491 30.8929 21.1955 30.3825 21.2088C29.4809 21.2353 28.6689 21.0994 27.9464 20.8011C27.2238 20.4962 26.6504 20.0256 26.2262 19.3892C25.8086 18.7528 25.6031 17.9574 25.6097 17.0028V2.06818Z" fill="#0072C6"/>
<path d="M35.7195 21V0.636363H39.4084V17.9077H48.3771V21H35.7195ZM55.8146 21.3082C54.8468 21.3082 53.9751 21.1359 53.1996 20.7912C52.4306 20.4399 51.8208 19.9228 51.37 19.2401C50.9259 18.5573 50.7038 17.7154 50.7038 16.7145C50.7038 15.8527 50.8629 15.1402 51.1811 14.5767C51.4993 14.0133 51.9335 13.5625 52.4837 13.2244C53.0339 12.8864 53.6536 12.6312 54.343 12.4588C55.0391 12.2798 55.7583 12.1506 56.5007 12.071C57.3956 11.9782 58.1214 11.8954 58.6783 11.8224C59.2351 11.7429 59.6394 11.6236 59.8913 11.4645C60.1499 11.2988 60.2791 11.0436 60.2791 10.6989V10.6392C60.2791 9.89015 60.0571 9.31013 59.6129 8.89915C59.1688 8.48816 58.5291 8.28267 57.6939 8.28267C56.8123 8.28267 56.1129 8.47491 55.5959 8.85938C55.0855 9.24384 54.7408 9.69792 54.5618 10.2216L51.201 9.74432C51.4661 8.81629 51.9036 8.04072 52.5135 7.41761C53.1233 6.78788 53.8691 6.31723 54.7507 6.00568C55.6323 5.6875 56.6068 5.52841 57.674 5.52841C58.4098 5.52841 59.1423 5.61458 59.8714 5.78693C60.6006 5.95928 61.2668 6.24432 61.87 6.64204C62.4732 7.03314 62.9572 7.56676 63.3217 8.2429C63.6929 8.91903 63.8786 9.7642 63.8786 10.7784V21H60.4183V18.902H60.299C60.0803 19.3262 59.772 19.724 59.3743 20.0952C58.9832 20.4598 58.4893 20.7547 57.8928 20.9801C57.3028 21.1989 56.6101 21.3082 55.8146 21.3082ZM56.7493 18.6634C57.4718 18.6634 58.0982 18.5208 58.6286 18.2358C59.1589 17.9441 59.5665 17.5597 59.8516 17.0824C60.1432 16.6051 60.2891 16.0848 60.2891 15.5213V13.7216C60.1764 13.8144 59.9841 13.9006 59.7124 13.9801C59.4472 14.0597 59.1489 14.1293 58.8175 14.1889C58.486 14.2486 58.1579 14.3016 57.8331 14.348C57.5083 14.3944 57.2266 14.4342 56.9879 14.4673C56.451 14.5402 55.9704 14.6596 55.5462 14.8253C55.1219 14.991 54.7872 15.223 54.5419 15.5213C54.2966 15.813 54.174 16.1908 54.174 16.6548C54.174 17.3177 54.416 17.8182 54.8999 18.1562C55.3838 18.4943 56.0002 18.6634 56.7493 18.6634ZM69.1882 26.7273C68.6977 26.7273 68.2436 26.6875 67.826 26.608C67.415 26.535 67.0869 26.4489 66.8416 26.3494L67.6768 23.5455C68.2005 23.6979 68.6679 23.7708 69.0788 23.7642C69.4898 23.7576 69.8511 23.6283 70.1626 23.3764C70.4808 23.1312 70.7493 22.7202 70.968 22.1435L71.2763 21.3182L65.7379 5.72727H69.5561L73.076 17.2614H73.2351L76.7649 5.72727H80.593L74.478 22.8494C74.1929 23.6581 73.8151 24.3509 73.3445 24.9276C72.8738 25.5109 72.2971 25.955 71.6143 26.2599C70.9382 26.5715 70.1295 26.7273 69.1882 26.7273ZM89.3256 21.2983C87.7944 21.2983 86.4719 20.9801 85.3583 20.3438C84.2513 19.7008 83.3995 18.7926 82.8029 17.6193C82.2063 16.4394 81.908 15.0507 81.908 13.4531C81.908 11.8821 82.2063 10.5033 82.8029 9.31676C83.4061 8.12358 84.248 7.19555 85.3285 6.53267C86.409 5.86316 87.6784 5.52841 89.1367 5.52841C90.078 5.52841 90.9663 5.68087 91.8015 5.98579C92.6433 6.28409 93.3858 6.74811 94.0288 7.37784C94.6784 8.00758 95.1888 8.80966 95.56 9.78409C95.9312 10.7519 96.1168 11.9053 96.1168 13.2443V14.348H83.5984V11.9219H92.6665C92.6599 11.2325 92.5108 10.6193 92.2191 10.0824C91.9274 9.53883 91.5198 9.11127 90.9961 8.79972C90.479 8.48816 89.8758 8.33239 89.1864 8.33239C88.4506 8.33239 87.8043 8.51136 87.2475 8.86932C86.6907 9.22064 86.2565 9.68466 85.945 10.2614C85.64 10.8314 85.4843 11.4579 85.4776 12.1406V14.2585C85.4776 15.1468 85.64 15.9091 85.9648 16.5455C86.2897 17.1752 86.7437 17.6591 87.3271 17.9972C87.9104 18.3286 88.5932 18.4943 89.3754 18.4943C89.899 18.4943 90.373 18.4214 90.7972 18.2756C91.2215 18.1231 91.5894 17.901 91.9009 17.6094C92.2125 17.3177 92.4478 16.9564 92.6069 16.5256L95.9677 16.9034C95.7556 17.7917 95.3512 18.5672 94.7546 19.2301C94.1647 19.8864 93.409 20.3968 92.4876 20.7614C91.5662 21.1193 90.5122 21.2983 89.3256 21.2983ZM99.1619 21V5.72727H102.652V8.27273H102.811C103.089 7.3911 103.567 6.71165 104.243 6.23438C104.926 5.75047 105.705 5.50852 106.58 5.50852C106.778 5.50852 107 5.51847 107.246 5.53835C107.498 5.55161 107.706 5.57481 107.872 5.60795V8.91903C107.72 8.866 107.478 8.8196 107.146 8.77983C106.821 8.73343 106.507 8.71023 106.202 8.71023C105.545 8.71023 104.955 8.85275 104.432 9.13778C103.915 9.41619 103.507 9.80398 103.209 10.3011C102.911 10.7983 102.761 11.3717 102.761 12.0213V21H99.1619Z" fill="black"/>
</svg>
