<svg width="241" height="288" viewBox="0 0 241 288" fill="none" xmlns="http://www.w3.org/2000/svg">
<path d="M1 215C0.447715 215 0 215.448 0 216C0 216.552 0.447715 217 1 217L1 215ZM151.707 216.707C152.098 216.317 152.098 215.683 151.707 215.293L145.343 208.929C144.953 208.538 144.319 208.538 143.929 208.929C143.538 209.319 143.538 209.953 143.929 210.343L149.586 216L143.929 221.657C143.538 222.047 143.538 222.681 143.929 223.071C144.319 223.462 144.953 223.462 145.343 223.071L151.707 216.707ZM1 217H151V215H1L1 217Z" fill="#2E2E2E"/>
<rect x="23" y="73" width="106" height="118" rx="9" fill="url(#paint0_linear_5833_3)" stroke="#0172C6" stroke-width="2"/>
<path d="M46.5463 17.184C46.5356 17.4187 46.445 17.616 46.2743 17.776C46.1143 17.9253 45.9223 18 45.6983 18C45.453 18 45.2503 17.9253 45.0903 17.776C44.941 17.616 44.8663 17.4187 44.8663 17.184V7.616C44.8663 7.38133 44.9463 7.18933 45.1063 7.04C45.2663 6.88 45.4743 6.8 45.7303 6.8C45.9436 6.8 46.1303 6.88 46.2903 7.04C46.461 7.18933 46.5463 7.38133 46.5463 7.616V17.184ZM53.2919 9.392C54.0493 9.392 54.6359 9.552 55.0519 9.872C55.4679 10.1813 55.7559 10.6027 55.9159 11.136C56.0866 11.6587 56.1719 12.2453 56.1719 12.896V17.184C56.1719 17.4187 56.0919 17.616 55.9319 17.776C55.7826 17.9253 55.5959 18 55.3719 18C55.1373 18 54.9453 17.9253 54.7959 17.776C54.6466 17.616 54.5719 17.4187 54.5719 17.184V12.912C54.5719 12.528 54.5186 12.1867 54.4119 11.888C54.3053 11.5787 54.1186 11.3333 53.8519 11.152C53.5959 10.96 53.2333 10.864 52.7639 10.864C52.3266 10.864 51.9426 10.96 51.6119 11.152C51.2813 11.3333 51.0199 11.5787 50.8279 11.888C50.6466 12.1867 50.5559 12.528 50.5559 12.912V17.184C50.5559 17.4187 50.4759 17.616 50.3159 17.776C50.1666 17.9253 49.9799 18 49.7559 18C49.5213 18 49.3293 17.9253 49.1799 17.776C49.0306 17.616 48.9559 17.4187 48.9559 17.184V10.4C48.9559 10.1653 49.0306 9.97333 49.1799 9.824C49.3293 9.664 49.5213 9.584 49.7559 9.584C49.9799 9.584 50.1666 9.664 50.3159 9.824C50.4759 9.97333 50.5559 10.1653 50.5559 10.4V11.296L50.2679 11.456C50.3426 11.2213 50.4706 10.9867 50.6519 10.752C50.8439 10.5067 51.0733 10.2827 51.3399 10.08C51.6066 9.86667 51.9053 9.70133 52.2359 9.584C52.5666 9.456 52.9186 9.392 53.2919 9.392ZM58.2814 9.68H62.0414C62.2548 9.68 62.4308 9.75467 62.5694 9.904C62.7188 10.0427 62.7934 10.2187 62.7934 10.432C62.7934 10.6347 62.7188 10.8053 62.5694 10.944C62.4308 11.0827 62.2548 11.152 62.0414 11.152H58.2814C58.0681 11.152 57.8868 11.0827 57.7374 10.944C57.5988 10.7947 57.5294 10.6187 57.5294 10.416C57.5294 10.2027 57.5988 10.0267 57.7374 9.888C57.8868 9.74933 58.0681 9.68 58.2814 9.68ZM59.9614 7.6C60.1961 7.6 60.3881 7.68 60.5374 7.84C60.6868 7.98933 60.7614 8.18133 60.7614 8.416V15.84C60.7614 16.032 60.7934 16.1867 60.8574 16.304C60.9214 16.4213 61.0068 16.5013 61.1134 16.544C61.2308 16.5867 61.3481 16.608 61.4654 16.608C61.5828 16.608 61.6841 16.5867 61.7694 16.544C61.8654 16.5013 61.9774 16.48 62.1054 16.48C62.2334 16.48 62.3508 16.5387 62.4574 16.656C62.5641 16.7733 62.6174 16.9333 62.6174 17.136C62.6174 17.392 62.4788 17.6 62.2014 17.76C61.9241 17.92 61.6254 18 61.3054 18C61.1241 18 60.9108 17.984 60.6654 17.952C60.4201 17.92 60.1801 17.84 59.9454 17.712C59.7214 17.584 59.5348 17.3813 59.3854 17.104C59.2361 16.816 59.1614 16.416 59.1614 15.904V8.416C59.1614 8.18133 59.2361 7.98933 59.3854 7.84C59.5454 7.68 59.7374 7.6 59.9614 7.6ZM70.9333 16.432C71.1573 16.432 71.344 16.5067 71.4933 16.656C71.6533 16.8053 71.7333 16.992 71.7333 17.216C71.7333 17.44 71.6533 17.6267 71.4933 17.776C71.344 17.9253 71.1573 18 70.9333 18H65.5573C65.3226 18 65.1253 17.9253 64.9653 17.776C64.816 17.616 64.7413 17.4187 64.7413 17.184V7.616C64.7413 7.38133 64.8213 7.18933 64.9813 7.04C65.1413 6.88 65.3493 6.8 65.6053 6.8C65.8186 6.8 66.0053 6.88 66.1653 7.04C66.336 7.18933 66.4213 7.38133 66.4213 7.616V16.704L66.0853 16.432H70.9333ZM80.2894 9.456C80.5241 9.456 80.7161 9.536 80.8654 9.696C81.0148 9.84533 81.0894 10.0373 81.0894 10.272V17.184C81.0894 17.4187 81.0148 17.616 80.8654 17.776C80.7161 17.9253 80.5241 18 80.2894 18C80.0654 18 79.8734 17.9253 79.7134 17.776C79.5641 17.616 79.4894 17.4187 79.4894 17.184V16.032L79.8254 16.08C79.8254 16.272 79.7454 16.4853 79.5854 16.72C79.4361 16.9547 79.2281 17.184 78.9614 17.408C78.6948 17.6213 78.3801 17.8027 78.0174 17.952C77.6548 18.0907 77.2654 18.16 76.8494 18.16C76.1134 18.16 75.4521 17.9733 74.8654 17.6C74.2788 17.216 73.8148 16.6933 73.4734 16.032C73.1321 15.3707 72.9614 14.6187 72.9614 13.776C72.9614 12.912 73.1321 12.1547 73.4734 11.504C73.8148 10.8427 74.2734 10.3253 74.8494 9.952C75.4361 9.57867 76.0868 9.392 76.8014 9.392C77.2601 9.392 77.6814 9.46667 78.0654 9.616C78.4601 9.76533 78.8014 9.95733 79.0894 10.192C79.3774 10.4267 79.5961 10.6773 79.7454 10.944C79.9054 11.2 79.9854 11.4453 79.9854 11.68L79.4894 11.728V10.272C79.4894 10.048 79.5641 9.856 79.7134 9.696C79.8734 9.536 80.0654 9.456 80.2894 9.456ZM77.0254 16.688C77.5268 16.688 77.9694 16.56 78.3534 16.304C78.7374 16.048 79.0361 15.7013 79.2494 15.264C79.4628 14.816 79.5694 14.32 79.5694 13.776C79.5694 13.2213 79.4628 12.7253 79.2494 12.288C79.0361 11.8507 78.7374 11.504 78.3534 11.248C77.9694 10.992 77.5268 10.864 77.0254 10.864C76.5348 10.864 76.0974 10.992 75.7134 11.248C75.3401 11.504 75.0414 11.8507 74.8174 12.288C74.6041 12.7253 74.4974 13.2213 74.4974 13.776C74.4974 14.32 74.6041 14.816 74.8174 15.264C75.0414 15.7013 75.3401 16.048 75.7134 16.304C76.0974 16.56 76.5348 16.688 77.0254 16.688ZM89.5869 9.52C89.8216 9.52 90.0136 9.6 90.1629 9.76C90.3123 9.90933 90.3869 10.1013 90.3869 10.336V17.216C90.3869 18.1547 90.2056 18.9173 89.8429 19.504C89.4909 20.0907 89.0109 20.5173 88.4029 20.784C87.8056 21.0613 87.1283 21.2 86.3709 21.2C85.9869 21.2 85.6029 21.1627 85.2189 21.088C84.8349 21.024 84.5203 20.928 84.2749 20.8C84.0189 20.6827 83.8376 20.5387 83.7309 20.368C83.6243 20.1973 83.6083 20.0107 83.6829 19.808C83.7576 19.552 83.8856 19.376 84.0669 19.28C84.2483 19.1947 84.4349 19.1893 84.6269 19.264C84.8083 19.3387 85.0483 19.4347 85.3469 19.552C85.6456 19.6693 85.9869 19.728 86.3709 19.728C86.8936 19.728 87.3363 19.6427 87.6989 19.472C88.0616 19.3013 88.3336 19.0347 88.5149 18.672C88.7069 18.3093 88.8029 17.84 88.8029 17.264V16.16L89.0589 16.544C88.8883 16.896 88.6643 17.1893 88.3869 17.424C88.1096 17.6587 87.7789 17.84 87.3949 17.968C87.0216 18.096 86.6056 18.16 86.1469 18.16C85.5603 18.16 85.0536 18.032 84.6269 17.776C84.2109 17.5093 83.8909 17.1467 83.6669 16.688C83.4429 16.2187 83.3309 15.6853 83.3309 15.088V10.336C83.3309 10.1013 83.4056 9.90933 83.5549 9.76C83.7043 9.6 83.8963 9.52 84.1309 9.52C84.3549 9.52 84.5416 9.6 84.6909 9.76C84.8509 9.90933 84.9309 10.1013 84.9309 10.336V14.656C84.9309 15.36 85.0856 15.8773 85.3949 16.208C85.7043 16.528 86.1629 16.688 86.7709 16.688C87.1763 16.688 87.5283 16.6027 87.8269 16.432C88.1256 16.2613 88.3603 16.0267 88.5309 15.728C88.7016 15.4187 88.7869 15.0613 88.7869 14.656V10.336C88.7869 10.1013 88.8616 9.90933 89.0109 9.76C89.1709 9.6 89.3629 9.52 89.5869 9.52ZM96.4697 18.16C95.5844 18.16 94.8164 17.9787 94.1657 17.616C93.515 17.2427 93.0084 16.736 92.6457 16.096C92.2937 15.4453 92.1177 14.704 92.1177 13.872C92.1177 12.9333 92.3044 12.1333 92.6777 11.472C93.0617 10.8 93.5577 10.288 94.1657 9.936C94.7737 9.57333 95.419 9.392 96.1017 9.392C96.6244 9.392 97.1204 9.49867 97.5897 9.712C98.059 9.91467 98.475 10.2027 98.8377 10.576C99.211 10.9387 99.5044 11.3707 99.7177 11.872C99.931 12.3627 100.043 12.9013 100.054 13.488C100.043 13.7013 99.9577 13.8773 99.7977 14.016C99.6377 14.1547 99.451 14.224 99.2377 14.224H93.0137L92.6297 12.864H98.6457L98.3417 13.152V12.752C98.3204 12.3787 98.1977 12.0533 97.9737 11.776C97.7497 11.488 97.4724 11.2693 97.1417 11.12C96.811 10.96 96.4644 10.88 96.1017 10.88C95.7817 10.88 95.4724 10.9333 95.1737 11.04C94.8857 11.136 94.6244 11.296 94.3897 11.52C94.1657 11.744 93.9844 12.0427 93.8457 12.416C93.7177 12.7787 93.6537 13.232 93.6537 13.776C93.6537 14.3627 93.7764 14.8747 94.0217 15.312C94.267 15.7493 94.5977 16.0907 95.0137 16.336C95.4297 16.5707 95.8884 16.688 96.3897 16.688C96.7844 16.688 97.1097 16.6507 97.3657 16.576C97.6217 16.4907 97.835 16.3893 98.0057 16.272C98.1764 16.1547 98.3257 16.0427 98.4537 15.936C98.6137 15.84 98.7737 15.792 98.9337 15.792C99.1257 15.792 99.2857 15.8613 99.4137 16C99.5417 16.128 99.6057 16.2827 99.6057 16.464C99.6057 16.6987 99.4884 16.912 99.2537 17.104C98.9657 17.3813 98.5657 17.6267 98.0537 17.84C97.5524 18.0533 97.0244 18.16 96.4697 18.16ZM102.662 18C102.428 18 102.236 17.9253 102.086 17.776C101.937 17.616 101.862 17.4187 101.862 17.184V10.4C101.862 10.1653 101.937 9.97333 102.086 9.824C102.236 9.664 102.428 9.584 102.662 9.584C102.886 9.584 103.073 9.664 103.222 9.824C103.382 9.97333 103.462 10.1653 103.462 10.4V12.192L103.302 11.504C103.388 11.2053 103.516 10.928 103.686 10.672C103.868 10.416 104.081 10.192 104.326 10C104.572 9.808 104.844 9.65867 105.142 9.552C105.452 9.44533 105.772 9.392 106.102 9.392C106.38 9.392 106.62 9.46667 106.822 9.616C107.025 9.76533 107.126 9.952 107.126 10.176C107.126 10.464 107.052 10.6773 106.902 10.816C106.753 10.944 106.588 11.008 106.406 11.008C106.246 11.008 106.092 10.976 105.942 10.912C105.793 10.8373 105.617 10.8 105.414 10.8C105.19 10.8 104.961 10.8587 104.726 10.976C104.492 11.0933 104.278 11.2693 104.086 11.504C103.894 11.728 103.74 11.9947 103.622 12.304C103.516 12.6133 103.462 12.96 103.462 13.344V17.184C103.462 17.4187 103.382 17.616 103.222 17.776C103.073 17.9253 102.886 18 102.662 18ZM41.1511 30.8H46.6871C46.9111 30.8 47.0977 30.8747 47.2471 31.024C47.4071 31.1733 47.4871 31.36 47.4871 31.584C47.4871 31.808 47.4071 31.9893 47.2471 32.128C47.0977 32.2667 46.9111 32.336 46.6871 32.336H41.8551L42.0151 32.064V35.648L41.8711 35.488H45.9671C46.1911 35.488 46.3777 35.5627 46.5271 35.712C46.6871 35.8613 46.7671 36.0533 46.7671 36.288C46.7671 36.512 46.6871 36.6933 46.5271 36.832C46.3777 36.9707 46.1911 37.04 45.9671 37.04H41.9031L42.0151 36.896V40.592L41.9031 40.464H46.6871C46.9111 40.464 47.0977 40.544 47.2471 40.704C47.4071 40.8533 47.4871 41.0293 47.4871 41.232C47.4871 41.456 47.4071 41.6427 47.2471 41.792C47.0977 41.9307 46.9111 42 46.6871 42H41.1511C40.9271 42 40.7351 41.9253 40.5751 41.776C40.4151 41.616 40.3351 41.4187 40.3351 41.184V31.616C40.3351 31.3813 40.4151 31.1893 40.5751 31.04C40.7351 30.88 40.9271 30.8 41.1511 30.8ZM49.3317 33.536C49.5984 33.536 49.817 33.648 49.9877 33.872L55.4437 40.752C55.561 40.8907 55.6197 41.0507 55.6197 41.232C55.6197 41.4453 55.5344 41.632 55.3637 41.792C55.193 41.952 55.0064 42.032 54.8037 42.032C54.5477 42.032 54.329 41.92 54.1477 41.696L48.6917 34.816C48.5744 34.6773 48.5157 34.5173 48.5157 34.336C48.5157 34.112 48.5957 33.9253 48.7557 33.776C48.9264 33.616 49.1184 33.536 49.3317 33.536ZM49.3477 42.032C49.1664 42.032 48.9904 41.9627 48.8197 41.824C48.649 41.6853 48.5637 41.5147 48.5637 41.312C48.5637 41.1307 48.6277 40.9653 48.7557 40.816L51.2997 37.664L52.1157 38.976L49.9877 41.696C49.817 41.92 49.6037 42.032 49.3477 42.032ZM54.7877 33.536C55.0117 33.536 55.193 33.6107 55.3317 33.76C55.481 33.8987 55.5557 34.064 55.5557 34.256C55.5557 34.3413 55.5397 34.432 55.5077 34.528C55.4864 34.6133 55.4384 34.6933 55.3637 34.768L52.8517 37.92L52.0197 36.736L54.1477 33.904C54.329 33.6587 54.5424 33.536 54.7877 33.536ZM60.9541 42.16C60.0687 42.16 59.3007 41.9787 58.6501 41.616C57.9994 41.2427 57.4927 40.736 57.1301 40.096C56.7781 39.4453 56.6021 38.704 56.6021 37.872C56.6021 36.9333 56.7887 36.1333 57.1621 35.472C57.5461 34.8 58.0421 34.288 58.6501 33.936C59.2581 33.5733 59.9034 33.392 60.5861 33.392C61.1087 33.392 61.6047 33.4987 62.0741 33.712C62.5434 33.9147 62.9594 34.2027 63.3221 34.576C63.6954 34.9387 63.9887 35.3707 64.2021 35.872C64.4154 36.3627 64.5274 36.9013 64.5381 37.488C64.5274 37.7013 64.4421 37.8773 64.2821 38.016C64.1221 38.1547 63.9354 38.224 63.7221 38.224H57.4981L57.1141 36.864H63.1301L62.8261 37.152V36.752C62.8047 36.3787 62.6821 36.0533 62.4581 35.776C62.2341 35.488 61.9567 35.2693 61.6261 35.12C61.2954 34.96 60.9487 34.88 60.5861 34.88C60.2661 34.88 59.9567 34.9333 59.6581 35.04C59.3701 35.136 59.1087 35.296 58.8741 35.52C58.6501 35.744 58.4687 36.0427 58.3301 36.416C58.2021 36.7787 58.1381 37.232 58.1381 37.776C58.1381 38.3627 58.2607 38.8747 58.5061 39.312C58.7514 39.7493 59.0821 40.0907 59.4981 40.336C59.9141 40.5707 60.3727 40.688 60.8741 40.688C61.2687 40.688 61.5941 40.6507 61.8501 40.576C62.1061 40.4907 62.3194 40.3893 62.4901 40.272C62.6607 40.1547 62.8101 40.0427 62.9381 39.936C63.0981 39.84 63.2581 39.792 63.4181 39.792C63.6101 39.792 63.7701 39.8613 63.8981 40C64.0261 40.128 64.0901 40.2827 64.0901 40.464C64.0901 40.6987 63.9727 40.912 63.7381 41.104C63.4501 41.3813 63.0501 41.6267 62.5381 41.84C62.0367 42.0533 61.5087 42.16 60.9541 42.16ZM70.0746 33.392C70.6506 33.392 71.1626 33.456 71.6106 33.584C72.0586 33.7013 72.4052 33.872 72.6506 34.096C72.9066 34.3093 73.0346 34.56 73.0346 34.848C73.0346 35.0293 72.9812 35.2 72.8746 35.36C72.7679 35.5093 72.6079 35.584 72.3946 35.584C72.2452 35.584 72.1172 35.5573 72.0106 35.504C71.9146 35.4507 71.8239 35.3867 71.7386 35.312C71.6532 35.2373 71.5466 35.1627 71.4186 35.088C71.3012 35.024 71.1252 34.9707 70.8906 34.928C70.6666 34.8853 70.4639 34.864 70.2826 34.864C69.7172 34.864 69.2266 34.992 68.8106 35.248C68.4052 35.504 68.0852 35.8507 67.8506 36.288C67.6266 36.7253 67.5146 37.2213 67.5146 37.776C67.5146 38.3307 67.6266 38.8267 67.8506 39.264C68.0852 39.7013 68.3999 40.048 68.7946 40.304C69.1999 40.56 69.6692 40.688 70.2026 40.688C70.5226 40.688 70.7839 40.6667 70.9866 40.624C71.1892 40.5707 71.3652 40.5067 71.5146 40.432C71.6746 40.336 71.8079 40.24 71.9146 40.144C72.0319 40.0373 72.1919 39.984 72.3946 39.984C72.6292 39.984 72.8052 40.0587 72.9226 40.208C73.0506 40.3467 73.1146 40.5227 73.1146 40.736C73.1146 40.9707 72.9706 41.2 72.6826 41.424C72.4052 41.6373 72.0319 41.8133 71.5626 41.952C71.0932 42.0907 70.5759 42.16 70.0106 42.16C69.1786 42.16 68.4532 41.968 67.8346 41.584C67.2266 41.2 66.7519 40.6773 66.4106 40.016C66.0799 39.3547 65.9146 38.608 65.9146 37.776C65.9146 36.9333 66.0906 36.1867 66.4426 35.536C66.7946 34.8747 67.2852 34.352 67.9146 33.968C68.5439 33.584 69.2639 33.392 70.0746 33.392ZM80.9154 33.584C81.1394 33.584 81.3261 33.664 81.4754 33.824C81.6354 33.9733 81.7154 34.1653 81.7154 34.4V38.608C81.7154 39.7173 81.4061 40.5867 80.7874 41.216C80.1688 41.8347 79.2941 42.144 78.1634 42.144C77.0434 42.144 76.1741 41.8347 75.5554 41.216C74.9474 40.5867 74.6434 39.7173 74.6434 38.608V34.4C74.6434 34.1653 74.7181 33.9733 74.8674 33.824C75.0168 33.664 75.2088 33.584 75.4434 33.584C75.6674 33.584 75.8541 33.664 76.0034 33.824C76.1634 33.9733 76.2434 34.1653 76.2434 34.4V38.608C76.2434 39.3013 76.4034 39.8187 76.7234 40.16C77.0541 40.5013 77.5341 40.672 78.1634 40.672C78.8034 40.672 79.2888 40.5013 79.6194 40.16C79.9501 39.8187 80.1154 39.3013 80.1154 38.608V34.4C80.1154 34.1653 80.1901 33.9733 80.3394 33.824C80.4888 33.664 80.6808 33.584 80.9154 33.584ZM83.8283 33.68H87.5883C87.8016 33.68 87.9776 33.7547 88.1163 33.904C88.2656 34.0427 88.3403 34.2187 88.3403 34.432C88.3403 34.6347 88.2656 34.8053 88.1163 34.944C87.9776 35.0827 87.8016 35.152 87.5883 35.152H83.8283C83.615 35.152 83.4336 35.0827 83.2843 34.944C83.1456 34.7947 83.0763 34.6187 83.0763 34.416C83.0763 34.2027 83.1456 34.0267 83.2843 33.888C83.4336 33.7493 83.615 33.68 83.8283 33.68ZM85.5083 31.6C85.743 31.6 85.935 31.68 86.0843 31.84C86.2336 31.9893 86.3083 32.1813 86.3083 32.416V39.84C86.3083 40.032 86.3403 40.1867 86.4043 40.304C86.4683 40.4213 86.5536 40.5013 86.6603 40.544C86.7776 40.5867 86.895 40.608 87.0123 40.608C87.1296 40.608 87.231 40.5867 87.3163 40.544C87.4123 40.5013 87.5243 40.48 87.6523 40.48C87.7803 40.48 87.8976 40.5387 88.0043 40.656C88.111 40.7733 88.1643 40.9333 88.1643 41.136C88.1643 41.392 88.0256 41.6 87.7483 41.76C87.471 41.92 87.1723 42 86.8523 42C86.671 42 86.4576 41.984 86.2123 41.952C85.967 41.92 85.727 41.84 85.4923 41.712C85.2683 41.584 85.0816 41.3813 84.9323 41.104C84.783 40.816 84.7083 40.416 84.7083 39.904V32.416C84.7083 32.1813 84.783 31.9893 84.9323 31.84C85.0923 31.68 85.2843 31.6 85.5083 31.6ZM91.6162 41.184C91.6162 41.4187 91.5415 41.616 91.3922 41.776C91.2429 41.9253 91.0509 42 90.8162 42C90.5922 42 90.4002 41.9253 90.2402 41.776C90.0909 41.616 90.0162 41.4187 90.0162 41.184V34.336C90.0162 34.1013 90.0909 33.9093 90.2402 33.76C90.4002 33.6 90.5922 33.52 90.8162 33.52C91.0509 33.52 91.2429 33.6 91.3922 33.76C91.5415 33.9093 91.6162 34.1013 91.6162 34.336V41.184ZM90.8002 32.464C90.4909 32.464 90.2669 32.4107 90.1282 32.304C89.9895 32.1867 89.9202 31.9947 89.9202 31.728V31.472C89.9202 31.2053 89.9949 31.0187 90.1442 30.912C90.2935 30.8053 90.5175 30.752 90.8162 30.752C91.1362 30.752 91.3655 30.8107 91.5042 30.928C91.6429 31.0347 91.7122 31.216 91.7122 31.472V31.728C91.7122 32.0053 91.6375 32.1973 91.4882 32.304C91.3495 32.4107 91.1202 32.464 90.8002 32.464ZM101.832 37.792C101.832 38.6453 101.646 39.4027 101.272 40.064C100.899 40.7147 100.392 41.2267 99.7524 41.6C99.1124 41.9733 98.3924 42.16 97.5924 42.16C96.7924 42.16 96.0724 41.9733 95.4324 41.6C94.7924 41.2267 94.2804 40.7147 93.8964 40.064C93.5231 39.4027 93.3364 38.6453 93.3364 37.792C93.3364 36.928 93.5231 36.1707 93.8964 35.52C94.2804 34.8587 94.7924 34.3413 95.4324 33.968C96.0724 33.584 96.7924 33.392 97.5924 33.392C98.3924 33.392 99.1124 33.584 99.7524 33.968C100.392 34.3413 100.899 34.8587 101.272 35.52C101.646 36.1707 101.832 36.928 101.832 37.792ZM100.232 37.792C100.232 37.2053 100.115 36.6987 99.8804 36.272C99.6458 35.8347 99.3258 35.4933 98.9204 35.248C98.5258 34.992 98.0831 34.864 97.5924 34.864C97.1018 34.864 96.6538 34.992 96.2484 35.248C95.8431 35.4933 95.5231 35.8347 95.2884 36.272C95.0538 36.6987 94.9364 37.2053 94.9364 37.792C94.9364 38.3573 95.0538 38.8587 95.2884 39.296C95.5231 39.7333 95.8431 40.0747 96.2484 40.32C96.6538 40.5653 97.1018 40.688 97.5924 40.688C98.0831 40.688 98.5258 40.5653 98.9204 40.32C99.3258 40.0747 99.6458 39.7333 99.8804 39.296C100.115 38.8587 100.232 38.3573 100.232 37.792ZM107.979 33.392C108.737 33.392 109.323 33.552 109.739 33.872C110.155 34.1813 110.443 34.6027 110.603 35.136C110.774 35.6587 110.859 36.2453 110.859 36.896V41.184C110.859 41.4187 110.779 41.616 110.619 41.776C110.47 41.9253 110.283 42 110.059 42C109.825 42 109.633 41.9253 109.483 41.776C109.334 41.616 109.259 41.4187 109.259 41.184V36.912C109.259 36.528 109.206 36.1867 109.099 35.888C108.993 35.5787 108.806 35.3333 108.539 35.152C108.283 34.96 107.921 34.864 107.451 34.864C107.014 34.864 106.63 34.96 106.299 35.152C105.969 35.3333 105.707 35.5787 105.515 35.888C105.334 36.1867 105.243 36.528 105.243 36.912V41.184C105.243 41.4187 105.163 41.616 105.003 41.776C104.854 41.9253 104.667 42 104.443 42C104.209 42 104.017 41.9253 103.867 41.776C103.718 41.616 103.643 41.4187 103.643 41.184V34.4C103.643 34.1653 103.718 33.9733 103.867 33.824C104.017 33.664 104.209 33.584 104.443 33.584C104.667 33.584 104.854 33.664 105.003 33.824C105.163 33.9733 105.243 34.1653 105.243 34.4V35.296L104.955 35.456C105.03 35.2213 105.158 34.9867 105.339 34.752C105.531 34.5067 105.761 34.2827 106.027 34.08C106.294 33.8667 106.593 33.7013 106.923 33.584C107.254 33.456 107.606 33.392 107.979 33.392Z" fill="#2E2E2E"/>
<path d="M61.0729 246.8H66.6089C66.8329 246.8 67.0196 246.875 67.1689 247.024C67.3289 247.173 67.4089 247.36 67.4089 247.584C67.4089 247.808 67.3289 247.989 67.1689 248.128C67.0196 248.267 66.8329 248.336 66.6089 248.336H61.7769L61.9369 248.064V251.648L61.7929 251.488H65.8889C66.1129 251.488 66.2996 251.563 66.4489 251.712C66.6089 251.861 66.6889 252.053 66.6889 252.288C66.6889 252.512 66.6089 252.693 66.4489 252.832C66.2996 252.971 66.1129 253.04 65.8889 253.04H61.8249L61.9369 252.896V256.592L61.8249 256.464H66.6089C66.8329 256.464 67.0196 256.544 67.1689 256.704C67.3289 256.853 67.4089 257.029 67.4089 257.232C67.4089 257.456 67.3289 257.643 67.1689 257.792C67.0196 257.931 66.8329 258 66.6089 258H61.0729C60.8489 258 60.6569 257.925 60.4969 257.776C60.3369 257.616 60.2569 257.419 60.2569 257.184V247.616C60.2569 247.381 60.3369 247.189 60.4969 247.04C60.6569 246.88 60.8489 246.8 61.0729 246.8ZM77.5576 246.768C77.7816 246.768 77.9736 246.843 78.1336 246.992C78.2936 247.141 78.3736 247.323 78.3736 247.536C78.3736 247.653 78.3469 247.776 78.2936 247.904L74.2456 257.472C74.1602 257.653 74.0429 257.787 73.8936 257.872C73.7549 257.957 73.6109 258 73.4616 258C73.3122 257.989 73.1682 257.941 73.0296 257.856C72.9016 257.771 72.8002 257.648 72.7256 257.488L68.6776 247.904C68.6562 247.851 68.6402 247.797 68.6296 247.744C68.6189 247.68 68.6136 247.616 68.6136 247.552C68.6136 247.307 68.7042 247.115 68.8856 246.976C69.0669 246.837 69.2429 246.768 69.4136 246.768C69.7549 246.768 70.0056 246.944 70.1656 247.296L73.8296 255.984H73.3656L76.8216 247.28C76.9709 246.939 77.2162 246.768 77.5576 246.768ZM81.0108 246.784C81.1388 246.784 81.2721 246.816 81.4108 246.88C81.5495 246.944 81.6561 247.035 81.7308 247.152L85.7948 253.344L85.1068 253.312L89.2508 247.152C89.4215 246.907 89.6401 246.784 89.9068 246.784C90.1201 246.784 90.3068 246.864 90.4668 247.024C90.6375 247.173 90.7228 247.365 90.7228 247.6V257.184C90.7228 257.419 90.6481 257.616 90.4988 257.776C90.3495 257.925 90.1521 258 89.9068 258C89.6508 258 89.4428 257.925 89.2828 257.776C89.1335 257.616 89.0588 257.419 89.0588 257.184V249.072L89.5708 249.184L86.0508 254.544C85.9761 254.64 85.8801 254.725 85.7628 254.8C85.6455 254.864 85.5228 254.891 85.3948 254.88C85.2775 254.891 85.1548 254.864 85.0268 254.8C84.9095 254.725 84.8135 254.64 84.7388 254.544L81.3468 249.264L81.7308 248.624V257.184C81.7308 257.419 81.6561 257.616 81.5068 257.776C81.3681 257.925 81.1815 258 80.9468 258C80.7228 258 80.5361 257.925 80.3868 257.776C80.2481 257.616 80.1788 257.419 80.1788 257.184V247.6C80.1788 247.376 80.2588 247.184 80.4188 247.024C80.5895 246.864 80.7868 246.784 81.0108 246.784ZM41.1511 270.8H46.6871C46.9111 270.8 47.0977 270.875 47.2471 271.024C47.4071 271.173 47.4871 271.36 47.4871 271.584C47.4871 271.808 47.4071 271.989 47.2471 272.128C47.0977 272.267 46.9111 272.336 46.6871 272.336H41.8551L42.0151 272.064V275.648L41.8711 275.488H45.9671C46.1911 275.488 46.3777 275.563 46.5271 275.712C46.6871 275.861 46.7671 276.053 46.7671 276.288C46.7671 276.512 46.6871 276.693 46.5271 276.832C46.3777 276.971 46.1911 277.04 45.9671 277.04H41.9031L42.0151 276.896V280.592L41.9031 280.464H46.6871C46.9111 280.464 47.0977 280.544 47.2471 280.704C47.4071 280.853 47.4871 281.029 47.4871 281.232C47.4871 281.456 47.4071 281.643 47.2471 281.792C47.0977 281.931 46.9111 282 46.6871 282H41.1511C40.9271 282 40.7351 281.925 40.5751 281.776C40.4151 281.616 40.3351 281.419 40.3351 281.184V271.616C40.3351 271.381 40.4151 271.189 40.5751 271.04C40.7351 270.88 40.9271 270.8 41.1511 270.8ZM49.3317 273.536C49.5984 273.536 49.817 273.648 49.9877 273.872L55.4437 280.752C55.561 280.891 55.6197 281.051 55.6197 281.232C55.6197 281.445 55.5344 281.632 55.3637 281.792C55.193 281.952 55.0064 282.032 54.8037 282.032C54.5477 282.032 54.329 281.92 54.1477 281.696L48.6917 274.816C48.5744 274.677 48.5157 274.517 48.5157 274.336C48.5157 274.112 48.5957 273.925 48.7557 273.776C48.9264 273.616 49.1184 273.536 49.3317 273.536ZM49.3477 282.032C49.1664 282.032 48.9904 281.963 48.8197 281.824C48.649 281.685 48.5637 281.515 48.5637 281.312C48.5637 281.131 48.6277 280.965 48.7557 280.816L51.2997 277.664L52.1157 278.976L49.9877 281.696C49.817 281.92 49.6037 282.032 49.3477 282.032ZM54.7877 273.536C55.0117 273.536 55.193 273.611 55.3317 273.76C55.481 273.899 55.5557 274.064 55.5557 274.256C55.5557 274.341 55.5397 274.432 55.5077 274.528C55.4864 274.613 55.4384 274.693 55.3637 274.768L52.8517 277.92L52.0197 276.736L54.1477 273.904C54.329 273.659 54.5424 273.536 54.7877 273.536ZM60.9541 282.16C60.0687 282.16 59.3007 281.979 58.6501 281.616C57.9994 281.243 57.4927 280.736 57.1301 280.096C56.7781 279.445 56.6021 278.704 56.6021 277.872C56.6021 276.933 56.7887 276.133 57.1621 275.472C57.5461 274.8 58.0421 274.288 58.6501 273.936C59.2581 273.573 59.9034 273.392 60.5861 273.392C61.1087 273.392 61.6047 273.499 62.0741 273.712C62.5434 273.915 62.9594 274.203 63.3221 274.576C63.6954 274.939 63.9887 275.371 64.2021 275.872C64.4154 276.363 64.5274 276.901 64.5381 277.488C64.5274 277.701 64.4421 277.877 64.2821 278.016C64.1221 278.155 63.9354 278.224 63.7221 278.224H57.4981L57.1141 276.864H63.1301L62.8261 277.152V276.752C62.8047 276.379 62.6821 276.053 62.4581 275.776C62.2341 275.488 61.9567 275.269 61.6261 275.12C61.2954 274.96 60.9487 274.88 60.5861 274.88C60.2661 274.88 59.9567 274.933 59.6581 275.04C59.3701 275.136 59.1087 275.296 58.8741 275.52C58.6501 275.744 58.4687 276.043 58.3301 276.416C58.2021 276.779 58.1381 277.232 58.1381 277.776C58.1381 278.363 58.2607 278.875 58.5061 279.312C58.7514 279.749 59.0821 280.091 59.4981 280.336C59.9141 280.571 60.3727 280.688 60.8741 280.688C61.2687 280.688 61.5941 280.651 61.8501 280.576C62.1061 280.491 62.3194 280.389 62.4901 280.272C62.6607 280.155 62.8101 280.043 62.9381 279.936C63.0981 279.84 63.2581 279.792 63.4181 279.792C63.6101 279.792 63.7701 279.861 63.8981 280C64.0261 280.128 64.0901 280.283 64.0901 280.464C64.0901 280.699 63.9727 280.912 63.7381 281.104C63.4501 281.381 63.0501 281.627 62.5381 281.84C62.0367 282.053 61.5087 282.16 60.9541 282.16ZM70.0746 273.392C70.6506 273.392 71.1626 273.456 71.6106 273.584C72.0586 273.701 72.4052 273.872 72.6506 274.096C72.9066 274.309 73.0346 274.56 73.0346 274.848C73.0346 275.029 72.9812 275.2 72.8746 275.36C72.7679 275.509 72.6079 275.584 72.3946 275.584C72.2452 275.584 72.1172 275.557 72.0106 275.504C71.9146 275.451 71.8239 275.387 71.7386 275.312C71.6532 275.237 71.5466 275.163 71.4186 275.088C71.3012 275.024 71.1252 274.971 70.8906 274.928C70.6666 274.885 70.4639 274.864 70.2826 274.864C69.7172 274.864 69.2266 274.992 68.8106 275.248C68.4052 275.504 68.0852 275.851 67.8506 276.288C67.6266 276.725 67.5146 277.221 67.5146 277.776C67.5146 278.331 67.6266 278.827 67.8506 279.264C68.0852 279.701 68.3999 280.048 68.7946 280.304C69.1999 280.56 69.6692 280.688 70.2026 280.688C70.5226 280.688 70.7839 280.667 70.9866 280.624C71.1892 280.571 71.3652 280.507 71.5146 280.432C71.6746 280.336 71.8079 280.24 71.9146 280.144C72.0319 280.037 72.1919 279.984 72.3946 279.984C72.6292 279.984 72.8052 280.059 72.9226 280.208C73.0506 280.347 73.1146 280.523 73.1146 280.736C73.1146 280.971 72.9706 281.2 72.6826 281.424C72.4052 281.637 72.0319 281.813 71.5626 281.952C71.0932 282.091 70.5759 282.16 70.0106 282.16C69.1786 282.16 68.4532 281.968 67.8346 281.584C67.2266 281.2 66.7519 280.677 66.4106 280.016C66.0799 279.355 65.9146 278.608 65.9146 277.776C65.9146 276.933 66.0906 276.187 66.4426 275.536C66.7946 274.875 67.2852 274.352 67.9146 273.968C68.5439 273.584 69.2639 273.392 70.0746 273.392ZM80.9154 273.584C81.1394 273.584 81.3261 273.664 81.4754 273.824C81.6354 273.973 81.7154 274.165 81.7154 274.4V278.608C81.7154 279.717 81.4061 280.587 80.7874 281.216C80.1688 281.835 79.2941 282.144 78.1634 282.144C77.0434 282.144 76.1741 281.835 75.5554 281.216C74.9474 280.587 74.6434 279.717 74.6434 278.608V274.4C74.6434 274.165 74.7181 273.973 74.8674 273.824C75.0168 273.664 75.2088 273.584 75.4434 273.584C75.6674 273.584 75.8541 273.664 76.0034 273.824C76.1634 273.973 76.2434 274.165 76.2434 274.4V278.608C76.2434 279.301 76.4034 279.819 76.7234 280.16C77.0541 280.501 77.5341 280.672 78.1634 280.672C78.8034 280.672 79.2888 280.501 79.6194 280.16C79.9501 279.819 80.1154 279.301 80.1154 278.608V274.4C80.1154 274.165 80.1901 273.973 80.3394 273.824C80.4888 273.664 80.6808 273.584 80.9154 273.584ZM83.8283 273.68H87.5883C87.8016 273.68 87.9776 273.755 88.1163 273.904C88.2656 274.043 88.3403 274.219 88.3403 274.432C88.3403 274.635 88.2656 274.805 88.1163 274.944C87.9776 275.083 87.8016 275.152 87.5883 275.152H83.8283C83.615 275.152 83.4336 275.083 83.2843 274.944C83.1456 274.795 83.0763 274.619 83.0763 274.416C83.0763 274.203 83.1456 274.027 83.2843 273.888C83.4336 273.749 83.615 273.68 83.8283 273.68ZM85.5083 271.6C85.743 271.6 85.935 271.68 86.0843 271.84C86.2336 271.989 86.3083 272.181 86.3083 272.416V279.84C86.3083 280.032 86.3403 280.187 86.4043 280.304C86.4683 280.421 86.5536 280.501 86.6603 280.544C86.7776 280.587 86.895 280.608 87.0123 280.608C87.1296 280.608 87.231 280.587 87.3163 280.544C87.4123 280.501 87.5243 280.48 87.6523 280.48C87.7803 280.48 87.8976 280.539 88.0043 280.656C88.111 280.773 88.1643 280.933 88.1643 281.136C88.1643 281.392 88.0256 281.6 87.7483 281.76C87.471 281.92 87.1723 282 86.8523 282C86.671 282 86.4576 281.984 86.2123 281.952C85.967 281.92 85.727 281.84 85.4923 281.712C85.2683 281.584 85.0816 281.381 84.9323 281.104C84.783 280.816 84.7083 280.416 84.7083 279.904V272.416C84.7083 272.181 84.783 271.989 84.9323 271.84C85.0923 271.68 85.2843 271.6 85.5083 271.6ZM91.6162 281.184C91.6162 281.419 91.5415 281.616 91.3922 281.776C91.2429 281.925 91.0509 282 90.8162 282C90.5922 282 90.4002 281.925 90.2402 281.776C90.0909 281.616 90.0162 281.419 90.0162 281.184V274.336C90.0162 274.101 90.0909 273.909 90.2402 273.76C90.4002 273.6 90.5922 273.52 90.8162 273.52C91.0509 273.52 91.2429 273.6 91.3922 273.76C91.5415 273.909 91.6162 274.101 91.6162 274.336V281.184ZM90.8002 272.464C90.4909 272.464 90.2669 272.411 90.1282 272.304C89.9895 272.187 89.9202 271.995 89.9202 271.728V271.472C89.9202 271.205 89.9949 271.019 90.1442 270.912C90.2935 270.805 90.5175 270.752 90.8162 270.752C91.1362 270.752 91.3655 270.811 91.5042 270.928C91.6429 271.035 91.7122 271.216 91.7122 271.472V271.728C91.7122 272.005 91.6375 272.197 91.4882 272.304C91.3495 272.411 91.1202 272.464 90.8002 272.464ZM101.832 277.792C101.832 278.645 101.646 279.403 101.272 280.064C100.899 280.715 100.392 281.227 99.7524 281.6C99.1124 281.973 98.3924 282.16 97.5924 282.16C96.7924 282.16 96.0724 281.973 95.4324 281.6C94.7924 281.227 94.2804 280.715 93.8964 280.064C93.5231 279.403 93.3364 278.645 93.3364 277.792C93.3364 276.928 93.5231 276.171 93.8964 275.52C94.2804 274.859 94.7924 274.341 95.4324 273.968C96.0724 273.584 96.7924 273.392 97.5924 273.392C98.3924 273.392 99.1124 273.584 99.7524 273.968C100.392 274.341 100.899 274.859 101.272 275.52C101.646 276.171 101.832 276.928 101.832 277.792ZM100.232 277.792C100.232 277.205 100.115 276.699 99.8804 276.272C99.6458 275.835 99.3258 275.493 98.9204 275.248C98.5258 274.992 98.0831 274.864 97.5924 274.864C97.1018 274.864 96.6538 274.992 96.2484 275.248C95.8431 275.493 95.5231 275.835 95.2884 276.272C95.0538 276.699 94.9364 277.205 94.9364 277.792C94.9364 278.357 95.0538 278.859 95.2884 279.296C95.5231 279.733 95.8431 280.075 96.2484 280.32C96.6538 280.565 97.1018 280.688 97.5924 280.688C98.0831 280.688 98.5258 280.565 98.9204 280.32C99.3258 280.075 99.6458 279.733 99.8804 279.296C100.115 278.859 100.232 278.357 100.232 277.792ZM107.979 273.392C108.737 273.392 109.323 273.552 109.739 273.872C110.155 274.181 110.443 274.603 110.603 275.136C110.774 275.659 110.859 276.245 110.859 276.896V281.184C110.859 281.419 110.779 281.616 110.619 281.776C110.47 281.925 110.283 282 110.059 282C109.825 282 109.633 281.925 109.483 281.776C109.334 281.616 109.259 281.419 109.259 281.184V276.912C109.259 276.528 109.206 276.187 109.099 275.888C108.993 275.579 108.806 275.333 108.539 275.152C108.283 274.96 107.921 274.864 107.451 274.864C107.014 274.864 106.63 274.96 106.299 275.152C105.969 275.333 105.707 275.579 105.515 275.888C105.334 276.187 105.243 276.528 105.243 276.912V281.184C105.243 281.419 105.163 281.616 105.003 281.776C104.854 281.925 104.667 282 104.443 282C104.209 282 104.017 281.925 103.867 281.776C103.718 281.616 103.643 281.419 103.643 281.184V274.4C103.643 274.165 103.718 273.973 103.867 273.824C104.017 273.664 104.209 273.584 104.443 273.584C104.667 273.584 104.854 273.664 105.003 273.824C105.163 273.973 105.243 274.165 105.243 274.4V275.296L104.955 275.456C105.03 275.221 105.158 274.987 105.339 274.752C105.531 274.507 105.761 274.283 106.027 274.08C106.294 273.867 106.593 273.701 106.923 273.584C107.254 273.456 107.606 273.392 107.979 273.392Z" fill="#2E2E2E"/>
<path d="M162.114 124.426C162.114 124.585 162.058 124.72 161.946 124.832C161.843 124.944 161.713 125 161.554 125C161.386 125 161.251 124.944 161.148 124.832C161.045 124.72 160.994 124.585 160.994 124.426V118.21C160.994 118.051 161.045 117.921 161.148 117.818C161.26 117.706 161.395 117.65 161.554 117.65C161.713 117.65 161.843 117.706 161.946 117.818C162.058 117.921 162.114 118.051 162.114 118.21V124.426ZM161.554 116.712C161.321 116.712 161.148 116.665 161.036 116.572C160.924 116.479 160.868 116.334 160.868 116.138V115.942C160.868 115.746 160.929 115.601 161.05 115.508C161.171 115.415 161.344 115.368 161.568 115.368C161.792 115.368 161.96 115.415 162.072 115.508C162.184 115.601 162.24 115.746 162.24 115.942V116.138C162.24 116.334 162.179 116.479 162.058 116.572C161.946 116.665 161.778 116.712 161.554 116.712ZM167.724 117.58C168.359 117.58 168.858 117.711 169.222 117.972C169.586 118.233 169.843 118.583 169.992 119.022C170.151 119.461 170.23 119.951 170.23 120.492V124.426C170.23 124.585 170.174 124.72 170.062 124.832C169.959 124.944 169.829 125 169.67 125C169.511 125 169.376 124.944 169.264 124.832C169.161 124.72 169.11 124.585 169.11 124.426V120.52C169.11 120.165 169.054 119.848 168.942 119.568C168.839 119.279 168.662 119.05 168.41 118.882C168.167 118.705 167.831 118.616 167.402 118.616C167.01 118.616 166.651 118.705 166.324 118.882C165.997 119.05 165.736 119.279 165.54 119.568C165.344 119.848 165.246 120.165 165.246 120.52V124.426C165.246 124.585 165.19 124.72 165.078 124.832C164.975 124.944 164.845 125 164.686 125C164.527 125 164.392 124.944 164.28 124.832C164.177 124.72 164.126 124.585 164.126 124.426V118.322C164.126 118.163 164.177 118.033 164.28 117.93C164.392 117.818 164.527 117.762 164.686 117.762C164.854 117.762 164.989 117.818 165.092 117.93C165.195 118.033 165.246 118.163 165.246 118.322V119.316L164.966 119.624C165.013 119.381 165.12 119.139 165.288 118.896C165.456 118.644 165.666 118.42 165.918 118.224C166.17 118.028 166.45 117.874 166.758 117.762C167.066 117.641 167.388 117.58 167.724 117.58ZM172.596 121.206C172.437 121.206 172.302 121.155 172.19 121.052C172.087 120.94 172.036 120.8 172.036 120.632C172.036 120.473 172.087 120.343 172.19 120.24C172.302 120.137 172.437 120.086 172.596 120.086H175.424C175.582 120.086 175.713 120.142 175.816 120.254C175.928 120.366 175.984 120.501 175.984 120.66C175.984 120.819 175.928 120.949 175.816 121.052C175.713 121.155 175.582 121.206 175.424 121.206H172.596ZM181.242 117.65C181.877 117.65 182.39 117.813 182.782 118.14C183.183 118.457 183.449 118.91 183.58 119.498H183.37L183.468 119.246C183.58 118.985 183.771 118.733 184.042 118.49C184.313 118.247 184.625 118.047 184.98 117.888C185.335 117.729 185.703 117.65 186.086 117.65C186.702 117.65 187.187 117.785 187.542 118.056C187.897 118.317 188.149 118.672 188.298 119.12C188.457 119.559 188.536 120.053 188.536 120.604V124.426C188.536 124.585 188.48 124.72 188.368 124.832C188.265 124.944 188.135 125 187.976 125C187.808 125 187.673 124.944 187.57 124.832C187.467 124.72 187.416 124.585 187.416 124.426V120.632C187.416 120.268 187.36 119.941 187.248 119.652C187.145 119.353 186.973 119.12 186.73 118.952C186.497 118.775 186.175 118.686 185.764 118.686C185.381 118.686 185.031 118.775 184.714 118.952C184.397 119.12 184.145 119.353 183.958 119.652C183.771 119.941 183.678 120.268 183.678 120.632V124.426C183.678 124.585 183.627 124.72 183.524 124.832C183.421 124.944 183.286 125 183.118 125C182.959 125 182.824 124.944 182.712 124.832C182.609 124.72 182.558 124.585 182.558 124.426V120.59C182.558 120.235 182.507 119.918 182.404 119.638C182.311 119.349 182.147 119.12 181.914 118.952C181.681 118.775 181.359 118.686 180.948 118.686C180.575 118.686 180.234 118.775 179.926 118.952C179.618 119.12 179.371 119.349 179.184 119.638C178.997 119.918 178.904 120.235 178.904 120.59V124.426C178.904 124.585 178.848 124.72 178.736 124.832C178.633 124.944 178.503 125 178.344 125C178.185 125 178.05 124.944 177.938 124.832C177.835 124.72 177.784 124.585 177.784 124.426V118.322C177.784 118.163 177.835 118.033 177.938 117.93C178.05 117.818 178.185 117.762 178.344 117.762C178.512 117.762 178.647 117.818 178.75 117.93C178.853 118.033 178.904 118.163 178.904 118.322V119.386L178.596 119.722C178.633 119.479 178.727 119.237 178.876 118.994C179.035 118.751 179.235 118.527 179.478 118.322C179.721 118.117 179.991 117.953 180.29 117.832C180.589 117.711 180.906 117.65 181.242 117.65ZM193.954 125.14C193.208 125.14 192.554 124.981 191.994 124.664C191.434 124.347 190.996 123.913 190.678 123.362C190.37 122.802 190.216 122.158 190.216 121.43C190.216 120.618 190.375 119.927 190.692 119.358C191.019 118.779 191.439 118.341 191.952 118.042C192.475 117.734 193.026 117.58 193.604 117.58C194.034 117.58 194.449 117.659 194.85 117.818C195.252 117.977 195.606 118.21 195.914 118.518C196.222 118.817 196.47 119.181 196.656 119.61C196.843 120.03 196.941 120.501 196.95 121.024C196.95 121.173 196.894 121.299 196.782 121.402C196.67 121.505 196.54 121.556 196.39 121.556H190.86L190.608 120.59H195.998L195.774 120.786V120.478C195.737 120.095 195.606 119.769 195.382 119.498C195.168 119.218 194.902 119.003 194.584 118.854C194.276 118.705 193.95 118.63 193.604 118.63C193.324 118.63 193.044 118.681 192.764 118.784C192.494 118.877 192.246 119.036 192.022 119.26C191.808 119.475 191.63 119.755 191.49 120.1C191.36 120.445 191.294 120.861 191.294 121.346C191.294 121.887 191.402 122.363 191.616 122.774C191.84 123.185 192.148 123.511 192.54 123.754C192.932 123.987 193.39 124.104 193.912 124.104C194.239 124.104 194.524 124.062 194.766 123.978C195.009 123.894 195.219 123.791 195.396 123.67C195.574 123.539 195.723 123.409 195.844 123.278C195.966 123.194 196.082 123.152 196.194 123.152C196.334 123.152 196.446 123.199 196.53 123.292C196.624 123.385 196.67 123.497 196.67 123.628C196.67 123.787 196.596 123.927 196.446 124.048C196.185 124.337 195.83 124.594 195.382 124.818C194.934 125.033 194.458 125.14 193.954 125.14ZM202.092 117.65C202.726 117.65 203.24 117.813 203.632 118.14C204.033 118.457 204.299 118.91 204.43 119.498H204.22L204.318 119.246C204.43 118.985 204.621 118.733 204.892 118.49C205.162 118.247 205.475 118.047 205.83 117.888C206.184 117.729 206.553 117.65 206.936 117.65C207.552 117.65 208.037 117.785 208.392 118.056C208.746 118.317 208.998 118.672 209.148 119.12C209.306 119.559 209.386 120.053 209.386 120.604V124.426C209.386 124.585 209.33 124.72 209.218 124.832C209.115 124.944 208.984 125 208.826 125C208.658 125 208.522 124.944 208.42 124.832C208.317 124.72 208.266 124.585 208.266 124.426V120.632C208.266 120.268 208.21 119.941 208.098 119.652C207.995 119.353 207.822 119.12 207.58 118.952C207.346 118.775 207.024 118.686 206.614 118.686C206.231 118.686 205.881 118.775 205.564 118.952C205.246 119.12 204.994 119.353 204.808 119.652C204.621 119.941 204.528 120.268 204.528 120.632V124.426C204.528 124.585 204.476 124.72 204.374 124.832C204.271 124.944 204.136 125 203.968 125C203.809 125 203.674 124.944 203.562 124.832C203.459 124.72 203.408 124.585 203.408 124.426V120.59C203.408 120.235 203.356 119.918 203.254 119.638C203.16 119.349 202.997 119.12 202.764 118.952C202.53 118.775 202.208 118.686 201.798 118.686C201.424 118.686 201.084 118.775 200.776 118.952C200.468 119.12 200.22 119.349 200.034 119.638C199.847 119.918 199.754 120.235 199.754 120.59V124.426C199.754 124.585 199.698 124.72 199.586 124.832C199.483 124.944 199.352 125 199.194 125C199.035 125 198.9 124.944 198.788 124.832C198.685 124.72 198.634 124.585 198.634 124.426V118.322C198.634 118.163 198.685 118.033 198.788 117.93C198.9 117.818 199.035 117.762 199.194 117.762C199.362 117.762 199.497 117.818 199.6 117.93C199.702 118.033 199.754 118.163 199.754 118.322V119.386L199.446 119.722C199.483 119.479 199.576 119.237 199.726 118.994C199.884 118.751 200.085 118.527 200.328 118.322C200.57 118.117 200.841 117.953 201.14 117.832C201.438 117.711 201.756 117.65 202.092 117.65ZM218.332 121.36C218.332 122.088 218.169 122.737 217.842 123.306C217.525 123.875 217.091 124.323 216.54 124.65C215.999 124.977 215.387 125.14 214.706 125.14C214.025 125.14 213.409 124.977 212.858 124.65C212.307 124.323 211.869 123.875 211.542 123.306C211.225 122.737 211.066 122.088 211.066 121.36C211.066 120.632 211.225 119.983 211.542 119.414C211.869 118.845 212.307 118.397 212.858 118.07C213.409 117.743 214.025 117.58 214.706 117.58C215.387 117.58 215.999 117.743 216.54 118.07C217.091 118.397 217.525 118.845 217.842 119.414C218.169 119.983 218.332 120.632 218.332 121.36ZM217.212 121.36C217.212 120.819 217.1 120.343 216.876 119.932C216.661 119.521 216.363 119.199 215.98 118.966C215.607 118.733 215.182 118.616 214.706 118.616C214.23 118.616 213.801 118.733 213.418 118.966C213.045 119.199 212.746 119.521 212.522 119.932C212.298 120.343 212.186 120.819 212.186 121.36C212.186 121.892 212.298 122.363 212.522 122.774C212.746 123.185 213.045 123.511 213.418 123.754C213.801 123.987 214.23 124.104 214.706 124.104C215.182 124.104 215.607 123.987 215.98 123.754C216.363 123.511 216.661 123.185 216.876 122.774C217.1 122.363 217.212 121.892 217.212 121.36ZM220.576 125C220.418 125 220.282 124.944 220.17 124.832C220.068 124.72 220.016 124.585 220.016 124.426V118.322C220.016 118.163 220.068 118.033 220.17 117.93C220.282 117.818 220.418 117.762 220.576 117.762C220.744 117.762 220.88 117.818 220.982 117.93C221.085 118.033 221.136 118.163 221.136 118.322V120.17L220.968 119.876C221.024 119.587 221.122 119.307 221.262 119.036C221.412 118.756 221.598 118.509 221.822 118.294C222.046 118.07 222.303 117.897 222.592 117.776C222.882 117.645 223.199 117.58 223.544 117.58C223.75 117.58 223.936 117.631 224.104 117.734C224.282 117.827 224.37 117.963 224.37 118.14C224.37 118.336 224.319 118.481 224.216 118.574C224.114 118.667 223.997 118.714 223.866 118.714C223.745 118.714 223.628 118.691 223.516 118.644C223.404 118.588 223.264 118.56 223.096 118.56C222.863 118.56 222.63 118.625 222.396 118.756C222.172 118.877 221.962 119.055 221.766 119.288C221.58 119.521 221.426 119.787 221.304 120.086C221.192 120.375 221.136 120.688 221.136 121.024V124.426C221.136 124.585 221.08 124.72 220.968 124.832C220.866 124.944 220.735 125 220.576 125ZM231.054 117.65C231.212 117.65 231.343 117.706 231.446 117.818C231.558 117.921 231.614 118.051 231.614 118.21V124.314C231.614 125.098 231.46 125.747 231.152 126.26C230.844 126.783 230.428 127.17 229.906 127.422C229.392 127.674 228.809 127.8 228.156 127.8C227.792 127.8 227.442 127.763 227.106 127.688C226.77 127.613 226.494 127.515 226.28 127.394C226.102 127.31 225.976 127.203 225.902 127.072C225.836 126.951 225.827 126.82 225.874 126.68C225.939 126.512 226.032 126.395 226.154 126.33C226.284 126.265 226.42 126.265 226.56 126.33C226.709 126.395 226.924 126.484 227.204 126.596C227.493 126.717 227.815 126.778 228.17 126.778C228.655 126.778 229.07 126.685 229.416 126.498C229.761 126.311 230.027 126.036 230.214 125.672C230.4 125.317 230.494 124.874 230.494 124.342V123.348L230.662 123.698C230.512 123.987 230.312 124.239 230.06 124.454C229.808 124.669 229.518 124.837 229.192 124.958C228.865 125.079 228.506 125.14 228.114 125.14C227.582 125.14 227.129 125.028 226.756 124.804C226.392 124.571 226.112 124.253 225.916 123.852C225.729 123.441 225.636 122.97 225.636 122.438V118.21C225.636 118.051 225.687 117.921 225.79 117.818C225.902 117.706 226.037 117.65 226.196 117.65C226.364 117.65 226.499 117.706 226.602 117.818C226.704 117.921 226.756 118.051 226.756 118.21V122.186C226.756 122.821 226.896 123.301 227.176 123.628C227.456 123.945 227.89 124.104 228.478 124.104C228.851 124.104 229.187 124.02 229.486 123.852C229.794 123.684 230.036 123.455 230.214 123.166C230.4 122.867 230.494 122.541 230.494 122.186V118.21C230.494 118.051 230.545 117.921 230.648 117.818C230.75 117.706 230.886 117.65 231.054 117.65ZM160.63 147.852C160.546 147.731 160.509 147.605 160.518 147.474C160.527 147.334 160.607 147.213 160.756 147.11C160.849 147.045 160.957 147.017 161.078 147.026C161.209 147.035 161.325 147.096 161.428 147.208C161.689 147.516 161.988 147.763 162.324 147.95C162.66 148.127 163.071 148.216 163.556 148.216C163.78 148.207 164.004 148.169 164.228 148.104C164.452 148.039 164.639 147.927 164.788 147.768C164.947 147.6 165.026 147.381 165.026 147.11C165.026 146.849 164.947 146.643 164.788 146.494C164.629 146.335 164.424 146.209 164.172 146.116C163.92 146.013 163.645 145.925 163.346 145.85C163.038 145.766 162.735 145.673 162.436 145.57C162.137 145.458 161.867 145.323 161.624 145.164C161.391 144.996 161.199 144.791 161.05 144.548C160.91 144.296 160.84 143.993 160.84 143.638C160.84 143.218 160.952 142.854 161.176 142.546C161.409 142.238 161.717 142 162.1 141.832C162.492 141.664 162.917 141.58 163.374 141.58C163.635 141.58 163.906 141.613 164.186 141.678C164.475 141.734 164.755 141.837 165.026 141.986C165.297 142.126 165.535 142.322 165.74 142.574C165.824 142.667 165.871 142.784 165.88 142.924C165.889 143.064 165.829 143.19 165.698 143.302C165.595 143.377 165.479 143.409 165.348 143.4C165.227 143.391 165.124 143.344 165.04 143.26C164.844 143.027 164.597 142.849 164.298 142.728C164.009 142.597 163.687 142.532 163.332 142.532C163.108 142.532 162.889 142.565 162.674 142.63C162.459 142.695 162.277 142.807 162.128 142.966C161.988 143.115 161.918 143.325 161.918 143.596C161.927 143.848 162.011 144.053 162.17 144.212C162.329 144.371 162.543 144.501 162.814 144.604C163.085 144.697 163.383 144.791 163.71 144.884C164.009 144.959 164.293 145.047 164.564 145.15C164.844 145.243 165.096 145.369 165.32 145.528C165.544 145.687 165.721 145.892 165.852 146.144C165.983 146.387 166.048 146.695 166.048 147.068C166.048 147.497 165.927 147.871 165.684 148.188C165.441 148.496 165.119 148.734 164.718 148.902C164.326 149.061 163.901 149.14 163.444 149.14C162.931 149.14 162.422 149.042 161.918 148.846C161.423 148.65 160.994 148.319 160.63 147.852ZM171.237 141.65C171.872 141.65 172.441 141.809 172.945 142.126C173.449 142.443 173.846 142.882 174.135 143.442C174.434 144.002 174.583 144.646 174.583 145.374C174.583 146.093 174.434 146.737 174.135 147.306C173.846 147.866 173.449 148.309 172.945 148.636C172.45 148.953 171.89 149.112 171.265 149.112C170.92 149.112 170.593 149.061 170.285 148.958C169.986 148.846 169.711 148.706 169.459 148.538C169.216 148.361 169.011 148.165 168.843 147.95C168.675 147.726 168.554 147.507 168.479 147.292L168.787 147.096V151.226C168.787 151.385 168.736 151.52 168.633 151.632C168.53 151.744 168.395 151.8 168.227 151.8C168.068 151.8 167.933 151.744 167.821 151.632C167.718 151.529 167.667 151.394 167.667 151.226V142.28C167.667 142.121 167.718 141.991 167.821 141.888C167.933 141.776 168.068 141.72 168.227 141.72C168.395 141.72 168.53 141.776 168.633 141.888C168.736 141.991 168.787 142.121 168.787 142.28V143.526L168.577 143.414C168.642 143.181 168.754 142.957 168.913 142.742C169.081 142.527 169.282 142.341 169.515 142.182C169.758 142.014 170.024 141.883 170.313 141.79C170.612 141.697 170.92 141.65 171.237 141.65ZM171.111 142.686C170.644 142.686 170.229 142.803 169.865 143.036C169.51 143.269 169.23 143.587 169.025 143.988C168.829 144.389 168.731 144.851 168.731 145.374C168.731 145.887 168.829 146.349 169.025 146.76C169.23 147.171 169.51 147.493 169.865 147.726C170.229 147.959 170.644 148.076 171.111 148.076C171.578 148.076 171.988 147.959 172.343 147.726C172.698 147.493 172.978 147.171 173.183 146.76C173.388 146.349 173.491 145.887 173.491 145.374C173.491 144.851 173.388 144.389 173.183 143.988C172.978 143.587 172.698 143.269 172.343 143.036C171.988 142.803 171.578 142.686 171.111 142.686ZM179.612 149.14C178.866 149.14 178.212 148.981 177.652 148.664C177.092 148.347 176.654 147.913 176.336 147.362C176.028 146.802 175.874 146.158 175.874 145.43C175.874 144.618 176.033 143.927 176.35 143.358C176.677 142.779 177.097 142.341 177.61 142.042C178.133 141.734 178.684 141.58 179.262 141.58C179.692 141.58 180.107 141.659 180.508 141.818C180.91 141.977 181.264 142.21 181.572 142.518C181.88 142.817 182.128 143.181 182.314 143.61C182.501 144.03 182.599 144.501 182.608 145.024C182.608 145.173 182.552 145.299 182.44 145.402C182.328 145.505 182.198 145.556 182.048 145.556H176.518L176.266 144.59H181.656L181.432 144.786V144.478C181.395 144.095 181.264 143.769 181.04 143.498C180.826 143.218 180.56 143.003 180.242 142.854C179.934 142.705 179.608 142.63 179.262 142.63C178.982 142.63 178.702 142.681 178.422 142.784C178.152 142.877 177.904 143.036 177.68 143.26C177.466 143.475 177.288 143.755 177.148 144.1C177.018 144.445 176.952 144.861 176.952 145.346C176.952 145.887 177.06 146.363 177.274 146.774C177.498 147.185 177.806 147.511 178.198 147.754C178.59 147.987 179.048 148.104 179.57 148.104C179.897 148.104 180.182 148.062 180.424 147.978C180.667 147.894 180.877 147.791 181.054 147.67C181.232 147.539 181.381 147.409 181.502 147.278C181.624 147.194 181.74 147.152 181.852 147.152C181.992 147.152 182.104 147.199 182.188 147.292C182.282 147.385 182.328 147.497 182.328 147.628C182.328 147.787 182.254 147.927 182.104 148.048C181.843 148.337 181.488 148.594 181.04 148.818C180.592 149.033 180.116 149.14 179.612 149.14ZM187.638 149.14C186.891 149.14 186.238 148.981 185.678 148.664C185.118 148.347 184.679 147.913 184.362 147.362C184.054 146.802 183.9 146.158 183.9 145.43C183.9 144.618 184.059 143.927 184.376 143.358C184.703 142.779 185.123 142.341 185.636 142.042C186.159 141.734 186.709 141.58 187.288 141.58C187.717 141.58 188.133 141.659 188.534 141.818C188.935 141.977 189.29 142.21 189.598 142.518C189.906 142.817 190.153 143.181 190.34 143.61C190.527 144.03 190.625 144.501 190.634 145.024C190.634 145.173 190.578 145.299 190.466 145.402C190.354 145.505 190.223 145.556 190.074 145.556H184.544L184.292 144.59H189.682L189.458 144.786V144.478C189.421 144.095 189.29 143.769 189.066 143.498C188.851 143.218 188.585 143.003 188.268 142.854C187.96 142.705 187.633 142.63 187.288 142.63C187.008 142.63 186.728 142.681 186.448 142.784C186.177 142.877 185.93 143.036 185.706 143.26C185.491 143.475 185.314 143.755 185.174 144.1C185.043 144.445 184.978 144.861 184.978 145.346C184.978 145.887 185.085 146.363 185.3 146.774C185.524 147.185 185.832 147.511 186.224 147.754C186.616 147.987 187.073 148.104 187.596 148.104C187.923 148.104 188.207 148.062 188.45 147.978C188.693 147.894 188.903 147.791 189.08 147.67C189.257 147.539 189.407 147.409 189.528 147.278C189.649 147.194 189.766 147.152 189.878 147.152C190.018 147.152 190.13 147.199 190.214 147.292C190.307 147.385 190.354 147.497 190.354 147.628C190.354 147.787 190.279 147.927 190.13 148.048C189.869 148.337 189.514 148.594 189.066 148.818C188.618 149.033 188.142 149.14 187.638 149.14ZM198.281 138.64C198.44 138.64 198.571 138.696 198.673 138.808C198.785 138.911 198.841 139.041 198.841 139.2V148.426C198.841 148.585 198.785 148.72 198.673 148.832C198.571 148.944 198.44 149 198.281 149C198.113 149 197.978 148.944 197.875 148.832C197.773 148.72 197.721 148.585 197.721 148.426V147.096L197.987 146.998C197.987 147.222 197.917 147.46 197.777 147.712C197.637 147.955 197.446 148.183 197.203 148.398C196.961 148.613 196.671 148.79 196.335 148.93C196.009 149.07 195.654 149.14 195.271 149.14C194.646 149.14 194.077 148.977 193.563 148.65C193.059 148.323 192.658 147.875 192.359 147.306C192.07 146.737 191.925 146.088 191.925 145.36C191.925 144.623 192.07 143.969 192.359 143.4C192.658 142.831 193.059 142.387 193.563 142.07C194.067 141.743 194.627 141.58 195.243 141.58C195.635 141.58 196.004 141.645 196.349 141.776C196.695 141.907 196.993 142.084 197.245 142.308C197.507 142.532 197.712 142.779 197.861 143.05C198.011 143.321 198.085 143.591 198.085 143.862L197.721 143.778V139.2C197.721 139.041 197.773 138.911 197.875 138.808C197.978 138.696 198.113 138.64 198.281 138.64ZM195.397 148.104C195.864 148.104 196.275 147.987 196.629 147.754C196.993 147.511 197.273 147.185 197.469 146.774C197.675 146.354 197.777 145.883 197.777 145.36C197.777 144.828 197.675 144.357 197.469 143.946C197.273 143.535 196.993 143.213 196.629 142.98C196.275 142.737 195.864 142.616 195.397 142.616C194.94 142.616 194.529 142.737 194.165 142.98C193.811 143.213 193.531 143.535 193.325 143.946C193.12 144.357 193.017 144.828 193.017 145.36C193.017 145.873 193.12 146.34 193.325 146.76C193.531 147.171 193.811 147.497 194.165 147.74C194.529 147.983 194.94 148.104 195.397 148.104Z" fill="#2E2E2E"/>
<path d="M42 90C41.4477 90 41 90.4477 41 91C41 91.5523 41.4477 92 42 92V90ZM110.707 91.7071C111.098 91.3166 111.098 90.6834 110.707 90.2929L104.343 83.9289C103.953 83.5384 103.319 83.5384 102.929 83.9289C102.538 84.3195 102.538 84.9526 102.929 85.3431L108.586 91L102.929 96.6569C102.538 97.0474 102.538 97.6805 102.929 98.0711C103.319 98.4616 103.953 98.4616 104.343 98.0711L110.707 91.7071ZM42 92H110V90H42V92Z" fill="#0172C6"/>
<path d="M42 107C41.4477 107 41 107.448 41 108C41 108.552 41.4477 109 42 109V107ZM110.707 108.707C111.098 108.317 111.098 107.683 110.707 107.293L104.343 100.929C103.953 100.538 103.319 100.538 102.929 100.929C102.538 101.319 102.538 101.953 102.929 102.343L108.586 108L102.929 113.657C102.538 114.047 102.538 114.681 102.929 115.071C103.319 115.462 103.953 115.462 104.343 115.071L110.707 108.707ZM42 109H110V107H42V109Z" fill="#0172C6"/>
<path d="M42 124C41.4477 124 41 124.448 41 125C41 125.552 41.4477 126 42 126V124ZM110.707 125.707C111.098 125.317 111.098 124.683 110.707 124.293L104.343 117.929C103.953 117.538 103.319 117.538 102.929 117.929C102.538 118.319 102.538 118.953 102.929 119.343L108.586 125L102.929 130.657C102.538 131.047 102.538 131.681 102.929 132.071C103.319 132.462 103.953 132.462 104.343 132.071L110.707 125.707ZM42 126H110V124H42V126Z" fill="#0172C6"/>
<path d="M42 141C41.4477 141 41 141.448 41 142C41 142.552 41.4477 143 42 143V141ZM110.707 142.707C111.098 142.317 111.098 141.683 110.707 141.293L104.343 134.929C103.953 134.538 103.319 134.538 102.929 134.929C102.538 135.319 102.538 135.953 102.929 136.343L108.586 142L102.929 147.657C102.538 148.047 102.538 148.681 102.929 149.071C103.319 149.462 103.953 149.462 104.343 149.071L110.707 142.707ZM42 143H110V141H42V143Z" fill="#0172C6"/>
<path d="M42 158C41.4477 158 41 158.448 41 159C41 159.552 41.4477 160 42 160V158ZM110.707 159.707C111.098 159.317 111.098 158.683 110.707 158.293L104.343 151.929C103.953 151.538 103.319 151.538 102.929 151.929C102.538 152.319 102.538 152.953 102.929 153.343L108.586 159L102.929 164.657C102.538 165.047 102.538 165.681 102.929 166.071C103.319 166.462 103.953 166.462 104.343 166.071L110.707 159.707ZM42 160H110V158H42V160Z" fill="#0172C6"/>
<path d="M42 175C41.4477 175 41 175.448 41 176C41 176.552 41.4477 177 42 177V175ZM110.707 176.707C111.098 176.317 111.098 175.683 110.707 175.293L104.343 168.929C103.953 168.538 103.319 168.538 102.929 168.929C102.538 169.319 102.538 169.953 102.929 170.343L108.586 176L102.929 181.657C102.538 182.047 102.538 182.681 102.929 183.071C103.319 183.462 103.953 183.462 104.343 183.071L110.707 176.707ZM42 177H110V175H42V177Z" fill="#0172C6"/>
<defs>
<linearGradient id="paint0_linear_5833_3" x1="76" y1="72" x2="76" y2="192" gradientUnits="userSpaceOnUse">
<stop stop-color="#1E80CA" stop-opacity="0.52"/>
<stop offset="1" stop-color="#0172C6" stop-opacity="0"/>
</linearGradient>
</defs>
</svg>
