<svg width="16" height="55" viewBox="0 0 16 55" fill="none" xmlns="http://www.w3.org/2000/svg">
<path d="M9 1C9 0.447715 8.55228 0 8 0C7.44772 0 7 0.447715 7 1H9ZM7.29289 54.7071C7.68342 55.0976 8.31658 55.0976 8.70711 54.7071L15.0711 48.3431C15.4616 47.9526 15.4616 47.3195 15.0711 46.9289C14.6805 46.5384 14.0474 46.5384 13.6569 46.9289L8 52.5858L2.34315 46.9289C1.95262 46.5384 1.31946 46.5384 0.928932 46.9289C0.538408 47.3195 0.538408 47.9526 0.928932 48.3431L7.29289 54.7071ZM7 1V54H9V1H7Z" fill="black" fill-opacity="0.45"/>
</svg>
