<svg width="226" height="24" viewBox="0 0 226 24" fill="none" xmlns="http://www.w3.org/2000/svg">
<path d="M224 10.5C224.828 10.5 225.5 11.1716 225.5 12C225.5 12.8284 224.828 13.5 224 13.5V10.5ZM0.939346 13.0607C0.353546 12.4749 0.353546 11.5251 0.939346 10.9393L10.4853 1.3934C11.0711 0.807611 12.0208 0.807611 12.6066 1.3934C13.1924 1.97919 13.1924 2.92893 12.6066 3.51472L4.12132 12L12.6066 20.4853C13.1924 21.0711 13.1924 22.0208 12.6066 22.6066C12.0208 23.1924 11.0711 23.1924 10.4853 22.6066L0.939346 13.0607ZM2 10.5H4.92105V13.5H2V10.5ZM10.7632 10.5H16.6053V13.5H10.7632V10.5ZM22.4474 10.5H28.2895V13.5H22.4474V10.5ZM34.1316 10.5H39.9737V13.5H34.1316V10.5ZM45.8158 10.5H51.6579V13.5H45.8158V10.5ZM57.5 10.5H63.3421V13.5H57.5V10.5ZM69.1842 10.5H75.0263V13.5H69.1842V10.5ZM80.8684 10.5H86.7105V13.5H80.8684V10.5ZM92.5526 10.5H98.3947V13.5H92.5526V10.5ZM104.237 10.5H110.079V13.5H104.237V10.5ZM115.921 10.5H121.763V13.5H115.921V10.5ZM127.605 10.5H133.447V13.5H127.605V10.5ZM139.289 10.5H145.132V13.5H139.289V10.5ZM150.974 10.5H156.816V13.5H150.974V10.5ZM162.658 10.5H168.5V13.5H162.658V10.5ZM174.342 10.5H180.184V13.5H174.342V10.5ZM186.026 10.5H191.868V13.5H186.026V10.5ZM197.71 10.5H203.553V13.5H197.71V10.5ZM209.395 10.5H215.237V13.5H209.395V10.5ZM221.079 10.5H224V13.5H221.079V10.5Z" fill="#0172C6"/>
</svg>
