<svg width="226" height="24" viewBox="0 0 226 24" fill="none" xmlns="http://www.w3.org/2000/svg">
<path d="M2 10.5C1.17157 10.5 0.5 11.1716 0.5 12C0.5 12.8284 1.17157 13.5 2 13.5L2 10.5ZM225.061 13.0607C225.646 12.4749 225.646 11.5251 225.061 10.9393L215.515 1.3934C214.929 0.807611 213.979 0.807611 213.393 1.3934C212.808 1.97919 212.808 2.92893 213.393 3.51472L221.879 12L213.393 20.4853C212.808 21.0711 212.808 22.0208 213.393 22.6066C213.979 23.1924 214.929 23.1924 215.515 22.6066L225.061 13.0607ZM224 10.5H221.079V13.5H224V10.5ZM215.237 10.5H209.395V13.5H215.237V10.5ZM203.553 10.5H197.711V13.5H203.553V10.5ZM191.868 10.5H186.026V13.5H191.868V10.5ZM180.184 10.5H174.342V13.5H180.184V10.5ZM168.5 10.5H162.658V13.5H168.5V10.5ZM156.816 10.5H150.974V13.5H156.816V10.5ZM145.132 10.5H139.289V13.5H145.132V10.5ZM133.447 10.5H127.605V13.5H133.447V10.5ZM121.763 10.5H115.921V13.5H121.763V10.5ZM110.079 10.5H104.237V13.5H110.079V10.5ZM98.3948 10.5H92.5527V13.5H98.3948V10.5ZM86.7106 10.5H80.8685V13.5H86.7106V10.5ZM75.0264 10.5H69.1842V13.5H75.0264V10.5ZM63.3421 10.5H57.5V13.5H63.3421V10.5ZM51.6579 10.5H45.8158V13.5H51.6579V10.5ZM39.9737 10.5H34.1316V13.5H39.9737V10.5ZM28.2895 10.5H22.4474V13.5H28.2895V10.5ZM16.6053 10.5H10.7632V13.5H16.6053V10.5ZM4.92112 10.5H2L2 13.5H4.92112V10.5Z" fill="#0172C6"/>
</svg>
